<svg fill="none" viewBox="0 0 24 25"><path fill="#141B34" fill-rule="evenodd" d="M11 2.5a1 1 0 0 1 1-1c6.075 0 11 4.925 11 11s-4.925 11-11 11-11-4.925-11-11c0-1.988.528-3.855 1.452-5.466a1 1 0 0 1 1.735.995A8.95 8.95 0 0 0 3 12.5a9 9 0 1 0 9-9 1 1 0 0 1-1-1" clip-rule="evenodd"/><path fill="#141B34" fill-rule="evenodd" d="M11 5.75a1 1 0 0 1 1-1 7.75 7.75 0 1 1-7.75 7.75 1 1 0 1 1 2 0A5.75 5.75 0 1 0 12 6.75a1 1 0 0 1-1-1" clip-rule="evenodd"/><path fill="#141B34" fill-rule="evenodd" d="M11 9.5a1 1 0 0 1 1-1 4 4 0 0 1 0 8 1 1 0 1 1 0-2 2 2 0 1 0 0-4 1 1 0 0 1-1-1" clip-rule="evenodd"/></svg>