<svg xmlns="http://www.w3.org/2000/svg" viewBox="0 0 16 16" fill="none"><path stroke="currentColor" stroke-linecap="round" stroke-linejoin="round" stroke-width="1.5" d="M5.334 3V2m5.333 1V2M13 5.333h1m-1 5.333h1M5.334 14v-1m5.333 1v-1M2 5.333h1m-1 5.333h1"/><path stroke="currentColor" stroke-width="1.5" d="M5.334 7.333c0-.943 0-1.414.293-1.707s.764-.293 1.707-.293h1.333c.943 0 1.415 0 1.707.293s.293.764.293 1.707v1.333c0 .943 0 1.415-.293 1.707s-.764.293-1.707.293H7.334c-.943 0-1.414 0-1.707-.293-.293-.292-.293-.764-.293-1.707z"/></svg>