<svg fill="none" viewBox="0 0 24 25"><path fill="#141B34" fill-rule="evenodd" d="M12 8.5a4 4 0 1 0 4 4 1 1 0 1 1 2 0 6 6 0 1 1-6-6 1 1 0 1 1 0 2" clip-rule="evenodd"/><path fill="#141B34" fill-rule="evenodd" d="M12 3.5a9 9 0 1 0 8.82 7.199 1 1 0 1 1 1.96-.398c.144.711.22 1.447.22 2.199 0 6.075-4.925 11-11 11s-11-4.925-11-11 4.925-11 11-11c.752 0 1.488.076 2.199.22a1 1 0 1 1-.398 1.96A9 9 0 0 0 12 3.5" clip-rule="evenodd"/><path fill="#141B34" d="M20.142 2.578a1.43 1.43 0 0 0-1.17-1.059 1.6 1.6 0 0 0-1.381.464l-1.15 1.15c-1.269 1.269-1.375 2.833-.95 4.462l-4.198 4.198a1 1 0 0 0 1.414 1.414l4.198-4.198c1.629.425 3.193.319 4.463-.95l1.149-1.15a1.6 1.6 0 0 0 .464-1.381 1.43 1.43 0 0 0-1.059-1.17L20.51 3.99z"/></svg>