<svg fill="none" viewBox="0 0 24 25"><path fill="#141B34" fill-rule="evenodd" d="M14.057 1.5H9.943c-1.591 0-2.865 0-3.882.107-1.048.11-1.939.344-2.716.888a5.5 5.5 0 0 0-1.35 1.35c-.544.777-.777 1.668-.888 2.716C1 7.578 1 8.85 1 10.443v.114c0 1.591 0 2.865.107 3.882.11 1.048.344 1.939.888 2.716a5.5 5.5 0 0 0 1.35 1.35c.777.544 1.668.777 2.716.888.971.102 2.175.107 3.667.107.039.333.026.67-.033.99-.067.365-.101.547-.38.779-.277.231-.55.231-1.097.231H7a1 1 0 1 0 0 2h10a1 1 0 1 0 0-2h-1.218c-.547 0-.82 0-1.098-.231-.278-.232-.312-.414-.38-.78a3.3 3.3 0 0 1-.032-.989c1.492 0 2.696-.005 3.667-.107 1.048-.11 1.939-.344 2.716-.888a5.5 5.5 0 0 0 1.35-1.35c.544-.777.777-1.668.888-2.716.107-1.017.107-2.29.107-3.882v-.114c0-1.591 0-2.865-.107-3.882-.11-1.048-.344-1.939-.888-2.716a5.5 5.5 0 0 0-1.35-1.35c-.777-.544-1.668-.777-2.716-.888-1.017-.107-2.29-.107-3.882-.107M4.492 4.133c.386-.27.896-.444 1.778-.537.9-.095 2.07-.096 3.73-.096h4c1.661 0 2.83.001 3.73.096.882.093 1.392.267 1.777.537.335.234.626.525.86.86.27.385.444.895.537 1.777.095.9.096 2.069.096 3.73s-.001 2.83-.096 3.73c-.093.882-.267 1.392-.537 1.777a3.5 3.5 0 0 1-.86.86c-.385.27-.895.444-1.777.537-.9.095-2.069.096-3.73.096h-4c-1.661 0-2.83-.001-3.73-.096-.882-.093-1.392-.267-1.778-.537a3.5 3.5 0 0 1-.859-.86c-.27-.385-.444-.895-.537-1.777C3.001 13.33 3 12.16 3 10.5s.001-2.83.096-3.73c.093-.882.267-1.392.537-1.778a3.5 3.5 0 0 1 .86-.859Z" clip-rule="evenodd"/><path fill="#141B34" fill-rule="evenodd" d="M12 5a1 1 0 0 1 1 1v.278c.802.253 1.483.808 1.809 1.586a1 1 0 1 1-1.845.772c-.094-.224-.428-.511-.964-.511-.718 0-1 .46-1 .688s.282.687 1 .687c1.49 0 3 1.05 3 2.688 0 1.265-.902 2.18-2 2.53V15a1 1 0 1 1-2 0v-.278c-.802-.253-1.483-.808-1.809-1.586a1 1 0 0 1 1.845-.772c.094.224.428.511.964.511.718 0 1-.46 1-.688s-.282-.687-1-.687c-1.49 0-3-1.05-3-2.688 0-1.265.902-2.18 2-2.53V6a1 1 0 0 1 1-1" clip-rule="evenodd"/></svg>