<svg xmlns="http://www.w3.org/2000/svg" width="24" height="25" fill="none"><path fill="#0A0915" d="M12.5 4.5a4.5 4.5 0 1 0 0 9H15a1 1 0 1 1 0 2h-3.725c-.814 1.776-1.89 3.595-3.255 5h8.856l.04-.001c.038-.002.1-.005.179-.013a4.8 4.8 0 0 0 .646-.106c.534-.124 1.128-.359 1.577-.778a1 1 0 1 1 1.364 1.462c-.801.748-1.77 1.097-2.486 1.264a6.869 6.869 0 0 1-.916.15 5.474 5.474 0 0 1-.405.022H5a1 1 0 0 1-.423-1.906c1.792-.836 3.309-2.795 4.478-5.094H4a1 1 0 1 1 0-2h3.81A6.5 6.5 0 1 1 19 9a1 1 0 1 1-2 0 4.5 4.5 0 0 0-4.5-4.5Z"/></svg>