<svg fill="none" viewBox="0 0 24 25"><path fill="#141B34" d="M9.77 4.009C5.045 5.27 2.247 10.096 3.507 14.78c1.26 4.686 6.107 7.473 10.833 6.21a8.83 8.83 0 0 0 6.466-7.188.977.977 0 0 1 1.933.295 10.79 10.79 0 0 1-7.894 8.782c-5.759 1.537-11.683-1.855-13.226-7.592S3.506 3.658 9.266 2.12c5.407-1.444 10.96 1.46 12.895 6.568a.978.978 0 0 1-.855 1.322l-2.453.15a.977.977 0 0 1-1.035-.917c-.012-.202 0-.422.133-.555l1.008-1.007a.48.48 0 0 0 .044-.64A8.87 8.87 0 0 0 9.77 4.01Z"/><path fill="#141B34" fill-rule="evenodd" d="M12 7.5a1 1 0 0 1 1 1v3.586l1.707 1.707a1 1 0 0 1-1.414 1.414l-2-2A1 1 0 0 1 11 12.5v-4a1 1 0 0 1 1-1" clip-rule="evenodd"/></svg>