<svg fill="none" viewBox="0 0 24 25"><path fill="#102D23" fill-rule="evenodd" d="M12 4.5c-4.988 0-9 3.964-9 8.815 0 2.696 1.235 5.114 3.193 6.734.15.125.264.219.365.297.084.065.142.105.184.131.032-.032.078-.083.144-.164.083-.103.181-.232.309-.406a1 1 0 1 1 1.61 1.186c-.243.33-.482.65-.738.884-.312.285-.66.455-1.088.508a1.9 1.9 0 0 1-1.212-.26c-.29-.167-.583-.415-.85-.635C2.528 19.61 1 16.64 1 13.315 1 7.325 5.943 2.5 12 2.5s11 4.824 11 10.815c0 3.325-1.527 6.295-3.918 8.275-.266.22-.56.468-.85.634-.342.198-.738.32-1.21.261a1.9 1.9 0 0 1-1.09-.508c-.255-.233-.494-.555-.737-.884a1 1 0 1 1 1.61-1.186c.128.174.226.303.309.406.066.081.112.132.144.164.042-.026.1-.066.184-.131.1-.078.215-.172.365-.297C19.765 18.43 21 16.011 21 13.315 21 8.464 16.988 4.5 12 4.5" clip-rule="evenodd"/><path fill="#102D23" fill-rule="evenodd" d="M18.633 4.726a1 1 0 0 1 .141 1.407l-4.5 5.5a1 1 0 0 1-1.548-1.266l4.5-5.5a1 1 0 0 1 1.407-.14Z" clip-rule="evenodd"/><path fill="#102D23" fill-rule="evenodd" d="M12 10a2.5 2.5 0 1 0 0 5 2.5 2.5 0 0 0 0-5m-.75 2.5a.75.75 0 1 1 1.5 0 .75.75 0 0 1-1.5 0" clip-rule="evenodd"/></svg>