<svg fill="none" viewBox="0 0 24 25"><path fill="#141B34" fill-rule="evenodd" d="M6.188 2.75v2.864c0 3.163 2.602 5.727 5.812 5.727s5.813-2.564 5.813-5.727V2.75h1.937v2.864c0 4.217-3.47 7.636-7.75 7.636S4.25 9.831 4.25 5.614V2.75z" clip-rule="evenodd"/><path fill="#141B34" d="M4.25 22.25h15.5v-2.864c0-4.217-3.47-7.636-7.75-7.636s-7.75 3.419-7.75 7.636z"/><path fill="#141B34" fill-rule="evenodd" d="M3 2.5a1 1 0 0 1 1-1h16a1 1 0 1 1 0 2H4a1 1 0 0 1-1-1m0 20a1 1 0 0 1 1-1h16a1 1 0 1 1 0 2H4a1 1 0 0 1-1-1" clip-rule="evenodd"/></svg>