<svg fill="none" viewBox="0 0 22 23"><path fill="#102D23" d="M15.999 11.47a1 1 0 0 1-1.466.885.3.3 0 0 1-.062-.046l-1.303-1.298a.304.304 0 0 0-.4-.024 16.93 16.93 0 0 1-10.486 3.511 14 14 0 0 1-.737-.03.294.294 0 0 1-.27-.323l.134-1.393a.31.31 0 0 1 .328-.275q.242.015.575.022c.758.01 1.836-.041 3.092-.296a14.9 14.9 0 0 0 5.872-2.596.295.295 0 0 0 .032-.448L10.15 8.006a.3.3 0 0 1-.051-.07 1 1 0 0 1 .9-1.436h2.054c.424 0 .836 0 1.176.045.381.051.818.175 1.182.536s.49.798.542 1.18c.046.34.046.75.046 1.17z"/><path fill="#102D23" fill-rule="evenodd" d="M14.75.75a1 1 0 0 1 1 1v1.385a1 1 0 1 1-2 0V1.75a1 1 0 0 1 1-1m5.315 1.677a1 1 0 0 1 0 1.414l-.977.98a1 1 0 0 1-1.415-1.414l.978-.979a1 1 0 0 1 1.414-.001M18.368 7.75a1 1 0 0 1 1-1h1.382a1 1 0 1 1 0 2h-1.382a1 1 0 0 1-1-1" clip-rule="evenodd"/><path fill="#102D23" fill-rule="evenodd" d="M11 2.705a8.795 8.795 0 1 0 8.796 8.795.977.977 0 1 1 1.954 0c0 5.937-4.813 10.75-10.75 10.75S.25 17.437.25 11.5 5.063.75 11 .75a.977.977 0 0 1 0 1.955" clip-rule="evenodd"/></svg>