<svg xmlns="http://www.w3.org/2000/svg" xmlns:xlink="http://www.w3.org/1999/xlink" width="320" zoomAndPan="magnify" viewBox="0 0 240 74.999997" height="100" preserveAspectRatio="xMidYMid meet" version="1.0"><defs><clipPath id="54ec657c3b"><path d="M 0.835938 0.394531 L 57.046875 0.394531 L 57.046875 56.605469 L 0.835938 56.605469 Z M 0.835938 0.394531 " clip-rule="nonzero"/></clipPath><clipPath id="a74f5adf6c"><path d="M 28.941406 0.394531 C 13.417969 0.394531 0.835938 12.980469 0.835938 28.5 C 0.835938 44.019531 13.417969 56.605469 28.941406 56.605469 C 44.460938 56.605469 57.046875 44.019531 57.046875 28.5 C 57.046875 12.980469 44.460938 0.394531 28.941406 0.394531 Z M 28.941406 0.394531 " clip-rule="nonzero"/></clipPath><clipPath id="df0d5d3c46"><path d="M 0.835938 0.394531 L 57.046875 0.394531 L 57.046875 56.605469 L 0.835938 56.605469 Z M 0.835938 0.394531 " clip-rule="nonzero"/></clipPath><clipPath id="49d9bba0df"><path d="M 28.941406 0.394531 C 13.417969 0.394531 0.835938 12.980469 0.835938 28.5 C 0.835938 44.019531 13.417969 56.605469 28.941406 56.605469 C 44.460938 56.605469 57.046875 44.019531 57.046875 28.5 C 57.046875 12.980469 44.460938 0.394531 28.941406 0.394531 Z M 28.941406 0.394531 " clip-rule="nonzero"/></clipPath><linearGradient x1="-0.000000000000003553" gradientTransform="matrix(0.219563, 0, 0, 0.219563, 0.837215, 0.395881)" y1="-0.000000000000003553" x2="255.999998" gradientUnits="userSpaceOnUse" y2="255.999998" id="cf8cef3c65"><stop stop-opacity="1" stop-color="rgb(98.039246%, 14.898682%, 62.748718%)" offset="0"/><stop stop-opacity="1" stop-color="rgb(97.854614%, 14.889526%, 62.80365%)" offset="0.0078125"/><stop stop-opacity="1" stop-color="rgb(97.486877%, 14.871216%, 62.915039%)" offset="0.015625"/><stop stop-opacity="1" stop-color="rgb(97.119141%, 14.852905%, 63.024902%)" offset="0.0234375"/><stop stop-opacity="1" stop-color="rgb(96.751404%, 14.834595%, 63.134766%)" offset="0.03125"/><stop stop-opacity="1" stop-color="rgb(96.383667%, 14.816284%, 63.244629%)" offset="0.0390625"/><stop stop-opacity="1" stop-color="rgb(96.01593%, 14.797974%, 63.356018%)" offset="0.046875"/><stop stop-opacity="1" stop-color="rgb(95.648193%, 14.779663%, 63.465881%)" offset="0.0546875"/><stop stop-opacity="1" stop-color="rgb(95.280457%, 14.761353%, 63.575745%)" offset="0.0625"/><stop stop-opacity="1" stop-color="rgb(94.91272%, 14.743042%, 63.685608%)" offset="0.0703125"/><stop stop-opacity="1" stop-color="rgb(94.546509%, 14.724731%, 63.796997%)" offset="0.078125"/><stop stop-opacity="1" stop-color="rgb(94.178772%, 14.706421%, 63.90686%)" offset="0.0859375"/><stop stop-opacity="1" stop-color="rgb(93.811035%, 14.68811%, 64.016724%)" offset="0.09375"/><stop stop-opacity="1" stop-color="rgb(93.443298%, 14.6698%, 64.126587%)" offset="0.101562"/><stop stop-opacity="1" stop-color="rgb(93.075562%, 14.651489%, 64.237976%)" offset="0.109375"/><stop stop-opacity="1" stop-color="rgb(92.707825%, 14.633179%, 64.347839%)" offset="0.117188"/><stop stop-opacity="1" stop-color="rgb(92.340088%, 14.614868%, 64.457703%)" offset="0.125"/><stop stop-opacity="1" stop-color="rgb(91.972351%, 14.596558%, 64.567566%)" offset="0.132812"/><stop stop-opacity="1" stop-color="rgb(91.604614%, 14.578247%, 64.677429%)" offset="0.140625"/><stop stop-opacity="1" stop-color="rgb(91.236877%, 14.559937%, 64.788818%)" offset="0.148438"/><stop stop-opacity="1" stop-color="rgb(90.869141%, 14.541626%, 64.898682%)" offset="0.15625"/><stop stop-opacity="1" stop-color="rgb(90.501404%, 14.523315%, 65.008545%)" offset="0.164063"/><stop stop-opacity="1" stop-color="rgb(90.133667%, 14.505005%, 65.118408%)" offset="0.171875"/><stop stop-opacity="1" stop-color="rgb(89.76593%, 14.486694%, 65.229797%)" offset="0.179688"/><stop stop-opacity="1" stop-color="rgb(89.398193%, 14.468384%, 65.339661%)" offset="0.1875"/><stop stop-opacity="1" stop-color="rgb(89.030457%, 14.450073%, 65.449524%)" offset="0.195313"/><stop stop-opacity="1" stop-color="rgb(88.66272%, 14.431763%, 65.559387%)" offset="0.203125"/><stop stop-opacity="1" stop-color="rgb(88.294983%, 14.413452%, 65.670776%)" offset="0.210938"/><stop stop-opacity="1" stop-color="rgb(87.927246%, 14.393616%, 65.78064%)" offset="0.21875"/><stop stop-opacity="1" stop-color="rgb(87.561035%, 14.375305%, 65.890503%)" offset="0.226562"/><stop stop-opacity="1" stop-color="rgb(87.193298%, 14.356995%, 66.000366%)" offset="0.234375"/><stop stop-opacity="1" stop-color="rgb(86.825562%, 14.338684%, 66.111755%)" offset="0.242188"/><stop stop-opacity="1" stop-color="rgb(86.457825%, 14.320374%, 66.221619%)" offset="0.25"/><stop stop-opacity="1" stop-color="rgb(86.090088%, 14.302063%, 66.331482%)" offset="0.257812"/><stop stop-opacity="1" stop-color="rgb(85.722351%, 14.283752%, 66.441345%)" offset="0.265625"/><stop stop-opacity="1" stop-color="rgb(85.354614%, 14.265442%, 66.552734%)" offset="0.273438"/><stop stop-opacity="1" stop-color="rgb(84.986877%, 14.247131%, 66.662598%)" offset="0.28125"/><stop stop-opacity="1" stop-color="rgb(84.619141%, 14.228821%, 66.772461%)" offset="0.289062"/><stop stop-opacity="1" stop-color="rgb(84.251404%, 14.21051%, 66.882324%)" offset="0.296875"/><stop stop-opacity="1" stop-color="rgb(83.883667%, 14.1922%, 66.993713%)" offset="0.304687"/><stop stop-opacity="1" stop-color="rgb(83.51593%, 14.173889%, 67.103577%)" offset="0.3125"/><stop stop-opacity="1" stop-color="rgb(83.148193%, 14.155579%, 67.21344%)" offset="0.320312"/><stop stop-opacity="1" stop-color="rgb(82.780457%, 14.137268%, 67.323303%)" offset="0.328125"/><stop stop-opacity="1" stop-color="rgb(82.41272%, 14.118958%, 67.434692%)" offset="0.335938"/><stop stop-opacity="1" stop-color="rgb(82.044983%, 14.100647%, 67.544556%)" offset="0.34375"/><stop stop-opacity="1" stop-color="rgb(81.677246%, 14.082336%, 67.654419%)" offset="0.351563"/><stop stop-opacity="1" stop-color="rgb(81.309509%, 14.064026%, 67.764282%)" offset="0.359375"/><stop stop-opacity="1" stop-color="rgb(80.941772%, 14.045715%, 67.875671%)" offset="0.367188"/><stop stop-opacity="1" stop-color="rgb(80.575562%, 14.027405%, 67.985535%)" offset="0.375"/><stop stop-opacity="1" stop-color="rgb(80.207825%, 14.009094%, 68.095398%)" offset="0.382813"/><stop stop-opacity="1" stop-color="rgb(79.840088%, 13.990784%, 68.205261%)" offset="0.390625"/><stop stop-opacity="1" stop-color="rgb(79.472351%, 13.972473%, 68.315125%)" offset="0.398438"/><stop stop-opacity="1" stop-color="rgb(79.104614%, 13.954163%, 68.426514%)" offset="0.40625"/><stop stop-opacity="1" stop-color="rgb(78.736877%, 13.935852%, 68.536377%)" offset="0.414062"/><stop stop-opacity="1" stop-color="rgb(78.369141%, 13.917542%, 68.64624%)" offset="0.421875"/><stop stop-opacity="1" stop-color="rgb(78.001404%, 13.899231%, 68.756104%)" offset="0.429688"/><stop stop-opacity="1" stop-color="rgb(77.633667%, 13.88092%, 68.867493%)" offset="0.4375"/><stop stop-opacity="1" stop-color="rgb(77.26593%, 13.86261%, 68.977356%)" offset="0.445312"/><stop stop-opacity="1" stop-color="rgb(76.898193%, 13.844299%, 69.087219%)" offset="0.453125"/><stop stop-opacity="1" stop-color="rgb(76.530457%, 13.824463%, 69.197083%)" offset="0.460938"/><stop stop-opacity="1" stop-color="rgb(76.16272%, 13.806152%, 69.308472%)" offset="0.46875"/><stop stop-opacity="1" stop-color="rgb(75.794983%, 13.787842%, 69.418335%)" offset="0.476562"/><stop stop-opacity="1" stop-color="rgb(75.427246%, 13.769531%, 69.528198%)" offset="0.484375"/><stop stop-opacity="1" stop-color="rgb(75.059509%, 13.751221%, 69.638062%)" offset="0.492187"/><stop stop-opacity="1" stop-color="rgb(74.691772%, 13.73291%, 69.749451%)" offset="0.5"/><stop stop-opacity="1" stop-color="rgb(74.508667%, 13.723755%, 69.804382%)" offset="0.5"/><stop stop-opacity="1" stop-color="rgb(74.324036%, 13.7146%, 69.859314%)" offset="0.5"/><stop stop-opacity="1" stop-color="rgb(74.14093%, 13.705444%, 69.914246%)" offset="0.507812"/><stop stop-opacity="1" stop-color="rgb(73.956299%, 13.696289%, 69.969177%)" offset="0.515625"/><stop stop-opacity="1" stop-color="rgb(73.590088%, 13.677979%, 70.079041%)" offset="0.523438"/><stop stop-opacity="1" stop-color="rgb(73.222351%, 13.659668%, 70.19043%)" offset="0.53125"/><stop stop-opacity="1" stop-color="rgb(72.854614%, 13.641357%, 70.300293%)" offset="0.539062"/><stop stop-opacity="1" stop-color="rgb(72.486877%, 13.623047%, 70.410156%)" offset="0.546875"/><stop stop-opacity="1" stop-color="rgb(72.119141%, 13.604736%, 70.52002%)" offset="0.554687"/><stop stop-opacity="1" stop-color="rgb(71.751404%, 13.586426%, 70.631409%)" offset="0.5625"/><stop stop-opacity="1" stop-color="rgb(71.383667%, 13.568115%, 70.741272%)" offset="0.570312"/><stop stop-opacity="1" stop-color="rgb(71.01593%, 13.549805%, 70.851135%)" offset="0.578125"/><stop stop-opacity="1" stop-color="rgb(70.648193%, 13.531494%, 70.960999%)" offset="0.585938"/><stop stop-opacity="1" stop-color="rgb(70.280457%, 13.513184%, 71.072388%)" offset="0.59375"/><stop stop-opacity="1" stop-color="rgb(69.91272%, 13.494873%, 71.182251%)" offset="0.601562"/><stop stop-opacity="1" stop-color="rgb(69.544983%, 13.476562%, 71.292114%)" offset="0.609375"/><stop stop-opacity="1" stop-color="rgb(69.177246%, 13.458252%, 71.401978%)" offset="0.617187"/><stop stop-opacity="1" stop-color="rgb(68.809509%, 13.439941%, 71.513367%)" offset="0.625"/><stop stop-opacity="1" stop-color="rgb(68.441772%, 13.421631%, 71.62323%)" offset="0.632812"/><stop stop-opacity="1" stop-color="rgb(68.074036%, 13.40332%, 71.733093%)" offset="0.640625"/><stop stop-opacity="1" stop-color="rgb(67.706299%, 13.38501%, 71.842957%)" offset="0.648438"/><stop stop-opacity="1" stop-color="rgb(67.338562%, 13.366699%, 71.954346%)" offset="0.65625"/><stop stop-opacity="1" stop-color="rgb(66.970825%, 13.348389%, 72.064209%)" offset="0.664062"/><stop stop-opacity="1" stop-color="rgb(66.604614%, 13.330078%, 72.174072%)" offset="0.671875"/><stop stop-opacity="1" stop-color="rgb(66.236877%, 13.311768%, 72.283936%)" offset="0.679688"/><stop stop-opacity="1" stop-color="rgb(65.869141%, 13.293457%, 72.393799%)" offset="0.6875"/><stop stop-opacity="1" stop-color="rgb(65.501404%, 13.275146%, 72.505188%)" offset="0.695312"/><stop stop-opacity="1" stop-color="rgb(65.133667%, 13.25531%, 72.615051%)" offset="0.703125"/><stop stop-opacity="1" stop-color="rgb(64.76593%, 13.237%, 72.724915%)" offset="0.710938"/><stop stop-opacity="1" stop-color="rgb(64.398193%, 13.218689%, 72.834778%)" offset="0.71875"/><stop stop-opacity="1" stop-color="rgb(64.030457%, 13.200378%, 72.946167%)" offset="0.726562"/><stop stop-opacity="1" stop-color="rgb(63.66272%, 13.182068%, 73.05603%)" offset="0.734375"/><stop stop-opacity="1" stop-color="rgb(63.294983%, 13.163757%, 73.165894%)" offset="0.742188"/><stop stop-opacity="1" stop-color="rgb(62.927246%, 13.145447%, 73.275757%)" offset="0.75"/><stop stop-opacity="1" stop-color="rgb(62.559509%, 13.127136%, 73.387146%)" offset="0.757813"/><stop stop-opacity="1" stop-color="rgb(62.191772%, 13.108826%, 73.497009%)" offset="0.765625"/><stop stop-opacity="1" stop-color="rgb(61.824036%, 13.090515%, 73.606873%)" offset="0.773438"/><stop stop-opacity="1" stop-color="rgb(61.456299%, 13.072205%, 73.716736%)" offset="0.78125"/><stop stop-opacity="1" stop-color="rgb(61.088562%, 13.053894%, 73.828125%)" offset="0.789062"/><stop stop-opacity="1" stop-color="rgb(60.720825%, 13.035583%, 73.937988%)" offset="0.796875"/><stop stop-opacity="1" stop-color="rgb(60.353088%, 13.017273%, 74.047852%)" offset="0.804688"/><stop stop-opacity="1" stop-color="rgb(59.985352%, 12.998962%, 74.157715%)" offset="0.8125"/><stop stop-opacity="1" stop-color="rgb(59.619141%, 12.980652%, 74.269104%)" offset="0.820313"/><stop stop-opacity="1" stop-color="rgb(59.251404%, 12.962341%, 74.378967%)" offset="0.828125"/><stop stop-opacity="1" stop-color="rgb(58.883667%, 12.944031%, 74.488831%)" offset="0.835938"/><stop stop-opacity="1" stop-color="rgb(58.51593%, 12.92572%, 74.598694%)" offset="0.84375"/><stop stop-opacity="1" stop-color="rgb(58.148193%, 12.90741%, 74.710083%)" offset="0.851562"/><stop stop-opacity="1" stop-color="rgb(57.780457%, 12.889099%, 74.819946%)" offset="0.859375"/><stop stop-opacity="1" stop-color="rgb(57.41272%, 12.870789%, 74.92981%)" offset="0.867188"/><stop stop-opacity="1" stop-color="rgb(57.044983%, 12.852478%, 75.039673%)" offset="0.875"/><stop stop-opacity="1" stop-color="rgb(56.677246%, 12.834167%, 75.151062%)" offset="0.882812"/><stop stop-opacity="1" stop-color="rgb(56.309509%, 12.815857%, 75.260925%)" offset="0.890625"/><stop stop-opacity="1" stop-color="rgb(55.941772%, 12.797546%, 75.370789%)" offset="0.898438"/><stop stop-opacity="1" stop-color="rgb(55.574036%, 12.779236%, 75.480652%)" offset="0.90625"/><stop stop-opacity="1" stop-color="rgb(55.206299%, 12.760925%, 75.592041%)" offset="0.914063"/><stop stop-opacity="1" stop-color="rgb(54.838562%, 12.742615%, 75.701904%)" offset="0.921875"/><stop stop-opacity="1" stop-color="rgb(54.470825%, 12.724304%, 75.811768%)" offset="0.929687"/><stop stop-opacity="1" stop-color="rgb(54.103088%, 12.705994%, 75.921631%)" offset="0.9375"/><stop stop-opacity="1" stop-color="rgb(53.735352%, 12.686157%, 76.03302%)" offset="0.945312"/><stop stop-opacity="1" stop-color="rgb(53.367615%, 12.667847%, 76.142883%)" offset="0.953125"/><stop stop-opacity="1" stop-color="rgb(52.999878%, 12.649536%, 76.252747%)" offset="0.960938"/><stop stop-opacity="1" stop-color="rgb(52.633667%, 12.631226%, 76.36261%)" offset="0.96875"/><stop stop-opacity="1" stop-color="rgb(52.26593%, 12.612915%, 76.472473%)" offset="0.976562"/><stop stop-opacity="1" stop-color="rgb(51.898193%, 12.594604%, 76.583862%)" offset="0.984375"/><stop stop-opacity="1" stop-color="rgb(51.530457%, 12.576294%, 76.693726%)" offset="0.992188"/><stop stop-opacity="1" stop-color="rgb(51.16272%, 12.557983%, 76.803589%)" offset="1"/></linearGradient><clipPath id="fd1be7edc2"><rect x="0" width="58" y="0" height="57"/></clipPath><clipPath id="75efa99355"><path d="M 25 31.394531 L 30.070312 31.394531 L 30.070312 36.511719 L 25 36.511719 Z M 25 31.394531 " clip-rule="nonzero"/></clipPath><clipPath id="a4a8d76a66"><path d="M 27.535156 36.46875 C 26.152344 36.46875 25.027344 35.34375 25.027344 33.960938 C 25.027344 32.578125 26.152344 31.453125 27.535156 31.453125 C 28.917969 31.453125 30.042969 32.578125 30.042969 33.960938 C 30.042969 35.34375 28.917969 36.46875 27.535156 36.46875 M 27.535156 33.035156 C 27.027344 33.035156 26.609375 33.453125 26.609375 33.960938 C 26.609375 34.46875 27.027344 34.882812 27.535156 34.882812 C 28.042969 34.882812 28.460938 34.46875 28.460938 33.960938 C 28.460938 33.453125 28.042969 33.035156 27.535156 33.035156 " clip-rule="nonzero"/></clipPath><clipPath id="aef543696d"><path d="M 0 0.394531 L 5.070312 0.394531 L 5.070312 5.511719 L 0 5.511719 Z M 0 0.394531 " clip-rule="nonzero"/></clipPath><clipPath id="2eb8ecbdc6"><path d="M 2.535156 5.46875 C 1.152344 5.46875 0.0273438 4.34375 0.0273438 2.960938 C 0.0273438 1.578125 1.152344 0.453125 2.535156 0.453125 C 3.917969 0.453125 5.042969 1.578125 5.042969 2.960938 C 5.042969 4.34375 3.917969 5.46875 2.535156 5.46875 M 2.535156 2.035156 C 2.027344 2.035156 1.609375 2.453125 1.609375 2.960938 C 1.609375 3.46875 2.027344 3.882812 2.535156 3.882812 C 3.042969 3.882812 3.460938 3.46875 3.460938 2.960938 C 3.460938 2.453125 3.042969 2.035156 2.535156 2.035156 " clip-rule="nonzero"/></clipPath><clipPath id="7521c16e0f"><rect x="0" width="6" y="0" height="6"/></clipPath><clipPath id="1688f2799b"><path d="M 4.410156 16.347656 L 53.472656 16.347656 L 53.472656 40.726562 L 4.410156 40.726562 Z M 4.410156 16.347656 " clip-rule="nonzero"/></clipPath><clipPath id="ad2e47e450"><path d="M 52.324219 35.308594 C 51.992188 35.605469 51.640625 35.894531 51.261719 36.179688 C 50.027344 37.113281 47.984375 37.800781 46.0625 37.9375 C 43.175781 38.136719 40.542969 37.210938 38.644531 35.363281 C 38.996094 34.976562 39.332031 34.582031 39.640625 34.175781 C 41.285156 32.023438 43.148438 29.578125 43.792969 26.097656 C 44.128906 24.28125 43.984375 22.386719 43.386719 20.761719 C 42.722656 18.957031 41.5625 17.609375 40.027344 16.867188 C 38.726562 16.238281 37.320312 16.179688 35.957031 16.695312 C 33.375 17.679688 31.808594 20.507812 31.867188 24.078125 C 31.953125 29.328125 34.558594 32.769531 36.472656 35.285156 C 34.6875 36.914062 32.53125 38.195312 30.589844 38.714844 C 29.054688 39.128906 27.058594 39.1875 25.628906 38.859375 C 22.949219 38.25 20.339844 36.777344 18.238281 34.726562 C 19.433594 33.363281 20.371094 31.734375 20.988281 29.898438 C 21.84375 27.328125 21.695312 24.648438 20.570312 22.539062 C 19.804688 21.101562 18.546875 20.214844 17.113281 20.097656 C 15.738281 19.988281 14.402344 20.597656 13.542969 21.730469 C 12.933594 22.527344 12.527344 23.492188 12.390625 24.4375 C 11.953125 27.515625 13.125 31.058594 15.601562 34.167969 L 16.035156 34.691406 C 14.714844 35.863281 13.132812 36.722656 11.367188 37.199219 C 9.332031 37.746094 7.183594 37.464844 5.15625 36.382812 L 4.410156 37.777344 C 6.800781 39.054688 9.347656 39.378906 11.777344 38.726562 C 13.808594 38.179688 15.617188 37.191406 17.125 35.847656 C 17.964844 36.671875 18.886719 37.417969 19.855469 38.054688 C 21.566406 39.183594 23.390625 39.972656 25.277344 40.402344 C 26.011719 40.570312 26.851562 40.652344 27.71875 40.652344 C 28.835938 40.652344 29.992188 40.515625 31 40.246094 C 33.191406 39.65625 35.554688 38.269531 37.519531 36.476562 C 39.542969 38.460938 42.273438 39.546875 45.28125 39.546875 L 46.167969 39.515625 C 47.925781 39.390625 50.4375 38.78125 52.214844 37.441406 C 52.660156 37.105469 53.078125 36.757812 53.472656 36.402344 Z M 16.839844 33.179688 C 15.773438 31.839844 14.945312 30.363281 14.445312 28.90625 C 13.933594 27.410156 13.769531 25.984375 13.957031 24.660156 C 14.054688 23.976562 14.355469 23.273438 14.800781 22.6875 C 15.292969 22.039062 16.027344 21.667969 16.796875 21.667969 L 16.988281 21.675781 C 17.882812 21.746094 18.660156 22.320312 19.171875 23.285156 C 20.09375 25.011719 20.207031 27.238281 19.484375 29.394531 C 18.957031 30.972656 18.160156 32.378906 17.148438 33.558594 L 16.839844 33.179688 M 37.597656 34.15625 C 35.746094 31.714844 33.523438 28.675781 33.445312 24.050781 C 33.398438 21.167969 34.578125 18.914062 36.519531 18.175781 C 36.953125 18.011719 37.382812 17.929688 37.808594 17.929688 C 38.328125 17.929688 38.839844 18.050781 39.339844 18.292969 C 40.796875 19 41.539062 20.320312 41.902344 21.308594 C 42.402344 22.671875 42.519531 24.269531 42.234375 25.8125 C 41.660156 28.921875 39.992188 31.105469 38.382812 33.21875 C 38.136719 33.535156 37.875 33.851562 37.597656 34.15625 " clip-rule="nonzero"/></clipPath><clipPath id="58495f1e48"><path d="M 0.410156 0.347656 L 49.472656 0.347656 L 49.472656 24.679688 L 0.410156 24.679688 Z M 0.410156 0.347656 " clip-rule="nonzero"/></clipPath><clipPath id="10293d61fd"><path d="M 48.324219 19.308594 C 47.992188 19.605469 47.640625 19.894531 47.261719 20.179688 C 46.027344 21.113281 43.984375 21.800781 42.0625 21.9375 C 39.175781 22.136719 36.542969 21.210938 34.644531 19.363281 C 34.996094 18.976562 35.332031 18.582031 35.640625 18.175781 C 37.285156 16.023438 39.148438 13.578125 39.792969 10.097656 C 40.128906 8.28125 39.984375 6.386719 39.386719 4.761719 C 38.722656 2.957031 37.5625 1.609375 36.027344 0.867188 C 34.726562 0.238281 33.320312 0.179688 31.957031 0.695312 C 29.375 1.679688 27.808594 4.507812 27.867188 8.078125 C 27.953125 13.328125 30.558594 16.769531 32.472656 19.285156 C 30.6875 20.914062 28.53125 22.195312 26.589844 22.714844 C 25.054688 23.128906 23.058594 23.1875 21.628906 22.859375 C 18.949219 22.25 16.339844 20.777344 14.238281 18.726562 C 15.433594 17.363281 16.371094 15.734375 16.988281 13.898438 C 17.84375 11.328125 17.695312 8.648438 16.570312 6.539062 C 15.804688 5.101562 14.546875 4.214844 13.113281 4.097656 C 11.738281 3.988281 10.402344 4.597656 9.542969 5.730469 C 8.933594 6.527344 8.527344 7.492188 8.390625 8.4375 C 7.953125 11.515625 9.125 15.058594 11.601562 18.167969 L 12.035156 18.691406 C 10.714844 19.863281 9.132812 20.722656 7.367188 21.199219 C 5.332031 21.746094 3.183594 21.464844 1.15625 20.382812 L 0.410156 21.777344 C 2.800781 23.054688 5.347656 23.378906 7.777344 22.726562 C 9.808594 22.179688 11.617188 21.191406 13.125 19.847656 C 13.964844 20.671875 14.886719 21.417969 15.855469 22.054688 C 17.566406 23.183594 19.390625 23.972656 21.277344 24.402344 C 22.011719 24.570312 22.851562 24.652344 23.71875 24.652344 C 24.835938 24.652344 25.992188 24.515625 27 24.246094 C 29.191406 23.65625 31.554688 22.269531 33.519531 20.476562 C 35.542969 22.460938 38.273438 23.546875 41.28125 23.546875 L 42.167969 23.515625 C 43.925781 23.390625 46.4375 22.78125 48.214844 21.441406 C 48.660156 21.105469 49.078125 20.757812 49.472656 20.402344 Z M 12.839844 17.179688 C 11.773438 15.839844 10.945312 14.363281 10.445312 12.90625 C 9.933594 11.410156 9.769531 9.984375 9.957031 8.660156 C 10.054688 7.976562 10.355469 7.273438 10.800781 6.6875 C 11.292969 6.039062 12.027344 5.667969 12.796875 5.667969 L 12.988281 5.675781 C 13.882812 5.746094 14.660156 6.320312 15.171875 7.285156 C 16.09375 9.011719 16.207031 11.238281 15.484375 13.394531 C 14.957031 14.972656 14.160156 16.378906 13.148438 17.558594 L 12.839844 17.179688 M 33.597656 18.15625 C 31.746094 15.714844 29.523438 12.675781 29.445312 8.050781 C 29.398438 5.167969 30.578125 2.914062 32.519531 2.175781 C 32.953125 2.011719 33.382812 1.929688 33.808594 1.929688 C 34.328125 1.929688 34.839844 2.050781 35.339844 2.292969 C 36.796875 3 37.539062 4.320312 37.902344 5.308594 C 38.402344 6.671875 38.519531 8.269531 38.234375 9.8125 C 37.660156 12.921875 35.992188 15.105469 34.382812 17.21875 C 34.136719 17.535156 33.875 17.851562 33.597656 18.15625 " clip-rule="nonzero"/></clipPath><clipPath id="5793a03b9a"><rect x="0" width="50" y="0" height="25"/></clipPath><clipPath id="98e62183b8"><rect x="0" width="58" y="0" height="57"/></clipPath><clipPath id="a18564fe69"><path d="M 1.683594 2.683594 L 25.859375 2.683594 L 25.859375 33.996094 L 1.683594 33.996094 Z M 1.683594 2.683594 " clip-rule="nonzero"/></clipPath><clipPath id="d946e78f50"><path d="M 19.496094 2.6875 L 5.867188 16.878906 L 5.785156 16.832031 L 5.785156 2.6875 L 1.683594 2.6875 L 1.683594 33.914062 L 5.78125 33.914062 L 5.78125 17.824219 L 5.867188 17.78125 L 20.445312 33.910156 L 25.792969 33.910156 L 10.570312 17.179688 L 24.585938 2.6875 Z M 19.496094 2.6875 " clip-rule="nonzero"/></clipPath><clipPath id="0f15d6b95e"><path d="M 0.683594 0.683594 L 24.859375 0.683594 L 24.859375 31.996094 L 0.683594 31.996094 Z M 0.683594 0.683594 " clip-rule="nonzero"/></clipPath><clipPath id="c4cfb2661d"><path d="M 18.496094 0.6875 L 4.867188 14.878906 L 4.785156 14.832031 L 4.785156 0.6875 L 0.683594 0.6875 L 0.683594 31.914062 L 4.78125 31.914062 L 4.78125 15.824219 L 4.867188 15.78125 L 19.445312 31.910156 L 24.792969 31.910156 L 9.570312 15.179688 L 23.585938 0.6875 Z M 18.496094 0.6875 " clip-rule="nonzero"/></clipPath><clipPath id="84dfc11df1"><rect x="0" width="25" y="0" height="32"/></clipPath><clipPath id="3957da8906"><path d="M 26.386719 12.195312 L 48.980469 12.195312 L 48.980469 34.390625 L 26.386719 34.390625 Z M 26.386719 12.195312 " clip-rule="nonzero"/></clipPath><clipPath id="76f73466c1"><path d="M 37.65625 12.21875 C 44.082031 12.21875 48.867188 17.050781 48.867188 23.304688 C 48.867188 29.558594 44.082031 34.386719 37.65625 34.386719 C 31.230469 34.386719 26.441406 29.558594 26.441406 23.304688 C 26.441406 17.050781 31.230469 12.21875 37.65625 12.21875 M 37.65625 30.851562 C 41.882812 30.851562 44.988281 27.574219 44.988281 23.304688 C 44.988281 19.035156 41.882812 15.757812 37.65625 15.757812 C 33.429688 15.757812 30.324219 19.035156 30.324219 23.304688 C 30.324219 27.574219 33.429688 30.851562 37.65625 30.851562 " clip-rule="nonzero"/></clipPath><clipPath id="4c4ca0285a"><path d="M 0.386719 0.199219 L 22.921875 0.199219 L 22.921875 22.390625 L 0.386719 22.390625 Z M 0.386719 0.199219 " clip-rule="nonzero"/></clipPath><clipPath id="ca4e470278"><path d="M 11.65625 0.21875 C 18.082031 0.21875 22.867188 5.050781 22.867188 11.304688 C 22.867188 17.558594 18.082031 22.386719 11.65625 22.386719 C 5.230469 22.386719 0.441406 17.558594 0.441406 11.304688 C 0.441406 5.050781 5.230469 0.21875 11.65625 0.21875 M 11.65625 18.851562 C 15.882812 18.851562 18.988281 15.574219 18.988281 11.304688 C 18.988281 7.035156 15.882812 3.757812 11.65625 3.757812 C 7.429688 3.757812 4.324219 7.035156 4.324219 11.304688 C 4.324219 15.574219 7.429688 18.851562 11.65625 18.851562 " clip-rule="nonzero"/></clipPath><clipPath id="38ab1f5036"><rect x="0" width="23" y="0" height="23"/></clipPath><clipPath id="3bd06d0318"><path d="M 50.828125 12.589844 L 84.253906 12.589844 L 84.253906 33.996094 L 50.828125 33.996094 Z M 50.828125 12.589844 " clip-rule="nonzero"/></clipPath><clipPath id="806739aee4"><path d="M 50.898438 12.695312 L 55.125 12.695312 L 58.269531 22.140625 C 59.003906 24.339844 59.691406 26.496094 60.382812 28.695312 L 60.472656 28.695312 C 61.203125 26.539062 62.023438 24.253906 62.800781 22.140625 L 66.292969 12.695312 L 69.054688 12.695312 L 72.546875 22.140625 C 73.367188 24.335938 74.144531 26.535156 74.875 28.691406 L 74.964844 28.691406 L 77.03125 22.179688 L 80.183594 12.695312 L 84.234375 12.695312 L 76.859375 33.914062 L 73.023438 33.914062 L 69.699219 24.8125 C 68.96875 22.871094 68.234375 20.714844 67.632812 18.859375 L 67.542969 18.859375 C 66.941406 20.714844 66.207031 22.871094 65.476562 24.8125 L 62.15625 33.914062 L 58.269531 33.914062 Z M 50.898438 12.695312 " clip-rule="nonzero"/></clipPath><clipPath id="bc9fc3beaa"><path d="M 0.839844 0.679688 L 34.253906 0.679688 L 34.253906 21.996094 L 0.839844 21.996094 Z M 0.839844 0.679688 " clip-rule="nonzero"/></clipPath><clipPath id="47d52dd36c"><path d="M 0.898438 0.695312 L 5.125 0.695312 L 8.269531 10.140625 C 9.003906 12.339844 9.691406 14.496094 10.382812 16.695312 L 10.472656 16.695312 C 11.203125 14.539062 12.023438 12.253906 12.800781 10.140625 L 16.292969 0.695312 L 19.054688 0.695312 L 22.546875 10.140625 C 23.367188 12.335938 24.144531 14.535156 24.875 16.691406 L 24.964844 16.691406 L 27.03125 10.179688 L 30.183594 0.695312 L 34.234375 0.695312 L 26.859375 21.914062 L 23.023438 21.914062 L 19.699219 12.8125 C 18.96875 10.871094 18.234375 8.714844 17.632812 6.859375 L 17.542969 6.859375 C 16.941406 8.714844 16.207031 10.871094 15.476562 12.8125 L 12.15625 21.914062 L 8.269531 21.914062 Z M 0.898438 0.695312 " clip-rule="nonzero"/></clipPath><clipPath id="ed2d36086b"><rect x="0" width="35" y="0" height="22"/></clipPath><clipPath id="8829b10d46"><path d="M 86.234375 12.195312 L 106.449219 12.195312 L 106.449219 34.390625 L 86.234375 34.390625 Z M 86.234375 12.195312 " clip-rule="nonzero"/></clipPath><clipPath id="78ed0454ee"><path d="M 88.589844 32.878906 C 87.210938 31.839844 86.347656 30.25 86.347656 28.175781 C 86.347656 25.804688 87.46875 24.082031 89.152344 23 C 90.746094 21.96875 92.902344 21.578125 95.105469 21.578125 C 96.746094 21.578125 98.25 21.792969 99.632812 22.136719 L 99.632812 20.371094 C 99.632812 18.816406 99.242188 17.652344 98.425781 16.878906 C 97.605469 16.144531 96.3125 15.710938 94.5 15.710938 C 91.828125 15.710938 89.582031 16.660156 87.988281 17.824219 L 87.988281 14.03125 C 89.628906 13.039062 91.910156 12.21875 95.0625 12.21875 C 97.648438 12.21875 99.894531 12.78125 101.402344 14.160156 C 102.652344 15.28125 103.515625 17.09375 103.515625 19.726562 L 103.515625 28.738281 C 103.515625 30.03125 103.988281 30.980469 105.152344 30.980469 C 105.585938 30.980469 106.0625 30.851562 106.40625 30.683594 L 106.40625 33.917969 C 105.886719 34.132812 105.152344 34.304688 104.335938 34.304688 C 102.652344 34.304688 101.058594 33.570312 100.238281 32.0625 L 100.152344 32.0625 C 98.941406 33.183594 96.484375 34.390625 93.636719 34.390625 C 91.910156 34.390625 90.015625 33.960938 88.589844 32.878906 M 99.632812 29.085938 L 99.632812 25.113281 C 98.46875 24.769531 96.828125 24.554688 95.492188 24.554688 C 92.863281 24.554688 90.273438 25.332031 90.273438 27.832031 C 90.273438 29.902344 92.042969 30.9375 94.328125 30.9375 C 96.359375 30.9375 98.339844 30.121094 99.632812 29.082031 " clip-rule="nonzero"/></clipPath><clipPath id="8986cbb699"><path d="M 0.234375 0.199219 L 20.449219 0.199219 L 20.449219 22.390625 L 0.234375 22.390625 Z M 0.234375 0.199219 " clip-rule="nonzero"/></clipPath><clipPath id="2b2375ad05"><path d="M 2.589844 20.878906 C 1.210938 19.839844 0.347656 18.25 0.347656 16.175781 C 0.347656 13.804688 1.46875 12.082031 3.152344 11 C 4.746094 9.96875 6.902344 9.578125 9.105469 9.578125 C 10.746094 9.578125 12.25 9.792969 13.632812 10.136719 L 13.632812 8.371094 C 13.632812 6.816406 13.242188 5.652344 12.425781 4.878906 C 11.605469 4.144531 10.3125 3.710938 8.5 3.710938 C 5.828125 3.710938 3.582031 4.660156 1.988281 5.824219 L 1.988281 2.03125 C 3.628906 1.039062 5.910156 0.21875 9.0625 0.21875 C 11.648438 0.21875 13.894531 0.78125 15.402344 2.160156 C 16.652344 3.28125 17.515625 5.09375 17.515625 7.726562 L 17.515625 16.738281 C 17.515625 18.03125 17.988281 18.980469 19.152344 18.980469 C 19.585938 18.980469 20.0625 18.851562 20.40625 18.683594 L 20.40625 21.917969 C 19.886719 22.132812 19.152344 22.304688 18.335938 22.304688 C 16.652344 22.304688 15.058594 21.570312 14.238281 20.0625 L 14.152344 20.0625 C 12.941406 21.183594 10.484375 22.390625 7.636719 22.390625 C 5.910156 22.390625 4.015625 21.960938 2.589844 20.878906 M 13.632812 17.085938 L 13.632812 13.113281 C 12.46875 12.769531 10.828125 12.554688 9.492188 12.554688 C 6.863281 12.554688 4.273438 13.332031 4.273438 15.832031 C 4.273438 17.902344 6.042969 18.9375 8.328125 18.9375 C 10.359375 18.9375 12.339844 18.121094 13.632812 17.082031 " clip-rule="nonzero"/></clipPath><clipPath id="55dda92205"><rect x="0" width="21" y="0" height="23"/></clipPath><clipPath id="da56eeb596"><path d="M 110.71875 0.960938 L 114.597656 0.960938 L 114.597656 33.914062 L 110.71875 33.914062 Z M 110.71875 0.960938 " clip-rule="nonzero"/></clipPath><clipPath id="d606f3c730"><path d="M 0.71875 0.960938 L 4.597656 0.960938 L 4.597656 33.914062 L 0.71875 33.914062 Z M 0.71875 0.960938 " clip-rule="nonzero"/></clipPath><clipPath id="cfdade196f"><rect x="0" width="5" y="0" height="34"/></clipPath><clipPath id="39e3b5ca4f"><path d="M 119.988281 12.21875 L 140.125 12.21875 L 140.125 34.46875 L 119.988281 34.46875 Z M 119.988281 12.21875 " clip-rule="nonzero"/></clipPath><clipPath id="9784e29e83"><path d="M 122.234375 32.878906 C 120.851562 31.84375 119.988281 30.25 119.988281 28.175781 C 119.988281 25.804688 121.113281 24.078125 122.792969 23 C 124.390625 21.96875 126.542969 21.578125 128.746094 21.578125 C 130.382812 21.578125 131.894531 21.792969 133.273438 22.136719 L 133.273438 20.371094 C 133.273438 18.816406 132.886719 17.652344 132.066406 16.878906 C 131.25 16.144531 129.953125 15.710938 128.144531 15.710938 C 125.46875 15.710938 123.226562 16.660156 121.628906 17.824219 L 121.628906 14.03125 C 123.269531 13.039062 125.554688 12.21875 128.703125 12.21875 C 131.289062 12.21875 133.535156 12.777344 135.042969 14.160156 C 136.292969 15.28125 137.15625 17.089844 137.15625 19.726562 L 137.15625 28.738281 C 137.15625 30.03125 137.628906 30.980469 138.796875 30.980469 C 139.226562 30.980469 139.703125 30.851562 140.046875 30.679688 L 140.046875 33.917969 C 139.53125 34.128906 138.796875 34.304688 137.976562 34.304688 C 136.296875 34.304688 134.699219 33.570312 133.878906 32.0625 L 133.792969 32.0625 C 132.585938 33.183594 130.128906 34.390625 127.28125 34.390625 C 125.554688 34.390625 123.660156 33.957031 122.234375 32.878906 M 133.273438 29.085938 L 133.273438 25.113281 C 132.113281 24.769531 130.472656 24.554688 129.136719 24.554688 C 126.507812 24.554688 123.917969 25.332031 123.917969 27.832031 C 123.917969 29.902344 125.683594 30.941406 127.972656 30.941406 C 130 30.941406 131.984375 30.121094 133.277344 29.085938 " clip-rule="nonzero"/></clipPath><clipPath id="c77820a36b"><path d="M 0.988281 0.21875 L 21.121094 0.21875 L 21.121094 22.46875 L 0.988281 22.46875 Z M 0.988281 0.21875 " clip-rule="nonzero"/></clipPath><clipPath id="f508c2c280"><path d="M 3.234375 20.878906 C 1.851562 19.84375 0.988281 18.25 0.988281 16.175781 C 0.988281 13.804688 2.113281 12.078125 3.792969 11 C 5.390625 9.96875 7.542969 9.578125 9.746094 9.578125 C 11.382812 9.578125 12.894531 9.792969 14.273438 10.136719 L 14.273438 8.371094 C 14.273438 6.816406 13.886719 5.652344 13.066406 4.878906 C 12.25 4.144531 10.953125 3.710938 9.144531 3.710938 C 6.46875 3.710938 4.226562 4.660156 2.628906 5.824219 L 2.628906 2.03125 C 4.269531 1.039062 6.554688 0.21875 9.703125 0.21875 C 12.289062 0.21875 14.535156 0.777344 16.042969 2.160156 C 17.292969 3.28125 18.15625 5.089844 18.15625 7.726562 L 18.15625 16.738281 C 18.15625 18.03125 18.628906 18.980469 19.796875 18.980469 C 20.226562 18.980469 20.703125 18.851562 21.046875 18.679688 L 21.046875 21.917969 C 20.53125 22.128906 19.796875 22.304688 18.976562 22.304688 C 17.296875 22.304688 15.699219 21.570312 14.878906 20.0625 L 14.792969 20.0625 C 13.585938 21.183594 11.128906 22.390625 8.28125 22.390625 C 6.554688 22.390625 4.660156 21.957031 3.234375 20.878906 M 14.273438 17.085938 L 14.273438 13.113281 C 13.113281 12.769531 11.472656 12.554688 10.136719 12.554688 C 7.507812 12.554688 4.917969 13.332031 4.917969 15.832031 C 4.917969 17.902344 6.683594 18.941406 8.972656 18.941406 C 11 18.941406 12.984375 18.121094 14.277344 17.085938 " clip-rule="nonzero"/></clipPath><clipPath id="489a0d77ff"><rect x="0" width="22" y="0" height="23"/></clipPath><clipPath id="864a3d2670"><path d="M 144.359375 0.960938 L 163.164062 0.960938 L 163.164062 33.941406 L 144.359375 33.941406 Z M 144.359375 0.960938 " clip-rule="nonzero"/></clipPath><clipPath id="0dd50dd14a"><path d="M 144.359375 0.960938 L 148.238281 0.960938 L 148.238281 15.367188 L 148.324219 15.410156 C 150.179688 13.554688 152.769531 12.21875 155.742188 12.21875 C 158.070312 12.21875 160.054688 13.039062 161.394531 14.546875 C 162.554688 15.886719 163.160156 17.523438 163.160156 20.800781 L 163.160156 33.914062 L 159.28125 33.914062 L 159.28125 21.535156 C 159.28125 19.160156 158.980469 18.039062 158.246094 17.222656 C 157.425781 16.273438 156.347656 15.839844 155.007812 15.839844 C 152.464844 15.839844 149.832031 17.394531 148.238281 19.378906 L 148.238281 33.914062 L 144.359375 33.914062 Z M 144.359375 0.960938 " clip-rule="nonzero"/></clipPath><clipPath id="7289f779b1"><path d="M 0.359375 0.960938 L 19.164062 0.960938 L 19.164062 33.941406 L 0.359375 33.941406 Z M 0.359375 0.960938 " clip-rule="nonzero"/></clipPath><clipPath id="6fd8d6c832"><path d="M 0.359375 0.960938 L 4.238281 0.960938 L 4.238281 15.367188 L 4.324219 15.410156 C 6.179688 13.554688 8.769531 12.21875 11.742188 12.21875 C 14.070312 12.21875 16.054688 13.039062 17.394531 14.546875 C 18.554688 15.886719 19.160156 17.523438 19.160156 20.800781 L 19.160156 33.914062 L 15.28125 33.914062 L 15.28125 21.535156 C 15.28125 19.160156 14.980469 18.039062 14.246094 17.222656 C 13.425781 16.273438 12.347656 15.839844 11.007812 15.839844 C 8.464844 15.839844 5.832031 17.394531 4.238281 19.378906 L 4.238281 33.914062 L 0.359375 33.914062 Z M 0.359375 0.960938 " clip-rule="nonzero"/></clipPath><clipPath id="60afb42311"><rect x="0" width="20" y="0" height="34"/></clipPath><clipPath id="6ffd2bca52"><rect x="0" width="164" y="0" height="36"/></clipPath></defs><g transform="matrix(1, 0, 0, 1, 3, 9)"><g clip-path="url(#98e62183b8)"><g clip-path="url(#54ec657c3b)"><g clip-path="url(#a74f5adf6c)"><g transform="matrix(1, 0, 0, 1, 0, -0.000000000000001776)"><g clip-path="url(#fd1be7edc2)"><g clip-path="url(#df0d5d3c46)"><g clip-path="url(#49d9bba0df)"><path fill="url(#cf8cef3c65)" d="M 0.835938 0.394531 L 0.835938 56.605469 L 57.046875 56.605469 L 57.046875 0.394531 Z M 0.835938 0.394531 " fill-rule="nonzero"/></g></g></g></g></g></g><g clip-path="url(#75efa99355)"><g clip-path="url(#a4a8d76a66)"><g transform="matrix(1, 0, 0, 1, 25, 31)"><g clip-path="url(#7521c16e0f)"><g clip-path="url(#aef543696d)"><g clip-path="url(#2eb8ecbdc6)"><rect x="-115.36" width="414.72" fill="#ffffff" y="-67.299999" height="129.599995" fill-opacity="1"/></g></g></g></g></g></g><g clip-path="url(#1688f2799b)"><g clip-path="url(#ad2e47e450)"><g transform="matrix(1, 0, 0, 1, 4, 16)"><g clip-path="url(#5793a03b9a)"><g clip-path="url(#58495f1e48)"><g clip-path="url(#10293d61fd)"><path fill="#ffffff" d="M 0.0351562 -0.03125 L 49.847656 -0.03125 L 49.847656 25.027344 L 0.0351562 25.027344 Z M 0.0351562 -0.03125 " fill-opacity="1" fill-rule="nonzero"/></g></g></g></g></g></g></g></g><g transform="matrix(1, 0, 0, 1, 73, 19)"><g clip-path="url(#6ffd2bca52)"><g clip-path="url(#a18564fe69)"><g clip-path="url(#d946e78f50)"><g transform="matrix(1, 0, 0, 1, 1, 2)"><g clip-path="url(#84dfc11df1)"><g clip-path="url(#0f15d6b95e)"><g clip-path="url(#c4cfb2661d)"><rect x="-161.36" width="414.72" fill="#000000" y="-48.299999" height="129.599995" fill-opacity="1"/></g></g></g></g></g></g><g clip-path="url(#3957da8906)"><g clip-path="url(#76f73466c1)"><g transform="matrix(1, 0, 0, 1, 26, 12)"><g clip-path="url(#38ab1f5036)"><g clip-path="url(#4c4ca0285a)"><g clip-path="url(#ca4e470278)"><rect x="-186.36" width="414.72" fill="#000000" y="-58.299999" height="129.599995" fill-opacity="1"/></g></g></g></g></g></g><g clip-path="url(#3bd06d0318)"><g clip-path="url(#806739aee4)"><g transform="matrix(1, 0, 0, 1, 50, 12)"><g clip-path="url(#ed2d36086b)"><g clip-path="url(#bc9fc3beaa)"><g clip-path="url(#47d52dd36c)"><rect x="-210.36" width="414.72" fill="#000000" y="-58.299999" height="129.599995" fill-opacity="1"/></g></g></g></g></g></g><g clip-path="url(#8829b10d46)"><g clip-path="url(#78ed0454ee)"><g transform="matrix(1, 0, 0, 1, 86, 12)"><g clip-path="url(#55dda92205)"><g clip-path="url(#8986cbb699)"><g clip-path="url(#2b2375ad05)"><rect x="-246.36" width="414.72" fill="#000000" y="-58.299999" height="129.599995" fill-opacity="1"/></g></g></g></g></g></g><g clip-path="url(#da56eeb596)"><g transform="matrix(1, 0, 0, 1, 110, -0.000000000000003553)"><g clip-path="url(#cfdade196f)"><g clip-path="url(#d606f3c730)"><path fill="#000000" d="M 0.71875 0.960938 L 4.597656 0.960938 L 4.597656 33.917969 L 0.71875 33.917969 Z M 0.71875 0.960938 " fill-opacity="1" fill-rule="nonzero"/></g></g></g></g><g clip-path="url(#39e3b5ca4f)"><g clip-path="url(#9784e29e83)"><g transform="matrix(1, 0, 0, 1, 119, 12)"><g clip-path="url(#489a0d77ff)"><g clip-path="url(#c77820a36b)"><g clip-path="url(#f508c2c280)"><path fill="#000000" d="M 0.988281 0.21875 L 21.042969 0.21875 L 21.042969 22.386719 L 0.988281 22.386719 Z M 0.988281 0.21875 " fill-opacity="1" fill-rule="nonzero"/></g></g></g></g></g></g><g clip-path="url(#864a3d2670)"><g clip-path="url(#0dd50dd14a)"><g transform="matrix(1, 0, 0, 1, 144, -0.000000000000003553)"><g clip-path="url(#60afb42311)"><g clip-path="url(#7289f779b1)"><g clip-path="url(#6fd8d6c832)"><path fill="#000000" d="M 0.359375 0.960938 L 19.164062 0.960938 L 19.164062 33.941406 L 0.359375 33.941406 Z M 0.359375 0.960938 " fill-opacity="1" fill-rule="nonzero"/></g></g></g></g></g></g></g></g></svg>