<svg xmlns="http://www.w3.org/2000/svg" xmlns:xlink="http://www.w3.org/1999/xlink" width="320" zoomAndPan="magnify" viewBox="0 0 240 74.999997" height="100" preserveAspectRatio="xMidYMid meet" version="1.0"><defs><clipPath id="2f6d65a753"><path d="M 0.28125 0.503906 L 56.277344 0.503906 L 56.277344 56.496094 L 0.28125 56.496094 Z M 0.28125 0.503906 " clip-rule="nonzero"/></clipPath><clipPath id="7389d5ee96"><path d="M 28.28125 0.503906 C 12.816406 0.503906 0.28125 13.039062 0.28125 28.5 C 0.28125 43.960938 12.816406 56.496094 28.28125 56.496094 C 43.742188 56.496094 56.277344 43.960938 56.277344 28.5 C 56.277344 13.039062 43.742188 0.503906 28.28125 0.503906 Z M 28.28125 0.503906 " clip-rule="nonzero"/></clipPath><clipPath id="2058e15205"><path d="M 0.28125 0.503906 L 56.277344 0.503906 L 56.277344 56.496094 L 0.28125 56.496094 Z M 0.28125 0.503906 " clip-rule="nonzero"/></clipPath><clipPath id="8ae35e929e"><path d="M 28.28125 0.503906 C 12.816406 0.503906 0.28125 13.039062 0.28125 28.5 C 0.28125 43.960938 12.816406 56.496094 28.28125 56.496094 C 43.742188 56.496094 56.277344 43.960938 56.277344 28.5 C 56.277344 13.039062 43.742188 0.503906 28.28125 0.503906 Z M 28.28125 0.503906 " clip-rule="nonzero"/></clipPath><linearGradient x1="0.000000000000001776" gradientTransform="matrix(0.218721, 0, 0, 0.218721, 0.283084, 0.503754)" y1="0.000000000000001776" x2="255.999996" gradientUnits="userSpaceOnUse" y2="255.999996" id="1bb59b493b"><stop stop-opacity="1" stop-color="rgb(98.039246%, 14.898682%, 62.748718%)" offset="0"/><stop stop-opacity="1" stop-color="rgb(97.854614%, 14.889526%, 62.80365%)" offset="0.0078125"/><stop stop-opacity="1" stop-color="rgb(97.486877%, 14.871216%, 62.915039%)" offset="0.015625"/><stop stop-opacity="1" stop-color="rgb(97.119141%, 14.852905%, 63.024902%)" offset="0.0234375"/><stop stop-opacity="1" stop-color="rgb(96.751404%, 14.834595%, 63.134766%)" offset="0.03125"/><stop stop-opacity="1" stop-color="rgb(96.383667%, 14.816284%, 63.244629%)" offset="0.0390625"/><stop stop-opacity="1" stop-color="rgb(96.01593%, 14.797974%, 63.356018%)" offset="0.046875"/><stop stop-opacity="1" stop-color="rgb(95.648193%, 14.779663%, 63.465881%)" offset="0.0546875"/><stop stop-opacity="1" stop-color="rgb(95.280457%, 14.761353%, 63.575745%)" offset="0.0625"/><stop stop-opacity="1" stop-color="rgb(94.91272%, 14.743042%, 63.685608%)" offset="0.0703125"/><stop stop-opacity="1" stop-color="rgb(94.546509%, 14.724731%, 63.796997%)" offset="0.078125"/><stop stop-opacity="1" stop-color="rgb(94.178772%, 14.706421%, 63.90686%)" offset="0.0859375"/><stop stop-opacity="1" stop-color="rgb(93.811035%, 14.68811%, 64.016724%)" offset="0.09375"/><stop stop-opacity="1" stop-color="rgb(93.443298%, 14.6698%, 64.126587%)" offset="0.101562"/><stop stop-opacity="1" stop-color="rgb(93.075562%, 14.651489%, 64.237976%)" offset="0.109375"/><stop stop-opacity="1" stop-color="rgb(92.707825%, 14.633179%, 64.347839%)" offset="0.117187"/><stop stop-opacity="1" stop-color="rgb(92.340088%, 14.614868%, 64.457703%)" offset="0.125"/><stop stop-opacity="1" stop-color="rgb(91.972351%, 14.596558%, 64.567566%)" offset="0.132813"/><stop stop-opacity="1" stop-color="rgb(91.604614%, 14.578247%, 64.677429%)" offset="0.140625"/><stop stop-opacity="1" stop-color="rgb(91.236877%, 14.559937%, 64.788818%)" offset="0.148438"/><stop stop-opacity="1" stop-color="rgb(90.869141%, 14.541626%, 64.898682%)" offset="0.15625"/><stop stop-opacity="1" stop-color="rgb(90.501404%, 14.523315%, 65.008545%)" offset="0.164062"/><stop stop-opacity="1" stop-color="rgb(90.133667%, 14.505005%, 65.118408%)" offset="0.171875"/><stop stop-opacity="1" stop-color="rgb(89.76593%, 14.486694%, 65.229797%)" offset="0.179688"/><stop stop-opacity="1" stop-color="rgb(89.398193%, 14.468384%, 65.339661%)" offset="0.1875"/><stop stop-opacity="1" stop-color="rgb(89.030457%, 14.450073%, 65.449524%)" offset="0.195312"/><stop stop-opacity="1" stop-color="rgb(88.66272%, 14.431763%, 65.559387%)" offset="0.203125"/><stop stop-opacity="1" stop-color="rgb(88.294983%, 14.413452%, 65.670776%)" offset="0.210938"/><stop stop-opacity="1" stop-color="rgb(87.927246%, 14.393616%, 65.78064%)" offset="0.21875"/><stop stop-opacity="1" stop-color="rgb(87.561035%, 14.375305%, 65.890503%)" offset="0.226562"/><stop stop-opacity="1" stop-color="rgb(87.193298%, 14.356995%, 66.000366%)" offset="0.234375"/><stop stop-opacity="1" stop-color="rgb(86.825562%, 14.338684%, 66.111755%)" offset="0.242187"/><stop stop-opacity="1" stop-color="rgb(86.457825%, 14.320374%, 66.221619%)" offset="0.25"/><stop stop-opacity="1" stop-color="rgb(86.090088%, 14.302063%, 66.331482%)" offset="0.257812"/><stop stop-opacity="1" stop-color="rgb(85.722351%, 14.283752%, 66.441345%)" offset="0.265625"/><stop stop-opacity="1" stop-color="rgb(85.354614%, 14.265442%, 66.552734%)" offset="0.273438"/><stop stop-opacity="1" stop-color="rgb(84.986877%, 14.247131%, 66.662598%)" offset="0.28125"/><stop stop-opacity="1" stop-color="rgb(84.619141%, 14.228821%, 66.772461%)" offset="0.289062"/><stop stop-opacity="1" stop-color="rgb(84.251404%, 14.21051%, 66.882324%)" offset="0.296875"/><stop stop-opacity="1" stop-color="rgb(83.883667%, 14.1922%, 66.993713%)" offset="0.304688"/><stop stop-opacity="1" stop-color="rgb(83.51593%, 14.173889%, 67.103577%)" offset="0.3125"/><stop stop-opacity="1" stop-color="rgb(83.148193%, 14.155579%, 67.21344%)" offset="0.320313"/><stop stop-opacity="1" stop-color="rgb(82.780457%, 14.137268%, 67.323303%)" offset="0.328125"/><stop stop-opacity="1" stop-color="rgb(82.41272%, 14.118958%, 67.434692%)" offset="0.335937"/><stop stop-opacity="1" stop-color="rgb(82.044983%, 14.100647%, 67.544556%)" offset="0.34375"/><stop stop-opacity="1" stop-color="rgb(81.677246%, 14.082336%, 67.654419%)" offset="0.351562"/><stop stop-opacity="1" stop-color="rgb(81.309509%, 14.064026%, 67.764282%)" offset="0.359375"/><stop stop-opacity="1" stop-color="rgb(80.941772%, 14.045715%, 67.875671%)" offset="0.367188"/><stop stop-opacity="1" stop-color="rgb(80.575562%, 14.027405%, 67.985535%)" offset="0.375"/><stop stop-opacity="1" stop-color="rgb(80.207825%, 14.009094%, 68.095398%)" offset="0.382812"/><stop stop-opacity="1" stop-color="rgb(79.840088%, 13.990784%, 68.205261%)" offset="0.390625"/><stop stop-opacity="1" stop-color="rgb(79.472351%, 13.972473%, 68.315125%)" offset="0.398438"/><stop stop-opacity="1" stop-color="rgb(79.104614%, 13.954163%, 68.426514%)" offset="0.40625"/><stop stop-opacity="1" stop-color="rgb(78.736877%, 13.935852%, 68.536377%)" offset="0.414063"/><stop stop-opacity="1" stop-color="rgb(78.369141%, 13.917542%, 68.64624%)" offset="0.421875"/><stop stop-opacity="1" stop-color="rgb(78.001404%, 13.899231%, 68.756104%)" offset="0.429687"/><stop stop-opacity="1" stop-color="rgb(77.633667%, 13.88092%, 68.867493%)" offset="0.4375"/><stop stop-opacity="1" stop-color="rgb(77.26593%, 13.86261%, 68.977356%)" offset="0.445312"/><stop stop-opacity="1" stop-color="rgb(76.898193%, 13.844299%, 69.087219%)" offset="0.453125"/><stop stop-opacity="1" stop-color="rgb(76.530457%, 13.824463%, 69.197083%)" offset="0.460938"/><stop stop-opacity="1" stop-color="rgb(76.16272%, 13.806152%, 69.308472%)" offset="0.46875"/><stop stop-opacity="1" stop-color="rgb(75.794983%, 13.787842%, 69.418335%)" offset="0.476562"/><stop stop-opacity="1" stop-color="rgb(75.427246%, 13.769531%, 69.528198%)" offset="0.484375"/><stop stop-opacity="1" stop-color="rgb(75.059509%, 13.751221%, 69.638062%)" offset="0.492188"/><stop stop-opacity="1" stop-color="rgb(74.691772%, 13.73291%, 69.749451%)" offset="0.5"/><stop stop-opacity="1" stop-color="rgb(74.508667%, 13.723755%, 69.804382%)" offset="0.5"/><stop stop-opacity="1" stop-color="rgb(74.324036%, 13.7146%, 69.859314%)" offset="0.5"/><stop stop-opacity="1" stop-color="rgb(74.14093%, 13.705444%, 69.914246%)" offset="0.507812"/><stop stop-opacity="1" stop-color="rgb(73.956299%, 13.696289%, 69.969177%)" offset="0.515625"/><stop stop-opacity="1" stop-color="rgb(73.590088%, 13.677979%, 70.079041%)" offset="0.523438"/><stop stop-opacity="1" stop-color="rgb(73.222351%, 13.659668%, 70.19043%)" offset="0.53125"/><stop stop-opacity="1" stop-color="rgb(72.854614%, 13.641357%, 70.300293%)" offset="0.539063"/><stop stop-opacity="1" stop-color="rgb(72.486877%, 13.623047%, 70.410156%)" offset="0.546875"/><stop stop-opacity="1" stop-color="rgb(72.119141%, 13.604736%, 70.52002%)" offset="0.554688"/><stop stop-opacity="1" stop-color="rgb(71.751404%, 13.586426%, 70.631409%)" offset="0.5625"/><stop stop-opacity="1" stop-color="rgb(71.383667%, 13.568115%, 70.741272%)" offset="0.570312"/><stop stop-opacity="1" stop-color="rgb(71.01593%, 13.549805%, 70.851135%)" offset="0.578125"/><stop stop-opacity="1" stop-color="rgb(70.648193%, 13.531494%, 70.960999%)" offset="0.585938"/><stop stop-opacity="1" stop-color="rgb(70.280457%, 13.513184%, 71.072388%)" offset="0.59375"/><stop stop-opacity="1" stop-color="rgb(69.91272%, 13.494873%, 71.182251%)" offset="0.601562"/><stop stop-opacity="1" stop-color="rgb(69.544983%, 13.476562%, 71.292114%)" offset="0.609375"/><stop stop-opacity="1" stop-color="rgb(69.177246%, 13.458252%, 71.401978%)" offset="0.617188"/><stop stop-opacity="1" stop-color="rgb(68.809509%, 13.439941%, 71.513367%)" offset="0.625"/><stop stop-opacity="1" stop-color="rgb(68.441772%, 13.421631%, 71.62323%)" offset="0.632813"/><stop stop-opacity="1" stop-color="rgb(68.074036%, 13.40332%, 71.733093%)" offset="0.640625"/><stop stop-opacity="1" stop-color="rgb(67.706299%, 13.38501%, 71.842957%)" offset="0.648438"/><stop stop-opacity="1" stop-color="rgb(67.338562%, 13.366699%, 71.954346%)" offset="0.65625"/><stop stop-opacity="1" stop-color="rgb(66.970825%, 13.348389%, 72.064209%)" offset="0.664062"/><stop stop-opacity="1" stop-color="rgb(66.604614%, 13.330078%, 72.174072%)" offset="0.671875"/><stop stop-opacity="1" stop-color="rgb(66.236877%, 13.311768%, 72.283936%)" offset="0.679688"/><stop stop-opacity="1" stop-color="rgb(65.869141%, 13.293457%, 72.393799%)" offset="0.6875"/><stop stop-opacity="1" stop-color="rgb(65.501404%, 13.275146%, 72.505188%)" offset="0.695312"/><stop stop-opacity="1" stop-color="rgb(65.133667%, 13.25531%, 72.615051%)" offset="0.703125"/><stop stop-opacity="1" stop-color="rgb(64.76593%, 13.237%, 72.724915%)" offset="0.710938"/><stop stop-opacity="1" stop-color="rgb(64.398193%, 13.218689%, 72.834778%)" offset="0.71875"/><stop stop-opacity="1" stop-color="rgb(64.030457%, 13.200378%, 72.946167%)" offset="0.726563"/><stop stop-opacity="1" stop-color="rgb(63.66272%, 13.182068%, 73.05603%)" offset="0.734375"/><stop stop-opacity="1" stop-color="rgb(63.294983%, 13.163757%, 73.165894%)" offset="0.742188"/><stop stop-opacity="1" stop-color="rgb(62.927246%, 13.145447%, 73.275757%)" offset="0.75"/><stop stop-opacity="1" stop-color="rgb(62.559509%, 13.127136%, 73.387146%)" offset="0.757812"/><stop stop-opacity="1" stop-color="rgb(62.191772%, 13.108826%, 73.497009%)" offset="0.765625"/><stop stop-opacity="1" stop-color="rgb(61.824036%, 13.090515%, 73.606873%)" offset="0.773437"/><stop stop-opacity="1" stop-color="rgb(61.456299%, 13.072205%, 73.716736%)" offset="0.78125"/><stop stop-opacity="1" stop-color="rgb(61.088562%, 13.053894%, 73.828125%)" offset="0.789062"/><stop stop-opacity="1" stop-color="rgb(60.720825%, 13.035583%, 73.937988%)" offset="0.796875"/><stop stop-opacity="1" stop-color="rgb(60.353088%, 13.017273%, 74.047852%)" offset="0.804688"/><stop stop-opacity="1" stop-color="rgb(59.985352%, 12.998962%, 74.157715%)" offset="0.8125"/><stop stop-opacity="1" stop-color="rgb(59.619141%, 12.980652%, 74.269104%)" offset="0.820312"/><stop stop-opacity="1" stop-color="rgb(59.251404%, 12.962341%, 74.378967%)" offset="0.828125"/><stop stop-opacity="1" stop-color="rgb(58.883667%, 12.944031%, 74.488831%)" offset="0.835938"/><stop stop-opacity="1" stop-color="rgb(58.51593%, 12.92572%, 74.598694%)" offset="0.84375"/><stop stop-opacity="1" stop-color="rgb(58.148193%, 12.90741%, 74.710083%)" offset="0.851562"/><stop stop-opacity="1" stop-color="rgb(57.780457%, 12.889099%, 74.819946%)" offset="0.859375"/><stop stop-opacity="1" stop-color="rgb(57.41272%, 12.870789%, 74.92981%)" offset="0.867187"/><stop stop-opacity="1" stop-color="rgb(57.044983%, 12.852478%, 75.039673%)" offset="0.875"/><stop stop-opacity="1" stop-color="rgb(56.677246%, 12.834167%, 75.151062%)" offset="0.882812"/><stop stop-opacity="1" stop-color="rgb(56.309509%, 12.815857%, 75.260925%)" offset="0.890625"/><stop stop-opacity="1" stop-color="rgb(55.941772%, 12.797546%, 75.370789%)" offset="0.898438"/><stop stop-opacity="1" stop-color="rgb(55.574036%, 12.779236%, 75.480652%)" offset="0.90625"/><stop stop-opacity="1" stop-color="rgb(55.206299%, 12.760925%, 75.592041%)" offset="0.914062"/><stop stop-opacity="1" stop-color="rgb(54.838562%, 12.742615%, 75.701904%)" offset="0.921875"/><stop stop-opacity="1" stop-color="rgb(54.470825%, 12.724304%, 75.811768%)" offset="0.929688"/><stop stop-opacity="1" stop-color="rgb(54.103088%, 12.705994%, 75.921631%)" offset="0.9375"/><stop stop-opacity="1" stop-color="rgb(53.735352%, 12.686157%, 76.03302%)" offset="0.945312"/><stop stop-opacity="1" stop-color="rgb(53.367615%, 12.667847%, 76.142883%)" offset="0.953125"/><stop stop-opacity="1" stop-color="rgb(52.999878%, 12.649536%, 76.252747%)" offset="0.960937"/><stop stop-opacity="1" stop-color="rgb(52.633667%, 12.631226%, 76.36261%)" offset="0.96875"/><stop stop-opacity="1" stop-color="rgb(52.26593%, 12.612915%, 76.472473%)" offset="0.976562"/><stop stop-opacity="1" stop-color="rgb(51.898193%, 12.594604%, 76.583862%)" offset="0.984375"/><stop stop-opacity="1" stop-color="rgb(51.530457%, 12.576294%, 76.693726%)" offset="0.992188"/><stop stop-opacity="1" stop-color="rgb(51.16272%, 12.557983%, 76.803589%)" offset="1"/></linearGradient><clipPath id="d4f014daa2"><rect x="0" width="57" y="0" height="57"/></clipPath><clipPath id="ad2075c812"><path d="M 24.304688 31.382812 L 29.402344 31.382812 L 29.402344 36.480469 L 24.304688 36.480469 Z M 24.304688 31.382812 " clip-rule="nonzero"/></clipPath><clipPath id="eac632370e"><path d="M 26.878906 36.4375 C 25.5 36.4375 24.382812 35.316406 24.382812 33.941406 C 24.382812 32.5625 25.5 31.441406 26.878906 31.441406 C 28.257812 31.441406 29.375 32.5625 29.375 33.941406 C 29.375 35.316406 28.257812 36.4375 26.878906 36.4375 M 26.878906 33.019531 C 26.371094 33.019531 25.957031 33.433594 25.957031 33.941406 C 25.957031 34.445312 26.371094 34.859375 26.878906 34.859375 C 27.386719 34.859375 27.800781 34.445312 27.800781 33.941406 C 27.800781 33.433594 27.386719 33.019531 26.878906 33.019531 " clip-rule="nonzero"/></clipPath><clipPath id="a1fdc23d0e"><path d="M 0.320312 0.382812 L 5.402344 0.382812 L 5.402344 5.480469 L 0.320312 5.480469 Z M 0.320312 0.382812 " clip-rule="nonzero"/></clipPath><clipPath id="f48649cd22"><path d="M 2.878906 5.4375 C 1.5 5.4375 0.382812 4.316406 0.382812 2.941406 C 0.382812 1.5625 1.5 0.441406 2.878906 0.441406 C 4.257812 0.441406 5.375 1.5625 5.375 2.941406 C 5.375 4.316406 4.257812 5.4375 2.878906 5.4375 M 2.878906 2.019531 C 2.371094 2.019531 1.957031 2.433594 1.957031 2.941406 C 1.957031 3.445312 2.371094 3.859375 2.878906 3.859375 C 3.386719 3.859375 3.800781 3.445312 3.800781 2.941406 C 3.800781 2.433594 3.386719 2.019531 2.878906 2.019531 " clip-rule="nonzero"/></clipPath><clipPath id="d887e48579"><rect x="0" width="6" y="0" height="6"/></clipPath><clipPath id="3097e5b306"><path d="M 3.84375 16.394531 L 52.714844 16.394531 L 52.714844 40.679688 L 3.84375 40.679688 Z M 3.84375 16.394531 " clip-rule="nonzero"/></clipPath><clipPath id="28001f5a9a"><path d="M 51.570312 35.28125 C 51.242188 35.578125 50.890625 35.867188 50.515625 36.148438 C 49.285156 37.078125 47.25 37.765625 45.332031 37.898438 C 42.460938 38.101562 39.835938 37.175781 37.945312 35.335938 C 38.296875 34.953125 38.628906 34.558594 38.9375 34.15625 C 40.574219 32.007812 42.429688 29.574219 43.074219 26.109375 C 43.40625 24.296875 43.265625 22.410156 42.671875 20.792969 C 42.007812 18.992188 40.851562 17.648438 39.324219 16.910156 C 38.027344 16.285156 36.625 16.226562 35.269531 16.742188 C 32.695312 17.722656 31.132812 20.539062 31.191406 24.097656 C 31.277344 29.324219 33.875 32.753906 35.78125 35.257812 C 34.003906 36.878906 31.855469 38.15625 29.921875 38.675781 C 28.390625 39.085938 26.40625 39.144531 24.980469 38.820312 C 22.3125 38.210938 19.710938 36.746094 17.617188 34.703125 C 18.808594 33.34375 19.742188 31.722656 20.355469 29.890625 C 21.210938 27.335938 21.058594 24.664062 19.941406 22.5625 C 19.179688 21.132812 17.925781 20.246094 16.496094 20.128906 C 15.128906 20.019531 13.796875 20.628906 12.9375 21.757812 C 12.335938 22.550781 11.925781 23.511719 11.792969 24.453125 C 11.359375 27.519531 12.523438 31.050781 14.992188 34.148438 L 15.421875 34.667969 C 14.109375 35.835938 12.53125 36.691406 10.773438 37.164062 C 8.746094 37.710938 6.605469 37.429688 4.585938 36.351562 L 3.84375 37.742188 C 6.222656 39.011719 8.761719 39.339844 11.183594 38.6875 C 13.203125 38.144531 15.007812 37.160156 16.507812 35.820312 C 17.34375 36.640625 18.265625 37.382812 19.226562 38.019531 C 20.933594 39.144531 22.75 39.929688 24.628906 40.359375 C 25.359375 40.523438 26.199219 40.605469 27.058594 40.605469 C 28.171875 40.605469 29.324219 40.46875 30.328125 40.199219 C 32.515625 39.613281 34.867188 38.230469 36.824219 36.445312 C 38.839844 38.421875 41.558594 39.503906 44.554688 39.503906 L 45.441406 39.472656 C 47.191406 39.347656 49.695312 38.742188 51.464844 37.410156 C 51.90625 37.074219 52.324219 36.726562 52.714844 36.375 Z M 16.222656 33.164062 C 15.160156 31.828125 14.335938 30.355469 13.839844 28.90625 C 13.328125 27.417969 13.167969 25.992188 13.351562 24.675781 C 13.449219 23.992188 13.75 23.296875 14.191406 22.710938 C 14.683594 22.066406 15.417969 21.695312 16.183594 21.695312 L 16.371094 21.703125 C 17.261719 21.773438 18.039062 22.34375 18.550781 23.304688 C 19.464844 25.023438 19.578125 27.242188 18.859375 29.390625 C 18.332031 30.964844 17.542969 32.363281 16.53125 33.539062 L 16.222656 33.164062 M 36.902344 34.132812 C 35.058594 31.703125 32.84375 28.675781 32.765625 24.070312 C 32.722656 21.195312 33.894531 18.953125 35.828125 18.214844 C 36.257812 18.050781 36.6875 17.96875 37.113281 17.96875 C 37.628906 17.96875 38.136719 18.089844 38.636719 18.332031 C 40.089844 19.035156 40.828125 20.351562 41.1875 21.335938 C 41.6875 22.691406 41.804688 24.285156 41.519531 25.824219 C 40.949219 28.917969 39.289062 31.09375 37.683594 33.199219 C 37.441406 33.515625 37.179688 33.828125 36.902344 34.132812 " clip-rule="nonzero"/></clipPath><clipPath id="556a66cc5f"><path d="M 0.84375 0.394531 L 49.714844 0.394531 L 49.714844 24.679688 L 0.84375 24.679688 Z M 0.84375 0.394531 " clip-rule="nonzero"/></clipPath><clipPath id="8b40572728"><path d="M 48.570312 19.28125 C 48.242188 19.578125 47.890625 19.867188 47.515625 20.148438 C 46.285156 21.078125 44.25 21.765625 42.332031 21.898438 C 39.460938 22.101562 36.835938 21.175781 34.945312 19.335938 C 35.296875 18.953125 35.628906 18.558594 35.9375 18.15625 C 37.574219 16.007812 39.429688 13.574219 40.074219 10.109375 C 40.40625 8.296875 40.265625 6.410156 39.671875 4.792969 C 39.007812 2.992188 37.851562 1.648438 36.324219 0.910156 C 35.027344 0.285156 33.625 0.226562 32.269531 0.742188 C 29.695312 1.722656 28.132812 4.539062 28.191406 8.097656 C 28.277344 13.324219 30.875 16.753906 32.78125 19.257812 C 31.003906 20.878906 28.855469 22.15625 26.921875 22.675781 C 25.390625 23.085938 23.40625 23.144531 21.980469 22.820312 C 19.3125 22.210938 16.710938 20.746094 14.617188 18.703125 C 15.808594 17.34375 16.742188 15.722656 17.355469 13.890625 C 18.210938 11.335938 18.058594 8.664062 16.941406 6.5625 C 16.179688 5.132812 14.925781 4.246094 13.496094 4.128906 C 12.128906 4.019531 10.796875 4.628906 9.9375 5.757812 C 9.335938 6.550781 8.925781 7.511719 8.792969 8.453125 C 8.359375 11.519531 9.523438 15.050781 11.992188 18.148438 L 12.421875 18.667969 C 11.109375 19.835938 9.53125 20.691406 7.773438 21.164062 C 5.746094 21.710938 3.605469 21.429688 1.585938 20.351562 L 0.84375 21.742188 C 3.222656 23.011719 5.761719 23.339844 8.183594 22.6875 C 10.203125 22.144531 12.007812 21.160156 13.507812 19.820312 C 14.34375 20.640625 15.265625 21.382812 16.226562 22.019531 C 17.933594 23.144531 19.75 23.929688 21.628906 24.359375 C 22.359375 24.523438 23.199219 24.605469 24.058594 24.605469 C 25.171875 24.605469 26.324219 24.46875 27.328125 24.199219 C 29.515625 23.613281 31.867188 22.230469 33.824219 20.445312 C 35.839844 22.421875 38.558594 23.503906 41.554688 23.503906 L 42.441406 23.472656 C 44.191406 23.347656 46.695312 22.742188 48.464844 21.410156 C 48.90625 21.074219 49.324219 20.726562 49.714844 20.375 Z M 13.222656 17.164062 C 12.160156 15.828125 11.335938 14.355469 10.839844 12.90625 C 10.328125 11.417969 10.167969 9.992188 10.351562 8.675781 C 10.449219 7.992188 10.75 7.296875 11.191406 6.710938 C 11.683594 6.066406 12.417969 5.695312 13.183594 5.695312 L 13.371094 5.703125 C 14.261719 5.773438 15.039062 6.34375 15.550781 7.304688 C 16.464844 9.023438 16.578125 11.242188 15.859375 13.390625 C 15.332031 14.964844 14.542969 16.363281 13.53125 17.539062 L 13.222656 17.164062 M 33.902344 18.132812 C 32.058594 15.703125 29.84375 12.675781 29.765625 8.070312 C 29.722656 5.195312 30.894531 2.953125 32.828125 2.214844 C 33.257812 2.050781 33.6875 1.96875 34.113281 1.96875 C 34.628906 1.96875 35.136719 2.089844 35.636719 2.332031 C 37.089844 3.035156 37.828125 4.351562 38.1875 5.335938 C 38.6875 6.691406 38.804688 8.285156 38.519531 9.824219 C 37.949219 12.917969 36.289062 15.09375 34.683594 17.199219 C 34.441406 17.515625 34.179688 17.828125 33.902344 18.132812 " clip-rule="nonzero"/></clipPath><clipPath id="0c98b5633d"><rect x="0" width="50" y="0" height="25"/></clipPath><clipPath id="afc46a0b64"><rect x="0" width="57" y="0" height="57"/></clipPath><clipPath id="b58c26b0f8"><path d="M 1.855469 2.742188 L 25.941406 2.742188 L 25.941406 33.933594 L 1.855469 33.933594 Z M 1.855469 2.742188 " clip-rule="nonzero"/></clipPath><clipPath id="21786c0cb6"><path d="M 19.601562 2.746094 L 6.027344 16.882812 L 5.941406 16.839844 L 5.941406 2.746094 L 1.859375 2.746094 L 1.859375 33.855469 L 5.941406 33.855469 L 5.941406 17.828125 L 6.023438 17.785156 L 20.546875 33.851562 L 25.875 33.851562 L 10.710938 17.183594 L 24.671875 2.746094 Z M 19.601562 2.746094 " clip-rule="nonzero"/></clipPath><clipPath id="2392385f33"><path d="M 0.855469 0.742188 L 24.878906 0.742188 L 24.878906 31.933594 L 0.855469 31.933594 Z M 0.855469 0.742188 " clip-rule="nonzero"/></clipPath><clipPath id="f867f70602"><path d="M 18.601562 0.746094 L 5.027344 14.882812 L 4.941406 14.839844 L 4.941406 0.746094 L 0.859375 0.746094 L 0.859375 31.855469 L 4.941406 31.855469 L 4.941406 15.828125 L 5.023438 15.785156 L 19.546875 31.851562 L 24.875 31.851562 L 9.710938 15.183594 L 23.671875 0.746094 Z M 18.601562 0.746094 " clip-rule="nonzero"/></clipPath><clipPath id="834c3ff266"><rect x="0" width="25" y="0" height="32"/></clipPath><clipPath id="6d2b649033"><path d="M 26.464844 12.21875 L 48.972656 12.21875 L 48.972656 34.328125 L 26.464844 34.328125 Z M 26.464844 12.21875 " clip-rule="nonzero"/></clipPath><clipPath id="1f05ad89ad"><path d="M 37.691406 12.242188 C 44.089844 12.242188 48.859375 17.058594 48.859375 23.285156 C 48.859375 29.515625 44.089844 34.324219 37.691406 34.324219 C 31.292969 34.324219 26.523438 29.515625 26.523438 23.285156 C 26.523438 17.054688 31.292969 12.242188 37.691406 12.242188 M 37.691406 30.804688 C 41.902344 30.804688 44.996094 27.539062 44.996094 23.285156 C 44.996094 19.03125 41.902344 15.769531 37.691406 15.769531 C 33.480469 15.769531 30.386719 19.03125 30.386719 23.285156 C 30.386719 27.539062 33.480469 30.804688 37.691406 30.804688 " clip-rule="nonzero"/></clipPath><clipPath id="2c7583bb6c"><path d="M 0.464844 0.21875 L 22.921875 0.21875 L 22.921875 22.328125 L 0.464844 22.328125 Z M 0.464844 0.21875 " clip-rule="nonzero"/></clipPath><clipPath id="40fe3e7b8d"><path d="M 11.691406 0.242188 C 18.089844 0.242188 22.859375 5.058594 22.859375 11.285156 C 22.859375 17.515625 18.089844 22.324219 11.691406 22.324219 C 5.292969 22.324219 0.523438 17.515625 0.523438 11.285156 C 0.523438 5.054688 5.292969 0.242188 11.691406 0.242188 M 11.691406 18.804688 C 15.902344 18.804688 18.996094 15.539062 18.996094 11.285156 C 18.996094 7.03125 15.902344 3.769531 11.691406 3.769531 C 7.480469 3.769531 4.386719 7.03125 4.386719 11.285156 C 4.386719 15.539062 7.480469 18.804688 11.691406 18.804688 " clip-rule="nonzero"/></clipPath><clipPath id="a792cc8f19"><rect x="0" width="23" y="0" height="23"/></clipPath><clipPath id="f52d51f4d5"><path d="M 50.8125 12.613281 L 84.109375 12.613281 L 84.109375 33.933594 L 50.8125 33.933594 Z M 50.8125 12.613281 " clip-rule="nonzero"/></clipPath><clipPath id="575cdd9a97"><path d="M 50.882812 12.71875 L 55.09375 12.71875 L 58.226562 22.128906 C 58.957031 24.316406 59.644531 26.464844 60.332031 28.65625 L 60.417969 28.65625 C 61.148438 26.507812 61.964844 24.230469 62.738281 22.128906 L 66.21875 12.71875 L 68.972656 12.71875 L 72.449219 22.125 C 73.265625 24.316406 74.039062 26.503906 74.769531 28.652344 L 74.855469 28.652344 L 76.917969 22.164062 L 80.054688 12.71875 L 84.09375 12.71875 L 76.746094 33.855469 L 72.921875 33.855469 L 69.613281 24.789062 C 68.882812 22.855469 68.152344 20.707031 67.550781 18.855469 L 67.464844 18.855469 C 66.867188 20.707031 66.136719 22.855469 65.402344 24.789062 L 62.097656 33.855469 L 58.226562 33.855469 Z M 50.882812 12.71875 " clip-rule="nonzero"/></clipPath><clipPath id="9698e7caa0"><path d="M 0.839844 0.679688 L 34.109375 0.679688 L 34.109375 21.933594 L 0.839844 21.933594 Z M 0.839844 0.679688 " clip-rule="nonzero"/></clipPath><clipPath id="64fe01ecc1"><path d="M 0.882812 0.71875 L 5.09375 0.71875 L 8.226562 10.128906 C 8.957031 12.316406 9.644531 14.464844 10.332031 16.65625 L 10.417969 16.65625 C 11.148438 14.507812 11.964844 12.230469 12.738281 10.128906 L 16.21875 0.71875 L 18.972656 0.71875 L 22.449219 10.125 C 23.265625 12.316406 24.039062 14.503906 24.769531 16.652344 L 24.855469 16.652344 L 26.917969 10.164062 L 30.054688 0.71875 L 34.09375 0.71875 L 26.746094 21.855469 L 22.921875 21.855469 L 19.613281 12.789062 C 18.882812 10.855469 18.152344 8.707031 17.550781 6.855469 L 17.464844 6.855469 C 16.867188 8.707031 16.136719 10.855469 15.402344 12.789062 L 12.097656 21.855469 L 8.226562 21.855469 Z M 0.882812 0.71875 " clip-rule="nonzero"/></clipPath><clipPath id="12f3ccdb75"><rect x="0" width="35" y="0" height="22"/></clipPath><clipPath id="33bf2b63af"><path d="M 86.085938 12.21875 L 106.21875 12.21875 L 106.21875 34.328125 L 86.085938 34.328125 Z M 86.085938 12.21875 " clip-rule="nonzero"/></clipPath><clipPath id="f06bb57e98"><path d="M 88.433594 32.824219 C 87.058594 31.789062 86.195312 30.203125 86.195312 28.136719 C 86.195312 25.773438 87.3125 24.058594 88.988281 22.984375 C 90.578125 21.953125 92.726562 21.566406 94.921875 21.566406 C 96.554688 21.566406 98.054688 21.78125 99.429688 22.121094 L 99.429688 20.363281 C 99.429688 18.816406 99.042969 17.65625 98.226562 16.882812 C 97.414062 16.152344 96.121094 15.722656 94.320312 15.722656 C 91.65625 15.722656 89.421875 16.667969 87.828125 17.828125 L 87.828125 14.046875 C 89.464844 13.058594 91.738281 12.242188 94.875 12.242188 C 97.453125 12.242188 99.691406 12.800781 101.191406 14.175781 C 102.4375 15.292969 103.296875 17.097656 103.296875 19.722656 L 103.296875 28.699219 C 103.296875 29.988281 103.769531 30.933594 104.929688 30.933594 C 105.359375 30.933594 105.835938 30.804688 106.175781 30.636719 L 106.175781 33.859375 C 105.660156 34.070312 104.929688 34.246094 104.113281 34.246094 C 102.441406 34.246094 100.847656 33.515625 100.03125 32.011719 L 99.949219 32.011719 C 98.742188 33.128906 96.296875 34.328125 93.457031 34.328125 C 91.738281 34.328125 89.851562 33.902344 88.433594 32.824219 M 99.429688 29.042969 L 99.429688 25.089844 C 98.273438 24.746094 96.636719 24.53125 95.308594 24.53125 C 92.6875 24.53125 90.109375 25.304688 90.109375 27.796875 C 90.109375 29.859375 91.867188 30.890625 94.148438 30.890625 C 96.167969 30.890625 98.144531 30.074219 99.433594 29.042969 " clip-rule="nonzero"/></clipPath><clipPath id="10397c75c9"><path d="M 0.121094 0.21875 L 20.21875 0.21875 L 20.21875 22.328125 L 0.121094 22.328125 Z M 0.121094 0.21875 " clip-rule="nonzero"/></clipPath><clipPath id="45f7995d49"><path d="M 2.433594 20.824219 C 1.058594 19.789062 0.195312 18.203125 0.195312 16.136719 C 0.195312 13.773438 1.3125 12.058594 2.988281 10.984375 C 4.578125 9.953125 6.726562 9.566406 8.921875 9.566406 C 10.554688 9.566406 12.054688 9.78125 13.429688 10.121094 L 13.429688 8.363281 C 13.429688 6.816406 13.042969 5.65625 12.226562 4.882812 C 11.414062 4.152344 10.121094 3.722656 8.320312 3.722656 C 5.65625 3.722656 3.421875 4.667969 1.828125 5.828125 L 1.828125 2.046875 C 3.464844 1.058594 5.738281 0.242188 8.875 0.242188 C 11.453125 0.242188 13.691406 0.800781 15.191406 2.175781 C 16.4375 3.292969 17.296875 5.097656 17.296875 7.722656 L 17.296875 16.699219 C 17.296875 17.988281 17.769531 18.933594 18.929688 18.933594 C 19.359375 18.933594 19.835938 18.804688 20.175781 18.636719 L 20.175781 21.859375 C 19.660156 22.070312 18.929688 22.246094 18.113281 22.246094 C 16.441406 22.246094 14.847656 21.515625 14.03125 20.011719 L 13.949219 20.011719 C 12.742188 21.128906 10.296875 22.328125 7.457031 22.328125 C 5.738281 22.328125 3.851562 21.902344 2.433594 20.824219 M 13.429688 17.042969 L 13.429688 13.089844 C 12.273438 12.746094 10.636719 12.53125 9.308594 12.53125 C 6.6875 12.53125 4.109375 13.304688 4.109375 15.796875 C 4.109375 17.859375 5.867188 18.890625 8.148438 18.890625 C 10.167969 18.890625 12.144531 18.074219 13.433594 17.042969 " clip-rule="nonzero"/></clipPath><clipPath id="23c71cab5c"><rect x="0" width="21" y="0" height="23"/></clipPath><clipPath id="88c6eb5d85"><path d="M 110.472656 1.03125 L 114.339844 1.03125 L 114.339844 33.855469 L 110.472656 33.855469 Z M 110.472656 1.03125 " clip-rule="nonzero"/></clipPath><clipPath id="c96aa47839"><path d="M 0.472656 0.03125 L 4.339844 0.03125 L 4.339844 32.855469 L 0.472656 32.855469 Z M 0.472656 0.03125 " clip-rule="nonzero"/></clipPath><clipPath id="dd0ba3db0c"><rect x="0" width="5" y="0" height="33"/></clipPath><clipPath id="2d7256ebcd"><path d="M 119.710938 12.242188 L 139.765625 12.242188 L 139.765625 34.40625 L 119.710938 34.40625 Z M 119.710938 12.242188 " clip-rule="nonzero"/></clipPath><clipPath id="d9e6335563"><path d="M 121.945312 32.824219 C 120.570312 31.792969 119.710938 30.203125 119.710938 28.140625 C 119.710938 25.777344 120.828125 24.058594 122.503906 22.984375 C 124.09375 21.953125 126.238281 21.566406 128.433594 21.566406 C 130.0625 21.566406 131.566406 21.78125 132.941406 22.125 L 132.941406 20.363281 C 132.941406 18.816406 132.554688 17.65625 131.742188 16.882812 C 130.925781 16.152344 129.636719 15.722656 127.832031 15.722656 C 125.167969 15.722656 122.933594 16.664062 121.34375 17.828125 L 121.34375 14.046875 C 122.976562 13.058594 125.253906 12.242188 128.390625 12.242188 C 130.964844 12.242188 133.203125 12.800781 134.703125 14.175781 C 135.949219 15.292969 136.8125 17.097656 136.8125 19.71875 L 136.8125 28.695312 C 136.8125 29.988281 137.28125 30.933594 138.445312 30.933594 C 138.875 30.933594 139.347656 30.804688 139.691406 30.632812 L 139.691406 33.855469 C 139.175781 34.070312 138.445312 34.242188 137.628906 34.242188 C 135.953125 34.242188 134.363281 33.511719 133.546875 32.007812 L 133.460938 32.007812 C 132.257812 33.125 129.808594 34.328125 126.972656 34.328125 C 125.253906 34.328125 123.363281 33.898438 121.945312 32.824219 M 132.941406 29.042969 L 132.941406 25.089844 C 131.785156 24.746094 130.152344 24.53125 128.820312 24.53125 C 126.199219 24.53125 123.621094 25.308594 123.621094 27.796875 C 123.621094 29.859375 125.382812 30.890625 127.660156 30.890625 C 129.683594 30.890625 131.65625 30.078125 132.945312 29.042969 " clip-rule="nonzero"/></clipPath><clipPath id="5f34e7dbef"><path d="M 0.710938 0.242188 L 20.765625 0.242188 L 20.765625 22.40625 L 0.710938 22.40625 Z M 0.710938 0.242188 " clip-rule="nonzero"/></clipPath><clipPath id="75bc9e584c"><path d="M 2.945312 20.824219 C 1.570312 19.792969 0.710938 18.203125 0.710938 16.140625 C 0.710938 13.777344 1.828125 12.058594 3.503906 10.984375 C 5.09375 9.953125 7.238281 9.566406 9.433594 9.566406 C 11.0625 9.566406 12.566406 9.78125 13.941406 10.125 L 13.941406 8.363281 C 13.941406 6.816406 13.554688 5.65625 12.742188 4.882812 C 11.925781 4.152344 10.636719 3.722656 8.832031 3.722656 C 6.167969 3.722656 3.933594 4.664062 2.34375 5.828125 L 2.34375 2.046875 C 3.976562 1.058594 6.253906 0.242188 9.390625 0.242188 C 11.964844 0.242188 14.203125 0.800781 15.703125 2.175781 C 16.949219 3.292969 17.8125 5.097656 17.8125 7.71875 L 17.8125 16.695312 C 17.8125 17.988281 18.28125 18.933594 19.445312 18.933594 C 19.875 18.933594 20.347656 18.804688 20.691406 18.632812 L 20.691406 21.855469 C 20.175781 22.070312 19.445312 22.242188 18.628906 22.242188 C 16.953125 22.242188 15.363281 21.511719 14.546875 20.007812 L 14.460938 20.007812 C 13.257812 21.125 10.808594 22.328125 7.972656 22.328125 C 6.253906 22.328125 4.363281 21.898438 2.945312 20.824219 M 13.941406 17.042969 L 13.941406 13.089844 C 12.785156 12.746094 11.152344 12.53125 9.820312 12.53125 C 7.199219 12.53125 4.621094 13.308594 4.621094 15.796875 C 4.621094 17.859375 6.382812 18.890625 8.660156 18.890625 C 10.683594 18.890625 12.65625 18.078125 13.945312 17.042969 " clip-rule="nonzero"/></clipPath><clipPath id="3e0c47c487"><rect x="0" width="21" y="0" height="23"/></clipPath><clipPath id="1f6e12eb8f"><path d="M 143.984375 1.03125 L 162.71875 1.03125 L 162.71875 33.882812 L 143.984375 33.882812 Z M 143.984375 1.03125 " clip-rule="nonzero"/></clipPath><clipPath id="dc0709ff7e"><path d="M 143.984375 1.03125 L 147.851562 1.03125 L 147.851562 15.378906 L 147.9375 15.421875 C 149.785156 13.574219 152.363281 12.242188 155.324219 12.242188 C 157.644531 12.242188 159.621094 13.058594 160.953125 14.5625 C 162.113281 15.894531 162.714844 17.527344 162.714844 20.792969 L 162.714844 33.855469 L 158.851562 33.855469 L 158.851562 21.523438 C 158.851562 19.160156 158.550781 18.042969 157.816406 17.226562 C 157.003906 16.28125 155.929688 15.851562 154.59375 15.851562 C 152.058594 15.851562 149.4375 17.398438 147.847656 19.375 L 147.847656 33.855469 L 143.984375 33.855469 Z M 143.984375 1.03125 " clip-rule="nonzero"/></clipPath><clipPath id="e6cb68bb21"><path d="M 0.984375 0.03125 L 19.71875 0.03125 L 19.71875 32.882812 L 0.984375 32.882812 Z M 0.984375 0.03125 " clip-rule="nonzero"/></clipPath><clipPath id="39f9772c25"><path d="M 0.984375 0.03125 L 4.851562 0.03125 L 4.851562 14.378906 L 4.9375 14.421875 C 6.785156 12.574219 9.363281 11.242188 12.324219 11.242188 C 14.644531 11.242188 16.621094 12.058594 17.953125 13.5625 C 19.113281 14.894531 19.714844 16.527344 19.714844 19.792969 L 19.714844 32.855469 L 15.851562 32.855469 L 15.851562 20.523438 C 15.851562 18.160156 15.550781 17.042969 14.816406 16.226562 C 14.003906 15.28125 12.929688 14.851562 11.59375 14.851562 C 9.058594 14.851562 6.4375 16.398438 4.847656 18.375 L 4.847656 32.855469 L 0.984375 32.855469 Z M 0.984375 0.03125 " clip-rule="nonzero"/></clipPath><clipPath id="40633985ea"><rect x="0" width="20" y="0" height="33"/></clipPath><clipPath id="f2d4a630c1"><rect x="0" width="163" y="0" height="36"/></clipPath></defs><g transform="matrix(1, 0, 0, 1, 4, 9)"><g clip-path="url(#afc46a0b64)"><g clip-path="url(#2f6d65a753)"><g clip-path="url(#7389d5ee96)"><g transform="matrix(1, 0, 0, 1, 0, -0.000000000000001776)"><g clip-path="url(#d4f014daa2)"><g clip-path="url(#2058e15205)"><g clip-path="url(#8ae35e929e)"><path fill="url(#1bb59b493b)" d="M 0.28125 0.503906 L 0.28125 56.496094 L 56.277344 56.496094 L 56.277344 0.503906 Z M 0.28125 0.503906 " fill-rule="nonzero"/></g></g></g></g></g></g><g clip-path="url(#ad2075c812)"><g clip-path="url(#eac632370e)"><g transform="matrix(1, 0, 0, 1, 24, 31)"><g clip-path="url(#d887e48579)"><g clip-path="url(#a1fdc23d0e)"><g clip-path="url(#f48649cd22)"><rect x="-115.36" width="414.72" fill="#ffffff" y="-67.299999" height="129.599995" fill-opacity="1"/></g></g></g></g></g></g><g clip-path="url(#3097e5b306)"><g clip-path="url(#28001f5a9a)"><g transform="matrix(1, 0, 0, 1, 3, 16)"><g clip-path="url(#0c98b5633d)"><g clip-path="url(#556a66cc5f)"><g clip-path="url(#8b40572728)"><path fill="#ffffff" d="M 0.46875 0.0195312 L 50.089844 0.0195312 L 50.089844 24.980469 L 0.46875 24.980469 Z M 0.46875 0.0195312 " fill-opacity="1" fill-rule="nonzero"/></g></g></g></g></g></g></g></g><g transform="matrix(1, 0, 0, 1, 73, 19)"><g clip-path="url(#f2d4a630c1)"><g clip-path="url(#b58c26b0f8)"><g clip-path="url(#21786c0cb6)"><g transform="matrix(1, 0, 0, 1, 1, 2)"><g clip-path="url(#834c3ff266)"><g clip-path="url(#2392385f33)"><g clip-path="url(#f867f70602)"><rect x="-161.36" width="414.72" fill="#ffffff" y="-48.299999" height="129.599995" fill-opacity="1"/></g></g></g></g></g></g><g clip-path="url(#6d2b649033)"><g clip-path="url(#1f05ad89ad)"><g transform="matrix(1, 0, 0, 1, 26, 12)"><g clip-path="url(#a792cc8f19)"><g clip-path="url(#2c7583bb6c)"><g clip-path="url(#40fe3e7b8d)"><rect x="-186.36" width="414.72" fill="#ffffff" y="-58.299999" height="129.599995" fill-opacity="1"/></g></g></g></g></g></g><g clip-path="url(#f52d51f4d5)"><g clip-path="url(#575cdd9a97)"><g transform="matrix(1, 0, 0, 1, 50, 12)"><g clip-path="url(#12f3ccdb75)"><g clip-path="url(#9698e7caa0)"><g clip-path="url(#64fe01ecc1)"><rect x="-210.36" width="414.72" fill="#ffffff" y="-58.299999" height="129.599995" fill-opacity="1"/></g></g></g></g></g></g><g clip-path="url(#33bf2b63af)"><g clip-path="url(#f06bb57e98)"><g transform="matrix(1, 0, 0, 1, 86, 12)"><g clip-path="url(#23c71cab5c)"><g clip-path="url(#10397c75c9)"><g clip-path="url(#45f7995d49)"><rect x="-246.36" width="414.72" fill="#ffffff" y="-58.299999" height="129.599995" fill-opacity="1"/></g></g></g></g></g></g><g clip-path="url(#88c6eb5d85)"><g transform="matrix(1, 0, 0, 1, 110, 1)"><g clip-path="url(#dd0ba3db0c)"><g clip-path="url(#c96aa47839)"><path fill="#ffffff" d="M 0.472656 0.03125 L 4.339844 0.03125 L 4.339844 32.859375 L 0.472656 32.859375 Z M 0.472656 0.03125 " fill-opacity="1" fill-rule="nonzero"/></g></g></g></g><g clip-path="url(#2d7256ebcd)"><g clip-path="url(#d9e6335563)"><g transform="matrix(1, 0, 0, 1, 119, 12)"><g clip-path="url(#3e0c47c487)"><g clip-path="url(#5f34e7dbef)"><g clip-path="url(#75bc9e584c)"><path fill="#ffffff" d="M 0.710938 0.242188 L 20.6875 0.242188 L 20.6875 22.328125 L 0.710938 22.328125 Z M 0.710938 0.242188 " fill-opacity="1" fill-rule="nonzero"/></g></g></g></g></g></g><g clip-path="url(#1f6e12eb8f)"><g clip-path="url(#dc0709ff7e)"><g transform="matrix(1, 0, 0, 1, 143, 1)"><g clip-path="url(#40633985ea)"><g clip-path="url(#e6cb68bb21)"><g clip-path="url(#39f9772c25)"><path fill="#ffffff" d="M 0.984375 0.03125 L 19.71875 0.03125 L 19.71875 32.882812 L 0.984375 32.882812 Z M 0.984375 0.03125 " fill-opacity="1" fill-rule="nonzero"/></g></g></g></g></g></g></g></g></svg>