<svg xmlns="http://www.w3.org/2000/svg" width="226" height="58" fill="none"><g fill="#fff" clip-path="url(#a)"><path d="M33.86 4.115 28.62 2.7l-4.417 16.593-3.988-14.98-5.241 1.414 4.308 16.185L8.551 11.111l-3.837 3.862 11.77 11.849-14.658-3.954-1.404 5.276 16.016 4.32a11.03 11.03 0 0 1-.28-2.478c0-6.033 4.858-10.924 10.852-10.924 5.994 0 10.852 4.89 10.852 10.924 0 .847-.096 1.671-.277 2.463l14.556 3.926 1.404-5.276-16.08-4.337 14.66-3.954-1.404-5.276-16.08 4.337 10.732-10.803-3.837-3.862L29.928 18.89l3.933-14.774Z"/><path d="M37.57 32.51a10.924 10.924 0 0 1-2.7 5.007l10.545 10.615 3.837-3.862L37.57 32.51Zm-2.806 5.118a10.83 10.83 0 0 1-4.85 2.886l3.838 14.416 5.241-1.414-4.23-15.888Zm-5.045 2.939c-.866.224-1.774.343-2.71.343-1.002 0-1.973-.136-2.895-.393l-3.84 14.429 5.241 1.414 4.204-15.793Zm-5.789-.103a10.839 10.839 0 0 1-4.765-2.929L8.594 48.177l3.837 3.862 11.498-11.575Zm-4.852-3.023a10.923 10.923 0 0 1-2.632-4.945l-14.604 3.94 1.405 5.275 15.83-4.27Z"/></g><path fill="#fff" d="M85.083 15.1v19.012L72.976 15.1h-4.843v26.25h4.843V22.487L85.083 41.35h4.843V15.1h-4.843Zm7.025 4.912H97.1V15.1h-4.992v4.912Zm.074 21.338V22.6h4.843v18.75h-4.843Zm25.68-9.375c0-6.488-4.582-9.563-9.425-9.6-4.88-.038-9.388 3.112-9.388 9.6 0 6.487 4.508 9.637 9.388 9.6 4.433-.038 7.488-2.1 8.903-5.513l-3.762-1.575c-1.155 2.325-2.98 3.15-5.141 3.188-1.863.037-3.986-.863-4.433-4.2h13.746c.075-.488.112-.975.112-1.5Zm-9.425-5.738c1.863.038 3.763 1.05 4.359 3.75h-8.717c.633-2.737 2.533-3.787 4.358-3.75Zm20.617-.15v-3.712h-3.055V17.35l-4.842 1.5v3.525h-3.055v3.712h3.055V35.8c0 3.675.298 5.55 5.96 5.55h1.304v-4.275h-1.304c-.894 0-1.118-.15-1.118-1.275v-9.713h3.055Zm7.196 11.175 10.282-10.575V22.6h-15.423v4.087h9.984l-10.282 10.575v4.088h15.833v-4.088H136.25Zm12.13-1.2 4.88-.75c.336 1.875 2.533 2.588 3.875 2.588 1.378 0 3.762-.3 3.762-2.55 0-4.388-11.958 1.087-11.958-7.313 0-5.4 6.221-5.7 8.196-5.7 1.862 0 7.264.3 8.381 4.65l-4.619.975c-.41-1.987-2.496-2.362-3.613-2.362-1.118 0-3.502.262-3.502 2.437 0 4.35 11.958-1.2 11.958 7.313 0 5.737-6.557 6.225-8.605 6.225-1.863 0-7.786-.488-8.755-5.513Zm23.651-4.087c0 4.575 2.422 5.962 4.955 5.925 2.272-.038 3.837-.975 4.768-3.6l3.986 1.95c-1.453 3.825-4.992 5.287-8.754 5.325-4.88.037-9.798-3.113-9.798-9.6 0-6.488 4.918-9.638 9.798-9.6 3.762.037 7.301 1.5 8.754 5.325l-3.986 1.95c-.931-2.625-2.496-3.563-4.768-3.6-2.533-.038-4.955 1.35-4.955 5.925Zm26.71-9.675c-2.496 0-4.768 1.312-6.221 4.125V15.1h-4.843v26.25h4.843v-6.638c0-8.587 3.539-9.3 4.843-9.3 2.086 0 2.384 2.175 2.384 5.363V41.35h4.843V30.775c0-3.975-.633-8.475-5.849-8.475Zm26.295 9.675c0-6.488-4.582-9.563-9.425-9.6-4.88-.038-9.387 3.112-9.387 9.6 0 6.487 4.507 9.637 9.387 9.6 4.434-.038 7.488-2.1 8.904-5.513l-3.763-1.575c-1.154 2.325-2.98 3.15-5.141 3.188-1.862.037-3.986-.863-4.433-4.2h13.747c.074-.488.111-.975.111-1.5Zm-9.425-5.738c1.863.038 3.763 1.05 4.359 3.75h-8.717c.633-2.737 2.533-3.787 4.358-3.75Z"/><defs><clipPath id="a"><path fill="#fff" d="M0 1.464h54.637v55H0z"/></clipPath></defs></svg>