<svg xmlns="http://www.w3.org/2000/svg" width="229" height="45" fill="none"><g fill="#60D184" clip-path="url(#a)"><path d="M39.998 2.5h-10v10h10v-10Z"/><path fill-rule="evenodd" d="m40 22.5-10-10-9.999-10H10v10h20v20h10v-10Z" clip-rule="evenodd"/><path fill-rule="evenodd" d="M10 32.5v-20H0v20h10v9.999h20v-10H10Zm15-5v-10H15v10h10Z" clip-rule="evenodd"/></g><path fill="#0A0915" d="M67.168 34.512c-2.795 0-5.024-.715-6.688-2.144-1.664-1.43-2.592-3.35-2.784-5.76l4.224-.256c.213 1.493.757 2.635 1.632 3.424.896.768 2.123 1.152 3.68 1.152 1.344 0 2.379-.245 3.104-.736.747-.512 1.12-1.248 1.12-2.208 0-.64-.15-1.173-.448-1.6-.277-.427-.821-.821-1.632-1.184-.79-.384-1.941-.757-3.456-1.12-1.92-.448-3.445-.939-4.576-1.472-1.11-.555-1.92-1.237-2.432-2.048-.49-.81-.736-1.835-.736-3.072 0-1.323.33-2.485.992-3.488.661-1.024 1.6-1.813 2.816-2.368 1.237-.576 2.699-.864 4.384-.864 2.624 0 4.693.693 6.208 2.08 1.536 1.365 2.432 3.19 2.688 5.472l-4.192.192c-.15-1.28-.64-2.293-1.472-3.04-.81-.747-1.91-1.12-3.296-1.12-1.195 0-2.144.277-2.848.832-.704.533-1.056 1.248-1.056 2.144 0 .64.15 1.152.448 1.536.299.384.8.725 1.504 1.024.725.299 1.781.608 3.168.928 2.965.64 5.067 1.515 6.304 2.624 1.237 1.11 1.856 2.55 1.856 4.32 0 1.365-.352 2.56-1.056 3.584-.704 1.024-1.696 1.813-2.976 2.368-1.28.533-2.773.8-4.48.8Zm11.694 1.12h2.176c.555 0 .96-.085 1.216-.256.278-.17.502-.459.672-.864l.448-1.184H82.19l-6.08-16.416h4.224l4.32 12.576 4.064-12.576h4.256l-6.688 18.88c-.362 1.067-.896 1.835-1.6 2.304-.704.47-1.674.704-2.912.704h-2.912v-3.168Zm15.534-18.72h3.712l.096 2.944c.427-1.13 1.088-1.963 1.984-2.496.896-.555 1.942-.832 3.136-.832 1.856 0 3.286.597 4.288 1.792 1.024 1.173 1.536 2.741 1.536 4.704V34h-4.096v-9.664c0-1.493-.234-2.613-.704-3.36-.448-.747-1.205-1.12-2.272-1.12-1.109 0-1.984.395-2.624 1.184-.64.768-.96 1.867-.96 3.296V34h-4.096V16.912Zm24.801 17.472c-1.686 0-3.168-.363-4.448-1.088-1.259-.747-2.24-1.792-2.944-3.136-.683-1.344-1.024-2.912-1.024-4.704 0-1.77.341-3.328 1.024-4.672.704-1.365 1.685-2.41 2.944-3.136 1.28-.747 2.762-1.12 4.448-1.12 2.197 0 4.01.576 5.44 1.728 1.429 1.13 2.272 2.699 2.528 4.704l-4.224.224c-.15-1.067-.566-1.888-1.248-2.464-.662-.576-1.494-.864-2.496-.864-1.323 0-2.347.49-3.072 1.472-.726.981-1.088 2.357-1.088 4.128 0 1.77.362 3.147 1.088 4.128.725.981 1.749 1.472 3.072 1.472 1.024 0 1.866-.299 2.528-.896.661-.597 1.066-1.483 1.216-2.656l4.224.192c-.235 2.048-1.078 3.68-2.528 4.896-1.43 1.195-3.243 1.792-5.44 1.792Zm9.551-23.104h5.6l6.272 17.6 6.272-17.6h5.6V34h-4.16V18.32l-5.728 15.648h-3.968l-5.728-15.648V34h-4.16V11.28Zm32.079 23.104c-1.814 0-3.264-.405-4.352-1.216-1.067-.832-1.6-1.984-1.6-3.456 0-1.45.448-2.592 1.344-3.424.917-.853 2.325-1.461 4.224-1.824l5.664-1.12c0-1.195-.278-2.101-.832-2.72-.555-.619-1.366-.928-2.432-.928-1.942 0-3.104.885-3.488 2.656l-4.192-.192c.341-1.792 1.173-3.179 2.496-4.16 1.322-.981 3.05-1.472 5.184-1.472 2.41 0 4.234.619 5.472 1.856 1.258 1.216 1.888 2.965 1.888 5.248v6.208c0 .448.074.757.224.928.149.17.394.256.736.256h.544V34c-.342.085-.832.128-1.472.128-1.003 0-1.814-.213-2.432-.64-.598-.427-.982-1.141-1.152-2.144-.427.917-1.163 1.653-2.208 2.208-1.024.555-2.23.832-3.616.832Zm.832-2.976c1.344 0 2.421-.395 3.232-1.184.81-.79 1.216-1.835 1.216-3.136v-.96l-4.416.896c-.896.17-1.547.448-1.952.832-.406.384-.608.875-.608 1.472 0 .661.213 1.173.64 1.536.448.363 1.077.544 1.888.544Zm18.559 2.976c-2.454 0-4.363-.523-5.728-1.568-1.366-1.045-2.112-2.443-2.24-4.192l4.192-.192c.149.917.522 1.621 1.12 2.112.618.47 1.504.704 2.656.704 2.048 0 3.072-.64 3.072-1.92 0-.405-.096-.736-.288-.992-.192-.256-.555-.48-1.088-.672-.534-.192-1.323-.373-2.368-.544-1.75-.299-3.126-.661-4.128-1.088-.982-.448-1.686-.992-2.112-1.632-.427-.661-.64-1.493-.64-2.496 0-1.621.629-2.923 1.888-3.904 1.258-.981 3.04-1.472 5.344-1.472 2.218 0 3.946.523 5.184 1.568 1.258 1.045 2.016 2.443 2.272 4.192l-4.16.192c-.15-.875-.512-1.557-1.088-2.048-.576-.512-1.323-.768-2.24-.768-.96 0-1.696.192-2.208.576-.491.384-.736.896-.736 1.536 0 .683.256 1.195.768 1.536.512.32 1.418.587 2.72.8 1.792.277 3.2.64 4.224 1.088 1.045.427 1.792.97 2.24 1.632.448.64.672 1.45.672 2.432 0 1.621-.672 2.88-2.016 3.776-1.323.896-3.094 1.344-5.312 1.344ZM195.557 34c-1.707 0-2.966-.395-3.776-1.184-.79-.79-1.184-2.027-1.184-3.712V20.08h-2.688v-3.168h2.688v-4h4.096v4h4.512v3.168h-4.512v8.64c0 .79.16 1.344.48 1.664.341.299.885.448 1.632.448h2.4V34h-3.648Zm12.452.384c-1.686 0-3.168-.363-4.448-1.088-1.259-.747-2.23-1.792-2.912-3.136-.683-1.344-1.024-2.912-1.024-4.704 0-1.77.341-3.328 1.024-4.672.682-1.365 1.642-2.41 2.88-3.136 1.258-.747 2.72-1.12 4.384-1.12 1.621 0 3.04.363 4.256 1.088 1.237.725 2.186 1.781 2.848 3.168.682 1.365 1.024 2.997 1.024 4.896v.928h-12.16c.085 1.472.49 2.592 1.216 3.36.725.768 1.706 1.152 2.944 1.152.896 0 1.653-.203 2.272-.608a3.263 3.263 0 0 0 1.28-1.76l4.192.256c-.47 1.664-1.398 2.976-2.784 3.936-1.366.96-3.03 1.44-4.992 1.44Zm3.776-10.528c-.086-1.365-.47-2.39-1.152-3.072-.683-.683-1.59-1.024-2.72-1.024-1.11 0-2.027.352-2.752 1.056-.704.704-1.131 1.717-1.28 3.04h7.904Zm6.049-6.944h3.84l.096 3.296c.341-1.13.842-1.963 1.504-2.496.682-.533 1.546-.8 2.592-.8h1.568v3.52h-1.6c-1.323 0-2.304.299-2.944.896-.64.576-.96 1.515-.96 2.816V34h-4.096V16.912Z"/><defs><clipPath id="a"><path fill="#fff" d="M0 2.5h40v40H0z"/></clipPath></defs></svg>