<svg xmlns="http://www.w3.org/2000/svg" width="88" height="88" fill="none"><path fill="#6938EF" fill-rule="evenodd" d="M44.333 60.623c9.18 0 16.623-7.442 16.623-16.623 0-9.18-7.442-16.622-16.623-16.622-9.18 0-16.622 7.442-16.622 16.622s7.442 16.623 16.622 16.623m0 12.71c16.2 0 29.334-13.132 29.334-29.333 0-16.2-13.133-29.333-29.334-29.333C28.133 14.667 15 27.8 15 44s13.133 29.334 29.333 29.334Z" clip-rule="evenodd"/><path fill="#F670C7" d="M44.668 44.642a7.82 7.82 0 0 1 11.062 0l15.211 15.211a7.822 7.822 0 1 1-11.062 11.062l-15.21-15.21a7.82 7.82 0 0 1 0-11.063Z"/><path fill="#6519BA" d="m48.941 59.976 9.66 9.66A29.5 29.5 0 0 0 69.75 58.658l-9.582-9.58a16.66 16.66 0 0 1-11.226 10.898Z"/></svg>