<svg xmlns="http://www.w3.org/2000/svg" width="88" height="88" fill="none"><path fill="#155EEF" fill-rule="evenodd" d="M44.333 73.334c16.2 0 29.334-13.133 29.334-29.334 0-16.2-13.133-29.333-29.334-29.333C28.133 14.667 15 27.8 15 44s13.133 29.334 29.333 29.334m9.151-45.002c.446-1.582-1.09-2.518-2.492-1.52L31.417 40.759C29.896 41.842 30.135 44 31.776 44h5.155v-.04h10.046l-8.186 2.889-3.609 12.82c-.445 1.582 1.09 2.518 2.493 1.519L57.25 47.242C58.77 46.16 58.532 44 56.89 44h-7.816z" clip-rule="evenodd"/></svg>