<svg xmlns="http://www.w3.org/2000/svg" width="88" height="88" fill="none"><path fill="#087443" d="M34.704 37.933c7.681-3.673 13.693-9.907 17.144-17.7-2.227-2.338-5.121-4.008-8.238-5.01l-1.67-.556c-.111.223-.223.557-.223.78-2.672 7.57-8.126 13.692-15.473 17.143-5.121 2.449-8.906 6.902-10.687 12.245L15 46.505c.223.111.557.223.78.223 2.114.779 4.23 1.78 6.233 3.005 2.783-5.01 7.236-9.24 12.691-11.8"/><path fill="#16B364" d="M66.987 38.379c-4.12 6.234-9.797 11.243-16.81 14.583-5.677 2.672-10.019 7.681-12.023 13.693l-.556 1.892c2.115 1.893 4.675 3.34 7.458 4.23l1.67.557c.111-.223.223-.557.223-.78 2.671-7.57 8.126-13.692 15.473-17.143 5.121-2.449 9.017-6.902 10.687-12.245l.557-1.67c-2.338-.668-4.564-1.781-6.68-3.117Z"/><path fill="#099250" d="M33.144 62.758c2.783-6.68 7.904-12.134 14.472-15.251 6.011-2.895 11.02-7.348 14.472-12.802-2.56-2.45-4.676-5.232-6.234-8.572-4.12 7.57-10.576 13.692-18.48 17.477-4.564 2.115-8.237 5.79-10.464 10.242 2.45 2.338 4.453 5.232 6.012 8.46z"/></svg>