<svg xmlns="http://www.w3.org/2000/svg" width="135" height="32" fill="none"><path fill="#101828" fill-rule="evenodd" d="M0 16c9.322 0 14.667-5.345 14.667-14.667C14.667 10.655 20.01 16 29.333 16c-9.322 0-14.666 5.344-14.666 14.666C14.667 21.344 9.322 16 0 16" clip-rule="evenodd"/><path fill="#101828" d="m35.129 22.606 5.12-14h2.88l5.12 14h-2.72l-1.12-3.24h-5.46l-1.14 3.24zm4.52-5.24h4.06l-2.04-5.82zm13.735 5.48q-1.52 0-2.68-.66a4.9 4.9 0 0 1-1.84-1.84q-.66-1.18-.66-2.7t.66-2.7a4.9 4.9 0 0 1 1.84-1.84q1.16-.66 2.68-.66 1.9 0 3.2 1 1.3.98 1.66 2.72h-2.7a1.92 1.92 0 0 0-.8-1.12q-.58-.42-1.38-.42-1.06 0-1.8.8-.74.801-.74 2.22t.74 2.22 1.8.8q.8 0 1.38-.4.6-.399.8-1.14h2.7q-.36 1.68-1.66 2.7t-3.2 1.02m6.132-.24v-9.92h2.26l.22 1.34q.48-.72 1.26-1.14.8-.44 1.84-.44 2.3 0 3.26 1.78.54-.82 1.44-1.3.92-.48 2-.48 1.94 0 2.98 1.16t1.04 3.4v5.6h-2.56v-5.36q0-1.28-.5-1.96-.48-.68-1.5-.68-1.041 0-1.68.76-.62.76-.62 2.12v5.12h-2.56v-5.36q0-1.28-.5-1.96t-1.54-.68q-1.02 0-1.66.76-.62.76-.62 2.12v5.12zm22.55.24q-1.5 0-2.66-.64a4.63 4.63 0 0 1-1.82-1.8q-.66-1.16-.66-2.68 0-1.54.64-2.74a4.74 4.74 0 0 1 1.8-1.86q1.16-.68 2.72-.68 1.461 0 2.58.64a4.5 4.5 0 0 1 1.74 1.76q.64 1.1.64 2.46 0 .22-.02.46 0 .24-.02.5h-7.54q.08 1.16.8 1.82.74.66 1.78.66.78 0 1.3-.34.54-.36.8-.92h2.6q-.28.94-.94 1.72a4.5 4.5 0 0 1-1.6 1.2q-.94.44-2.14.44m.02-8.32q-.94 0-1.66.54-.72.52-.92 1.6h4.94q-.06-.98-.72-1.56t-1.64-.58m16.279 8.32q-2.12 0-3.64-.9a6.15 6.15 0 0 1-2.34-2.54q-.82-1.64-.82-3.78t.82-3.78a6.14 6.14 0 0 1 2.34-2.56q1.52-.92 3.64-.92 2.52 0 4.12 1.26 1.62 1.24 2.02 3.5h-2.82q-.26-1.14-1.12-1.78-.84-.66-2.24-.66-1.94 0-3.04 1.32t-1.1 3.62 1.1 3.62q1.1 1.3 3.04 1.3 1.4 0 2.24-.6.86-.62 1.12-1.7h2.82q-.4 2.16-2.02 3.38-1.6 1.22-4.12 1.22m12.106 0q-1.44 0-2.6-.66a4.96 4.96 0 0 1-1.82-1.82q-.66-1.18-.66-2.72t.68-2.7a4.9 4.9 0 0 1 1.82-1.84q1.16-.66 2.6-.66 1.42 0 2.56.66a4.74 4.74 0 0 1 1.82 1.84q.68 1.16.68 2.7t-.68 2.72a4.8 4.8 0 0 1-1.82 1.82q-1.16.66-2.58.66m0-2.22q1 0 1.74-.74.74-.76.74-2.24t-.74-2.22q-.74-.76-1.72-.76-1.02 0-1.76.76-.72.74-.72 2.22t.72 2.24q.74.74 1.74.74m6.369 1.98v-9.92h2.28l.24 1.86a4.1 4.1 0 0 1 1.46-1.52q.94-.58 2.2-.58v2.7h-.72q-.84 0-1.5.26t-1.04.9q-.36.64-.36 1.78v4.52zm6.93 4.4v-14.32h2.28l.28 1.42q.48-.66 1.26-1.16.8-.5 2.06-.5 1.4 0 2.5.68a4.9 4.9 0 0 1 1.74 1.86q.64 1.18.64 2.68t-.64 2.68a4.9 4.9 0 0 1-1.74 1.84q-1.1.66-2.5.66-1.12 0-1.96-.42a3.5 3.5 0 0 1-1.36-1.18v5.76zm5.34-6.4q1.22 0 2.02-.82t.8-2.12-.8-2.14-2.02-.84q-1.24 0-2.04.84-.78.82-.78 2.12t.78 2.14q.8.82 2.04.82"/></svg>