<svg xmlns="http://www.w3.org/2000/svg" width="184" height="74" fill="none"><path fill="#0A0915" d="M35.357 18.667H21.31L10 29.977v14.047l11.31 11.31h14.047l11.31-11.31V29.976l-11.31-11.309ZM23.253 44.201l-7.245-7.245 7.245-7.245c2.739-2.739 7.245-2.739 9.984 0l7.245 7.245-7.245 7.245c-2.739 2.74-7.157 2.74-9.984 0Zm39.531 1.333c2.25 0 4.1-1.15 4.675-2.875v2.675h3.325v-6.75c0-1.525-1.2-2.825-2.825-2.825h-4.75v2.825h3.375c.425 0 .7.275.7.7 0 1.625-2.15 3.2-4.325 3.2-2.9 0-5.2-2.275-5.2-5.9 0-3.625 2.3-5.725 5.275-5.725 2.25 0 3.8 1.225 4.075 3.1h3.725c-.225-3.75-3.375-6.325-7.775-6.325-4.625 0-8.875 2.975-8.875 8.95s4.125 8.95 8.6 8.95Zm9.426-.2h3.476V27.259H72.21v18.075Zm10.972.2c3.875 0 6.65-2.75 6.65-6.5s-2.775-6.5-6.65-6.5c-3.875 0-6.65 2.75-6.65 6.5s2.775 6.5 6.65 6.5Zm0-3c-1.875 0-3.15-1.425-3.15-3.5 0-2.1 1.275-3.525 3.15-3.525s3.15 1.425 3.15 3.525c0 2.075-1.275 3.5-3.15 3.5Zm14.426 3c3.725 0 5.95-2.575 5.95-6.5s-2.225-6.5-5.9-6.5c-1.575 0-2.8.6-3.5 1.525v-6.8h-3.475v18.075h3.475v-1.375c.7.975 2 1.575 3.45 1.575Zm-.55-3c-1.875 0-3.1-1.4-3.1-3.5 0-2.125 1.225-3.525 3.1-3.525 1.825 0 3.075 1.4 3.075 3.525 0 2.1-1.25 3.5-3.075 3.5Zm12.317-10c-3.45 0-5.5 2.025-5.65 4.55h3.1c.05-1.05.825-2 2.35-2 1.425 0 2.25.725 2.25 1.775 0 .525-.325.925-.95.925h-2.125c-2.75 0-4.6 1.5-4.6 3.975 0 2.15 1.675 3.775 4.125 3.775 1.725 0 3.125-.775 3.55-1.95v1.75h3.45v-8.1c0-2.85-2.325-4.7-5.5-4.7Zm-.625 10.475c-.975 0-1.675-.575-1.675-1.4 0-.975.75-1.625 1.8-1.625h2.55v.175c0 1.6-.975 2.85-2.675 2.85Zm7.46 2.325h3.475V27.259h-3.475v18.075Zm5.321 0h7.15c3.7 0 6.25-1.9 6.25-5.225 0-2.3-1.35-3.7-2.95-4.325 1.025-.55 2.05-1.8 2.05-3.45 0-2.925-2.375-4.5-5.55-4.5h-6.95v17.5Zm3.7-10.825v-3.7h2.9c1.675 0 2.425.675 2.425 1.85s-.75 1.85-2.35 1.85h-2.975Zm0 7.575v-4.4h3.125c2.075 0 3 .8 3 2.225s-.925 2.175-3 2.175h-3.125Zm15.745-9.55c-3.45 0-5.5 2.025-5.65 4.55h3.1c.05-1.05.825-2 2.35-2 1.425 0 2.25.725 2.25 1.775 0 .525-.325.925-.95.925h-2.125c-2.75 0-4.6 1.5-4.6 3.975 0 2.15 1.675 3.775 4.125 3.775 1.725 0 3.125-.775 3.55-1.95v1.75h3.45v-8.1c0-2.85-2.325-4.7-5.5-4.7Zm-.625 10.475c-.975 0-1.675-.575-1.675-1.4 0-.975.75-1.625 1.8-1.625h2.55v.175c0 1.6-.975 2.85-2.675 2.85Zm7.261 2.325h3.5v-6.9c0-1.625 1.075-2.8 2.6-2.8 1.45 0 2.425 1.1 2.425 2.625v7.075h3.5v-7.85c0-2.9-1.85-4.95-4.7-4.95-1.725 0-3.125.725-3.825 1.95v-1.75h-3.5v12.6Zm22 0h4.2l-5.425-7.65 5.025-4.95h-4.4l-4.375 4.3v-9.775h-3.5v18.075h3.5v-3.95l1.4-1.375 3.575 5.325Z"/></svg>