<svg xmlns="http://www.w3.org/2000/svg" width="126" height="32" fill="none"><path fill="#5720B7" d="M14.387 2.667C11.96 2.667 10 4.603 10 7c0 2.38 1.96 4.315 4.368 4.334a1.09 1.09 0 0 1-1.064-1.088c0-.59.485-1.088 1.101-1.088h10.976c1.811 0 3.286-1.457 3.286-3.246s-1.475-3.245-3.286-3.245z"/><path fill="#6927DA" d="M9.055 11.333c-2.427 0-4.387 1.936-4.387 4.333 0 2.38 1.96 4.315 4.368 4.334a1.09 1.09 0 0 1-1.064-1.088c0-.59.485-1.088 1.101-1.088H20.05c1.811 0 3.286-1.457 3.286-3.246s-1.475-3.245-3.286-3.245z"/><path fill="#7839EE" d="M5.368 20c-2.6 0-4.7 2.085-4.7 4.667 0 2.561 2.1 4.646 4.68 4.666a1.17 1.17 0 0 1-1.14-1.171c0-.636.52-1.172 1.18-1.172h11.76c1.94 0 3.52-1.569 3.52-3.495S19.088 20 17.148 20z"/><path fill="#101828" d="M35.32 22.606v-14h9v2.4h-6.36v3.34h5.8v2.4h-5.8v3.46h6.48v2.4zm10.154 4v-13.92h2.48v1.2h.36q.34-.579 1.06-1.02.72-.46 2.06-.46 1.2 0 2.22.6 1.02.58 1.64 1.72t.62 2.76v.32q0 1.62-.62 2.76t-1.64 1.74q-1.02.58-2.22.58-.9 0-1.52-.22-.6-.2-.98-.52a3.8 3.8 0 0 1-.58-.68h-.36v5.14zm5.2-5.92q1.18 0 1.94-.74.78-.76.78-2.2v-.2q0-1.44-.78-2.18-.78-.76-1.94-.76t-1.94.76q-.78.74-.78 2.18v.2q0 1.44.78 2.2.78.74 1.94.74m6.554 1.92v-9.92h2.52v9.92zm1.26-11.08q-.68 0-1.16-.44-.46-.44-.46-1.16t.46-1.16q.48-.44 1.16-.44.7 0 1.16.44t.46 1.16-.46 1.16-1.16.44m7.712 11.36q-1.439 0-2.62-.6a4.53 4.53 0 0 1-1.84-1.74q-.679-1.14-.68-2.76v-.28q.001-1.62.68-2.76a4.53 4.53 0 0 1 1.84-1.74q1.181-.6 2.62-.6 1.421 0 2.44.5 1.021.5 1.64 1.38a4.6 4.6 0 0 1 .84 1.96l-2.44.52q-.078-.6-.36-1.08a2 2 0 0 0-.8-.76q-.498-.28-1.26-.28-.759 0-1.38.34-.6.32-.96.98-.34.64-.34 1.58v.2q0 .94.34 1.6.36.64.96.98.621.32 1.38.32 1.14 0 1.72-.58.6-.6.76-1.56l2.44.58a5.5 5.5 0 0 1-.9 1.94 4.3 4.3 0 0 1-1.64 1.36q-1.019.5-2.44.5m9.84-.12q-1.161 0-2.04-.52a3.7 3.7 0 0 1-1.34-1.48q-.48-.939-.48-2.16v-5.92h2.52v5.72q0 1.12.54 1.68.56.56 1.58.56 1.16 0 1.8-.76.64-.78.64-2.16v-5.04h2.52v9.92H79.3v-1.3h-.36q-.24.5-.9.98t-2 .48m7.544-.16v-9.92h2.48v1.12h.36q.22-.6.72-.88a2.5 2.5 0 0 1 1.2-.28h1.2v2.24h-1.24q-.96 0-1.58.52-.62.5-.62 1.56v5.64zm6.93 0v-9.92h2.52v9.92zm1.26-11.08q-.68 0-1.16-.44-.46-.44-.46-1.16t.46-1.16q.48-.44 1.16-.44.7 0 1.16.44t.46 1.16-.46 1.16-1.16.44m7.772 11.36q-1.48 0-2.66-.6a4.5 4.5 0 0 1-1.86-1.74q-.68-1.14-.68-2.74v-.32q0-1.6.68-2.74a4.5 4.5 0 0 1 1.86-1.74q1.18-.6 2.66-.6t2.66.6 1.86 1.74.68 2.74v.32q0 1.6-.68 2.74a4.5 4.5 0 0 1-1.86 1.74q-1.18.6-2.66.6m0-2.24q1.16 0 1.92-.74.76-.759.76-2.16v-.2q0-1.4-.76-2.14-.74-.76-1.92-.76-1.16 0-1.92.76-.76.74-.76 2.14v.2q0 1.401.76 2.16.76.74 1.92.74m10.306 2.12q-1.16 0-2.04-.52a3.7 3.7 0 0 1-1.34-1.48q-.48-.939-.48-2.16v-5.92h2.52v5.72q0 1.12.54 1.68.56.56 1.58.56 1.161 0 1.8-.76.64-.78.64-2.16v-5.04h2.52v9.92h-2.48v-1.3h-.36q-.24.5-.9.98t-2 .48m11.664.12q-1.94 0-3.18-.84-1.239-.84-1.5-2.4l2.32-.6q.14.7.46 1.1.34.4.82.58.501.16 1.08.16.88 0 1.3-.3.42-.32.42-.78a.77.77 0 0 0-.4-.7q-.4-.26-1.28-.42l-.56-.1a10.7 10.7 0 0 1-1.9-.54q-.86-.36-1.38-.98t-.52-1.6q0-1.48 1.08-2.26 1.08-.8 2.84-.8 1.66 0 2.76.74 1.101.74 1.44 1.94l-2.34.72q-.159-.759-.66-1.08-.48-.32-1.2-.32c-.72 0-.846.087-1.1.26a.76.76 0 0 0-.38.68q0 .48.4.72.4.22 1.08.34l.56.1q1.12.201 2.02.54.921.32 1.44.94.54.6.54 1.64 0 1.56-1.14 2.42-1.12.84-3.02.84"/></svg>