<svg xmlns="http://www.w3.org/2000/svg" width="88" height="88" fill="none"><path fill="#fff" d="M63.174 44c-4.74 5.296-11.627 8.628-19.292 8.628s-14.553-3.332-19.292-8.627c4.74-5.296 11.626-8.628 19.292-8.628 7.665 0 14.553 3.332 19.292 8.628Z"/><path fill="#7CD4FD" fill-rule="evenodd" d="M18 61.255c0-14.294 11.588-25.882 25.882-25.882-7.665 0-14.552 3.332-19.291 8.628 4.739 5.295 11.626 8.627 19.291 8.627s14.553-3.332 19.292-8.627a25.8 25.8 0 0 1 6.59 17.254v9.778a2.3 2.3 0 0 1-2.3 2.3H20.301a2.3 2.3 0 0 1-2.301-2.3zM63.174 44" clip-rule="evenodd"/><path fill="#0BA5EC" fill-rule="evenodd" d="M34.174 50.745A25.94 25.94 0 0 1 24.59 44c4.74-5.295 11.627-8.627 19.293-8.627S58.435 38.705 63.174 44a25.8 25.8 0 0 0 6.59-17.255v-9.777a2.3 2.3 0 0 0-2.3-2.301H20.301a2.3 2.3 0 0 0-2.301 2.3v9.778c0 10.862 6.69 20.16 16.174 24" clip-rule="evenodd"/></svg>