<svg xmlns="http://www.w3.org/2000/svg" width="88" height="88" fill="none"><path fill="#101828" fill-rule="evenodd" d="M45.354 16.598a5.1 5.1 0 0 0-2.041 0c-.779.16-1.474.55-2.028.86l-.15.084-18.746 10.414-.16.089c-.586.322-1.322.728-1.887 1.341a5.1 5.1 0 0 0-1.085 1.844c-.262.792-.259 1.633-.257 2.301V54.46c-.002.669-.005 1.509.257 2.301a5.1 5.1 0 0 0 1.085 1.844c.565.614 1.301 1.02 1.887 1.342l.16.088 18.746 10.414.15.085c.554.31 1.25.7 2.028.86a5.1 5.1 0 0 0 2.041 0c.778-.16 1.474-.55 2.027-.86l.151-.085 18.746-10.414.07-.039.09-.05c.585-.322 1.322-.727 1.887-1.34a5.1 5.1 0 0 0 1.085-1.845c.262-.792.259-1.632.256-2.3V33.53c.003-.668.006-1.509-.256-2.301a5.1 5.1 0 0 0-1.085-1.844c-.565-.613-1.302-1.019-1.887-1.341l-.002-.002-.158-.087-18.746-10.414-.15-.084c-.554-.31-1.25-.7-2.028-.86Zm-1.759 5.373c.384-.214.58-.321.726-.392l.012-.006.012.006c.147.07.343.178.727.392l16.844 9.358-17.583 9.768-17.582-9.768zM24.067 35.634 41.8 45.486v19.536l-16.95-9.417a17 17 0 0 1-.758-.434l-.012-.008-.001-.014c-.01-.172-.012-.41-.012-.873z" clip-rule="evenodd"/></svg>