<svg xmlns="http://www.w3.org/2000/svg" width="88" height="88" fill="none"><g fill="#FF4405" clip-path="url(#a)"><path d="m51.358 17.496-5.628-1.508-4.742 17.7-4.282-15.98-5.628 1.509 4.626 17.264-11.522-11.523-4.12 4.12L32.7 41.718 16.96 37.5l-1.508 5.627 17.198 4.608a11.691 11.691 0 0 1-.302-2.643c0-6.435 5.218-11.652 11.653-11.652 6.436 0 11.653 5.217 11.653 11.652 0 .904-.103 1.783-.298 2.627l15.63 4.188 1.508-5.628-17.266-4.626 15.74-4.218-1.508-5.628-17.265 4.627L63.72 24.91l-4.12-4.12-12.464 12.464 4.223-15.759Z"/><path d="M55.34 47.785a11.63 11.63 0 0 1-2.898 5.34l11.323 11.323 4.12-4.12L55.34 47.785Zm-3.012 5.459a11.644 11.644 0 0 1-5.207 3.078L51.24 71.7l5.628-1.508-4.541-16.947Zm-5.418 3.135a11.67 11.67 0 0 1-2.909.366c-1.076 0-2.118-.146-3.108-.42l-4.124 15.391 5.628 1.508 4.514-16.845Zm-6.216-.11a11.65 11.65 0 0 1-5.116-3.124l-11.35 11.35 4.12 4.12L40.694 56.27Zm-5.209-3.225a11.627 11.627 0 0 1-2.826-5.274l-15.68 4.201 1.508 5.628 16.998-4.554Z"/></g><defs><clipPath id="a"><path fill="#fff" d="M15 14.667h58.667v58.667H15z"/></clipPath></defs></svg>