<svg xmlns="http://www.w3.org/2000/svg" width="88" height="88" fill="none"><path fill="#5720B7" d="M43.773 17.334c-4.853 0-8.773 3.872-8.773 8.667 0 4.757 3.92 8.63 8.736 8.666a2.177 2.177 0 0 1-2.128-2.176c0-1.18.97-2.175 2.203-2.175h21.952c3.621 0 6.57-2.914 6.57-6.491 0-3.578-2.949-6.491-6.57-6.491z"/><path fill="#6927DA" d="M33.105 34.667c-4.853 0-8.773 3.872-8.773 8.667 0 4.757 3.92 8.63 8.736 8.666a2.177 2.177 0 0 1-2.128-2.176c0-1.18.97-2.175 2.203-2.175h21.952c3.621 0 6.57-2.914 6.57-6.491 0-3.578-2.949-6.491-6.57-6.491z"/><path fill="#7839EE" d="M25.732 52c-5.2 0-9.4 4.17-9.4 9.333 0 5.124 4.2 9.294 9.36 9.334a2.34 2.34 0 0 1-2.28-2.344c0-1.27 1.04-2.343 2.36-2.343h23.52c3.88 0 7.04-3.137 7.04-6.99 0-3.852-3.16-6.99-7.04-6.99z"/></svg>