<svg xmlns="http://www.w3.org/2000/svg" width="88" height="88" fill="none"><path fill="#155EEF" d="M49.398 59.716c-4.667-1.733-9.467-2-13.867-.8-3.066.8-6 2.4-8.666 4.4l-1.867 1.6-.533.534 1.2 1.066c.133 0 .133.134.267.267.266.267.533.4.933.667l.8.533.8-.667c.133-.133.4-.4.666-.533 2.4-2 5.067-3.333 7.867-4 3.6-.933 7.467-.8 11.334.667 3.2 1.2 9.733 2.666 17.6-.667l.266-.133.4-.4c0-.134.133-.134.267-.267.666-.8 1.333-1.6 1.867-2.533l2.666-4.134-4.266 2.4c-6.267 3.467-12 4.134-17.734 2M31.135 45.317c3.6-.934 7.466-.8 11.333.666 4.267 1.6 15.2 3.867 27.467-7.2l2-2 .133-.133.533-.533-.266-.667c-.134-.533-.4-1.2-.667-1.867l-.667-1.866-1.333 1.333c-.133.267-.4.4-.667.667-5.866 6-14.933 12.133-25.333 8.4-4.667-1.733-9.467-2-13.867-.8-4.266 1.2-8 3.466-11.466 6.666v-.133l-2 2.133c0 .134-.134.134-.267.267l-.4.4.133.534c.134.666.4 1.333.534 2l.8 2.133 1.333-1.733c.133-.267.4-.4.533-.667 2.8-2.534 6.667-6.134 12.134-7.6"/><path fill="#155EEF" d="M18.2 42.916c3.067-3.2 6.533-5.2 10.267-6.266 3.6-.933 7.466-.8 11.333.666 12 4.4 22.4-2.8 26.933-6.666l1.734-1.733.666-.534-.533-.8c-.4-.4-.667-.933-1.067-1.466l-.8-1.067-.933.933-.533.534c-5.6 5.333-14.267 10.8-24.134 7.066-4.666-1.733-9.466-2-13.866-.8-2.8.8-5.467 2.133-8.134 3.867l-2.8 2.267-.666.666-.267.267v.4c-.133.933-.133 1.867-.267 2.666L15 46.25l2.267-2.4c.266-.267.533-.667.933-.934m35.069 25.867-.267.8zc-.4-.133-.667-.267-1.067-.4-4.667-1.733-9.467-2-13.867-.8-.933.267-1.867.533-2.8.933l-3.2 1.467-.8.4 2.667.933 2.4.8.4.134.4-.134c.4-.133.8-.4 1.2-.4.267 0 .533-.133.8-.266 3.2-.8 6.666-.8 10.4.4.4.133.666.266 1.066.4l.667.266.4-.133c.933-.267 2-.533 2.8-.933l3.733-1.334-3.866-.933c-.4-.133-.933-.267-1.333-.4m20.396-27.599-2 2-.8.8c-5.467 5.2-14.267 10.8-24.133 7.066-4.667-1.733-9.467-2-13.867-.8-4.133 1.2-7.867 3.334-11.2 6.534l-1.733 1.866-.534.667.534.8c.4.533.666.933.933 1.467l.8 1.2.933-1.2.534-.534c3.2-3.466 6.666-5.6 10.666-6.666 3.6-.934 7.467-.8 11.334.666 3.333 1.2 6.8 1.6 10.266 1.2 6.134-.666 12.267-4.133 16.8-8 .267-.266.534-.4.8-.666l.4-.4v-.4c0-.8.134-1.734.134-2.534z"/><path fill="#155EEF" d="m22.999 28.917-.4-.8zc.8-.4 1.733-.667 2.533-.934 3.6-.933 7.467-.8 11.334.667 2.533.934 5.066 1.334 7.866 1.334 5.6 0 11.2-2 16.4-5.867l2-1.6.667-.534-1.2-.933c-.4-.4-.933-.8-1.467-1.067l-.8-.533-.666.534c-.267.133-.4.4-.667.533-7.067 5.333-14.133 6.8-20.8 4.267-4.8-1.734-9.6-2.134-14.4-.667-.4.133-.8.267-1.333.4l-.267.133-.4.4c0 .133-.133.133-.267.267-.533.8-1.2 1.466-1.733 2.267l-2.533 3.866 4.133-2.133c.667 0 1.2-.267 1.6-.4m10.936-9.067.4.134c1.733.667 4.4 1.333 7.733 1.333 3.467 0 6.8-.8 10.133-2.133l4.134-2-2.8-.933c-.8-.267-1.6-.534-2.534-.667h-.4l-.4.133c-.4.134-.8.4-1.2.534-4 1.466-8 1.733-11.866.666l-1.2-.4-.4-.133-.4.133c-.8.267-1.6.534-2.4.934l-3.067 1.333 3.2.933c.267-.133.667 0 1.067.134Z"/></svg>