<svg xmlns="http://www.w3.org/2000/svg" width="109" height="32" fill="none"><circle cx="10.835" cy="12" r="9.333" stroke="#7839EE" stroke-width="2.667"/><circle cx="16.167" cy="20" r="9.333" stroke="#7839EE" stroke-width="2.667"/><path fill="#101828" d="M34.8 22.605h3.02v-14H34.8zm4.346 0h2.8v-5.52c0-1.3.86-2.24 2.08-2.24 1.16 0 1.94.88 1.94 2.1v5.66h2.8v-6.28c0-2.32-1.48-3.96-3.76-3.96-1.38 0-2.5.58-3.06 1.56v-1.4h-2.8zM50.793 9.546v2.98h-1.94v2.32h1.94v4.1c0 2.34 1.5 3.66 3.82 3.66h1.66v-2.34h-1.28c-.9 0-1.42-.46-1.42-1.44v-3.98h2.7v-2.32h-2.7v-2.98z"/><path fill="#101828" d="M63.339 19.186c-.22.86-.96 1.3-2.08 1.3-1.4 0-2.3-.88-2.5-2.3h7.24c.02-.22.04-.52.04-.9 0-2.3-1.42-4.92-4.98-4.92-3.42 0-4.98 2.62-4.98 5.18 0 2.54 1.76 5.22 5.18 5.22 2.48 0 4.4-1.4 4.8-3.58zm-2.28-4.78c1.34 0 2.12.9 2.2 2.02h-4.46c.24-1.4 1-2.02 2.26-2.02m11.976.439v-2.32h-1.14c-1.22 0-1.98.42-2.52 1.68v-1.68h-2.8v10.08h2.8v-4.9c0-1.72.62-2.86 2-2.86zm.455 7.76h2.78V8.145h-2.78zm8.776.16c3.1 0 5.32-2.2 5.32-5.2s-2.22-5.2-5.32-5.2-5.32 2.2-5.32 5.2 2.22 5.2 5.32 5.2m0-2.4c-1.5 0-2.52-1.14-2.52-2.8 0-1.68 1.02-2.82 2.52-2.82s2.52 1.14 2.52 2.82c0 1.66-1.02 2.8-2.52 2.8m10.521 2.4c2.62 0 4.7-1.68 5-3.92h-2.84c-.2.9-1.02 1.52-2.04 1.52-1.52 0-2.42-1.16-2.42-2.8s.88-2.82 2.38-2.82c1.02 0 1.88.66 2.04 1.56h2.8c-.18-2.34-2.28-3.94-4.92-3.94-3.12 0-5.2 2.26-5.2 5.2s2.08 5.2 5.2 5.2m12.353-.16h3.36l-4.34-6.12 4.02-3.96h-3.52l-3.5 3.44v-7.82h-2.8v14.46h2.8v-3.16l1.12-1.1z"/></svg>