<svg xmlns="http://www.w3.org/2000/svg" width="139" height="41" fill="none"><path fill="#155EEF" d="M27.201 27.858c-2.333-.867-4.733-1-6.933-.4-1.534.4-3 1.2-4.334 2.2l-.933.8-.267.267.6.533c.067 0 .067.067.134.134.133.133.266.2.466.333l.4.266.4-.333c.067-.067.2-.2.334-.267 1.2-1 2.533-1.666 3.933-2 1.8-.466 3.733-.4 5.667.334 1.6.6 4.866 1.333 8.8-.334l.133-.066.2-.2c0-.067.067-.067.133-.134.334-.4.667-.8.934-1.266l1.333-2.067-2.133 1.2c-3.134 1.733-6 2.067-8.867 1m-9.136-7.2c1.8-.466 3.734-.4 5.667.334 2.133.8 7.6 1.933 13.733-3.6l1-1 .067-.067.267-.267-.134-.333c-.066-.267-.2-.6-.333-.933l-.333-.934-.667.667c-.067.133-.2.2-.333.333-2.934 3-7.467 6.067-12.667 4.2-2.333-.866-4.733-1-6.933-.4-2.134.6-4 1.734-5.734 3.334v-.067l-1 1.067c0 .066-.066.066-.133.133l-.2.2.067.267c.066.333.2.666.266 1l.4 1.066.667-.866c.067-.134.2-.2.267-.334 1.4-1.266 3.333-3.066 6.066-3.8"/><path fill="#155EEF" d="M11.6 19.458c1.533-1.6 3.267-2.6 5.133-3.134 1.8-.466 3.734-.4 5.667.334 6 2.2 11.2-1.4 13.467-3.334l.866-.866.334-.267-.267-.4c-.2-.2-.333-.467-.533-.733l-.4-.534-.467.467-.267.267c-2.8 2.666-7.133 5.4-12.066 3.533-2.334-.867-4.734-1-6.934-.4-1.4.4-2.733 1.067-4.066 1.933l-1.4 1.134-.334.333-.133.133v.2c-.067.467-.067.934-.133 1.334L10 21.124l1.133-1.2c.134-.133.267-.333.467-.466m17.532 12.933-.133.4zc-.2-.067-.333-.133-.533-.2-2.333-.867-4.733-1-6.933-.4-.467.133-.934.267-1.4.467l-1.6.733-.4.2 1.333.467 1.2.4.2.066.2-.066c.2-.067.4-.2.6-.2.133 0 .267-.067.4-.134 1.6-.4 3.333-.4 5.2.2.2.067.333.134.533.2l.334.134.2-.067c.466-.133 1-.267 1.4-.467l1.866-.666-1.933-.467c-.2-.067-.467-.133-.667-.2m10.201-13.799-1 1-.4.4c-2.734 2.6-7.134 5.4-12.067 3.533-2.333-.866-4.733-1-6.933-.4-2.067.6-3.934 1.667-5.6 3.267l-.867.933-.267.334.267.4c.2.266.333.466.467.733l.4.6.466-.6.267-.267c1.6-1.733 3.333-2.8 5.333-3.333 1.8-.467 3.733-.4 5.667.333 1.667.6 3.4.8 5.133.6 3.067-.333 6.134-2.067 8.4-4 .134-.133.267-.2.4-.333l.2-.2v-.2c0-.4.067-.867.067-1.267z"/><path fill="#155EEF" d="m14 12.459-.2-.4zc.4-.2.866-.333 1.266-.467 1.8-.466 3.734-.4 5.667.334 1.267.466 2.533.666 3.933.666 2.8 0 5.6-1 8.2-2.933l1-.8.334-.267-.6-.466c-.2-.2-.467-.4-.734-.534l-.4-.266-.333.266c-.133.067-.2.2-.333.267-3.534 2.667-7.067 3.4-10.4 2.133-2.4-.866-4.8-1.066-7.2-.333-.2.067-.4.133-.667.2l-.133.067-.2.2c0 .066-.067.066-.134.133-.267.4-.6.733-.867 1.133l-1.266 1.934 2.067-1.067c.333 0 .6-.133.8-.2m5.465-4.534.2.067c.867.333 2.2.667 3.867.667 1.733 0 3.4-.4 5.067-1.067l2.066-1-1.4-.467c-.4-.133-.8-.266-1.266-.333h-.2l-.2.067c-.2.066-.4.2-.6.266-2 .734-4 .867-5.934.334l-.6-.2-.2-.067-.2.067c-.4.133-.8.266-1.2.466l-1.533.667 1.6.467c.133-.067.333 0 .533.066"/><path fill="#101828" d="M50.853 26.606h-3.076l4.687-13.576h3.699l4.68 13.576h-3.076l-3.4-10.473h-.107zm-.192-5.336h7.265v2.24h-7.265zm14.587-8.24v13.576h-2.824V13.03zm7.677 3.394v2.122h-6.131v-2.122zm-4.74-2.439h2.825v9.492q0 .391.119.61.12.212.331.299.219.086.504.086.199 0 .398-.033.198-.04.305-.06l.444 2.101q-.212.066-.597.153-.384.094-.934.112-1.021.04-1.79-.271a2.5 2.5 0 0 1-1.187-.968q-.424-.657-.417-1.657v-9.864Zm10.3 11.885v-9.386h2.373v9.386zm-3.506-3.506V19.99h9.386v2.373h-9.386Zm19.581-5.429q-.079-.802-.683-1.246-.603-.444-1.637-.444-.702 0-1.187.198-.483.193-.742.537-.252.344-.252.782-.014.366.153.637.171.272.47.47.299.193.69.338.39.14.835.24l1.22.29a8.6 8.6 0 0 1 1.63.531q.743.332 1.286.816t.842 1.14q.304.656.312 1.504-.007 1.246-.637 2.161-.623.909-1.803 1.412-1.173.497-2.83.497-1.643 0-2.864-.503-1.213-.504-1.896-1.492-.675-.995-.71-2.46h2.778q.047.684.392 1.141.35.45.934.683.59.225 1.332.225.73 0 1.267-.212.543-.212.842-.59.297-.378.298-.868 0-.458-.272-.77-.266-.31-.782-.53a8 8 0 0 0-1.253-.397l-1.478-.371q-1.718-.418-2.711-1.306-.994-.888-.988-2.393-.006-1.233.656-2.155.67-.92 1.836-1.438c1.166-.518 1.662-.517 2.652-.517q1.511 0 2.638.517 1.134.517 1.763 1.438.63.922.65 2.135zm7.638 3.785v5.886h-2.824V13.03h2.744v5.19h.12a2.9 2.9 0 0 1 1.113-1.411q.77-.517 1.929-.517 1.06 0 1.85.464a3.1 3.1 0 0 1 1.233 1.319q.444.855.437 2.048v6.483h-2.824v-5.979q.008-.941-.477-1.465-.477-.524-1.339-.524-.576 0-1.021.246a1.74 1.74 0 0 0-.689.716q-.246.463-.252 1.12m8.825 5.886V16.424h2.823v10.182zm1.418-11.494q-.63 0-1.08-.418a1.35 1.35 0 0 1-.444-1.014q0-.584.444-1 .45-.425 1.08-.425t1.074.424q.451.417.451 1.001 0 .59-.451 1.014a1.5 1.5 0 0 1-1.074.418m10.152 1.312v2.122H115.3v-2.122zm-5.855 10.182V15.69q0-1.107.431-1.837.438-.729 1.193-1.093.756-.365 1.717-.365.65 0 1.187.1.543.1.808.178l-.503 2.122a4 4 0 0 0-.411-.1 2.6 2.6 0 0 0-.491-.046q-.623 0-.868.292-.246.285-.245.802v10.864z"/><path fill="#101828" d="M128.725 16.424v2.122h-6.132v-2.122zm-4.74-2.439h2.824v9.492q0 .391.119.61a.66.66 0 0 0 .332.299q.219.086.504.086.198 0 .397-.033l.305-.06.444 2.101a8 8 0 0 1-.596.153q-.385.094-.935.112-1.02.04-1.79-.271a2.5 2.5 0 0 1-1.186-.968q-.424-.657-.418-1.657z"/></svg>