<svg xmlns="http://www.w3.org/2000/svg" xmlns:xlink="http://www.w3.org/1999/xlink" width="1439" zoomAndPan="magnify" viewBox="0 0 1079.25 810.749971" height="1081" preserveAspectRatio="xMidYMid meet" version="1.0"><defs><clipPath id="e5297e999f"><path d="M 0 0.15625 L 1078.5 0.15625 L 1078.5 810.34375 L 0 810.34375 Z M 0 0.15625 " clip-rule="nonzero"/></clipPath><clipPath id="354c448b54"><path d="M 0 461 L 42 461 L 42 810.34375 L 0 810.34375 Z M 0 461 " clip-rule="nonzero"/></clipPath><clipPath id="97a517eecd"><path d="M 0 387 L 89 387 L 89 810.34375 L 0 810.34375 Z M 0 387 " clip-rule="nonzero"/></clipPath><clipPath id="86919af4dd"><path d="M 0 327 L 137 327 L 137 810.34375 L 0 810.34375 Z M 0 327 " clip-rule="nonzero"/></clipPath><clipPath id="1f230d2d93"><path d="M 0 272 L 185 272 L 185 810.34375 L 0 810.34375 Z M 0 272 " clip-rule="nonzero"/></clipPath><clipPath id="97ce27582c"><path d="M 0 222 L 233 222 L 233 810.34375 L 0 810.34375 Z M 0 222 " clip-rule="nonzero"/></clipPath><clipPath id="8d8d93a012"><path d="M 0 174 L 281 174 L 281 810.34375 L 0 810.34375 Z M 0 174 " clip-rule="nonzero"/></clipPath><clipPath id="bbac6e6f6e"><path d="M 0 128 L 333 128 L 333 810.34375 L 0 810.34375 Z M 0 128 " clip-rule="nonzero"/></clipPath><clipPath id="331d4e8732"><path d="M 0 84 L 399 84 L 399 810.34375 L 0 810.34375 Z M 0 84 " clip-rule="nonzero"/></clipPath><clipPath id="bbb6c5cca2"><path d="M 0 42 L 481 42 L 481 810.34375 L 0 810.34375 Z M 0 42 " clip-rule="nonzero"/></clipPath><clipPath id="f306b75a5b"><path d="M 0 0.15625 L 594.335938 0.15625 L 594.335938 810.34375 L 0 810.34375 Z M 0 0.15625 " clip-rule="nonzero"/></clipPath><clipPath id="4296f4e6d7"><path d="M 782.378906 487 L 1076 487 L 1076 810 L 782.378906 810 Z M 782.378906 487 " clip-rule="nonzero"/></clipPath></defs><g clip-path="url(#e5297e999f)"><path fill="#ffffff" d="M 0 0.15625 L 1078.5 0.15625 L 1078.5 810.34375 L 0 810.34375 Z M 0 0.15625 " fill-opacity="1" fill-rule="nonzero"/><path fill="#ffffff" d="M 0 0.15625 L 1078.5 0.15625 L 1078.5 810.34375 L 0 810.34375 Z M 0 0.15625 " fill-opacity="1" fill-rule="nonzero"/></g><g clip-path="url(#354c448b54)"><path fill="#fa26a0" d="M 0 461.421875 C 22.742188 488.710938 38.207031 523.277344 40.480469 567.851562 C 42.300781 616.519531 41.84375 662.003906 37.75 707.484375 C 33.65625 746.148438 31.839844 780.714844 34.113281 810.277344 L 29.109375 810.277344 C 26.835938 780.257812 28.65625 746.148438 32.292969 707.484375 C 36.839844 662.457031 37.296875 616.519531 35.476562 568.308594 C 33.65625 527.371094 20.011719 494.625 0 468.699219 Z M 0 461.421875 " fill-opacity="1" fill-rule="evenodd"/></g><g clip-path="url(#97a517eecd)"><path fill="#fa26a0" d="M 0 387.738281 C 7.730469 393.195312 15.464844 399.109375 22.742188 405.933594 C 52.761719 432.765625 75.957031 468.246094 81.871094 516.457031 C 88.238281 563.304688 90.511719 610.152344 85.964844 658.363281 C 81.414062 703.394531 77.777344 743.417969 79.59375 777.984375 C 80.050781 789.355469 80.960938 799.816406 82.324219 810.277344 L 77.320312 810.277344 C 75.957031 800.273438 75.046875 789.8125 75.046875 778.894531 C 72.773438 743.871094 76.410156 703.847656 80.960938 658.363281 C 85.507812 610.605469 83.234375 564.214844 77.777344 516.910156 C 71.410156 470.0625 48.667969 435.042969 19.101562 408.660156 C 13.191406 403.203125 6.824219 398.199219 0 393.652344 Z M 0 387.738281 " fill-opacity="1" fill-rule="evenodd"/></g><g clip-path="url(#86919af4dd)"><path fill="#fa26a0" d="M 0 327.246094 C 18.191406 335.433594 35.933594 345.441406 52.304688 357.71875 C 85.964844 383.191406 113.253906 417.757812 123.714844 464.605469 C 134.175781 510.542969 139.179688 558.300781 134.175781 609.242188 C 129.171875 657 124.625 699.300781 124.625 736.59375 C 123.714844 763.886719 125.078125 788.445312 130.535156 810.277344 L 125.988281 810.277344 C 120.53125 788.445312 119.167969 763.886719 119.621094 737.050781 C 119.621094 699.753906 124.167969 657 129.171875 609.242188 C 134.175781 558.757812 129.628906 511.453125 119.621094 465.515625 C 109.160156 419.578125 81.871094 385.917969 49.121094 361.359375 C 33.65625 349.53125 16.828125 340.4375 0 332.25 Z M 0 327.246094 " fill-opacity="1" fill-rule="evenodd"/></g><g clip-path="url(#1f230d2d93)"><path fill="#fa26a0" d="M 0 272.667969 C 27.746094 281.308594 55.945312 293.589844 81.871094 309.960938 C 119.167969 334.070312 151.003906 366.816406 165.558594 412.753906 C 180.570312 457.78125 187.847656 506.449219 182.386719 560.574219 C 177.382812 610.152344 171.472656 655.179688 169.652344 695.207031 C 166.46875 739.324219 167.832031 777.984375 179.660156 810.277344 L 175.109375 810.277344 C 163.285156 777.984375 161.921875 739.777344 164.648438 695.660156 C 166.46875 655.636719 172.382812 610.152344 177.382812 560.574219 C 182.84375 506.90625 175.566406 459.148438 161.464844 414.121094 C 146.910156 369.546875 115.527344 336.796875 78.6875 313.601562 C 54.125 297.683594 26.378906 286.3125 0 277.667969 Z M 0 272.667969 " fill-opacity="1" fill-rule="evenodd"/></g><g clip-path="url(#97ce27582c)"><path fill="#fa26a0" d="M 0 222.179688 C 35.933594 230.367188 75.503906 242.648438 110.980469 262.207031 C 152.367188 284.492188 188.300781 316.332031 207.402344 360.902344 C 226.507812 405.023438 236.511719 454.144531 230.601562 511.453125 C 225.140625 563.304688 217.863281 611.0625 214.226562 654.269531 C 209.222656 702.9375 207.859375 746.148438 218.773438 782.078125 C 220.59375 792.085938 222.867188 801.636719 226.050781 810.277344 L 221.046875 810.277344 C 218.320312 802.089844 216.046875 792.996094 214.679688 783.898438 C 203.308594 747.511719 204.675781 703.847656 209.675781 654.269531 C 212.863281 611.0625 220.140625 563.304688 225.597656 511.453125 C 231.507812 455.054688 221.503906 406.386719 203.308594 362.722656 C 184.660156 319.058594 149.183594 287.675781 108.25 265.84375 C 73.683594 247.195312 35.023438 234.914062 0 227.183594 Z M 0 222.179688 " fill-opacity="1" fill-rule="evenodd"/></g><g clip-path="url(#8d8d93a012)"><path fill="#fa26a0" d="M 0 174.421875 C 1.363281 174.421875 2.273438 174.878906 3.636719 174.878906 C 45.9375 181.246094 95.515625 193.070312 140.542969 213.992188 C 185.570312 235.371094 226.050781 265.390625 249.25 309.507812 C 272.445312 352.261719 285.179688 402.292969 278.8125 462.785156 C 273.355469 516.910156 264.710938 567.398438 259.253906 612.882812 C 251.976562 665.640625 248.339844 712.488281 256.980469 752.058594 C 259.710938 773.4375 265.167969 792.996094 276.082031 810.277344 L 270.171875 810.277344 C 260.164062 793.449219 255.160156 774.347656 252.886719 753.425781 C 243.789062 713.398438 247.429688 666.097656 254.25 612.882812 C 259.710938 566.941406 268.351562 516.457031 273.808594 462.332031 C 280.175781 403.203125 267.894531 354.082031 245.15625 311.328125 C 222.414062 268.574219 182.386719 239.007812 138.269531 218.085938 C 93.695312 197.617188 44.117188 185.792969 2.273438 179.878906 C 1.363281 179.425781 0.910156 179.425781 0 179.425781 Z M 0 174.421875 " fill-opacity="1" fill-rule="evenodd"/></g><g clip-path="url(#bbac6e6f6e)"><path fill="#fa26a0" d="M 0 128.484375 C 7.730469 128.941406 15.464844 130.304688 23.652344 131.667969 C 68.226562 136.671875 120.984375 146.679688 170.105469 166.234375 C 218.773438 185.792969 263.347656 214.902344 291.09375 257.65625 C 318.382812 299.5 333.847656 350.441406 327.023438 413.664062 C 321.113281 470.0625 311.558594 523.277344 304.28125 571.945312 C 295.1875 627.890625 288.820312 678.832031 295.640625 721.585938 C 297.914062 756.609375 308.375 786.625 332.9375 810.277344 L 325.660156 810.277344 C 303.375 786.171875 293.367188 756.609375 290.636719 722.496094 C 284.269531 679.285156 290.183594 627.890625 299.28125 571.492188 C 306.558594 522.824219 316.109375 469.609375 322.019531 413.210938 C 328.390625 351.351562 313.835938 301.320312 287 259.929688 C 260.164062 218.085938 216.046875 189.886719 167.832031 170.328125 C 119.621094 151.226562 66.859375 141.21875 22.742188 136.214844 C 15.007812 134.851562 7.277344 133.941406 0 133.03125 Z M 0 128.484375 " fill-opacity="1" fill-rule="evenodd"/></g><g clip-path="url(#331d4e8732)"><path fill="#fa26a0" d="M 0 84.820312 C 13.191406 85.277344 28.199219 86.183594 44.117188 88.003906 C 90.511719 91.644531 146.910156 100.285156 199.214844 118.476562 C 251.976562 136.671875 301.097656 163.960938 332.9375 205.804688 C 364.320312 246.742188 382.515625 298.59375 375.238281 364.542969 C 369.324219 423.214844 357.953125 479.160156 348.855469 530.554688 C 337.941406 590.59375 329.296875 644.71875 333.847656 691.113281 C 335.667969 741.144531 352.949219 782.078125 398.886719 810.277344 L 389.335938 810.277344 C 347.035156 781.167969 331.117188 740.6875 328.84375 691.566406 C 324.296875 645.175781 332.9375 590.140625 343.851562 530.101562 C 352.949219 478.707031 364.320312 422.761719 370.234375 364.542969 C 377.054688 299.5 359.773438 249.015625 329.296875 208.535156 C 297.914062 168.054688 249.703125 140.765625 197.398438 123.027344 C 145.546875 104.832031 89.601562 96.191406 43.210938 93.007812 C 27.746094 91.1875 13.191406 89.824219 0 89.367188 Z M 0 84.820312 " fill-opacity="1" fill-rule="evenodd"/></g><g clip-path="url(#bbb6c5cca2)"><path fill="#fa26a0" d="M 0 43.429688 C 17.738281 42.519531 39.570312 42.976562 64.132812 44.339844 C 112.796875 46.613281 172.382812 53.890625 228.78125 70.265625 C 285.179688 87.09375 338.394531 113.476562 374.78125 153.957031 C 410.714844 193.980469 431.179688 246.742188 423.449219 315.875 C 417.082031 376.824219 404.800781 435.042969 393.882812 489.167969 C 380.695312 552.84375 369.777344 611.0625 372.054688 660.636719 C 373.417969 728.410156 399.34375 780.714844 480.757812 810.277344 L 466.203125 810.277344 C 392.519531 779.347656 368.414062 727.042969 367.050781 661.09375 C 364.777344 611.0625 375.691406 552.386719 388.882812 488.710938 C 399.796875 434.132812 412.078125 375.914062 418.445312 315.421875 C 425.722656 247.652344 405.710938 196.710938 371.144531 157.140625 C 335.667969 117.570312 282.90625 91.644531 227.417969 75.269531 C 171.472656 58.441406 112.34375 51.617188 63.675781 49.34375 C 39.117188 47.980469 17.285156 47.523438 0 47.980469 Z M 0 43.429688 " fill-opacity="1" fill-rule="evenodd"/></g><g clip-path="url(#f306b75a5b)"><path fill="#fa26a0" d="M 0 4.769531 C 19.558594 2.042969 49.121094 0.222656 84.597656 0.675781 C 135.539062 1.585938 198.308594 7.5 258.34375 22.507812 C 318.382812 37.972656 376.144531 62.988281 416.625 102.105469 C 456.652344 141.21875 479.847656 194.890625 472.117188 266.753906 C 465.292969 329.976562 451.648438 390.921875 438.914062 448.230469 C 423.902344 515.546875 409.804688 577.402344 410.257812 630.164062 C 410.257812 720.675781 450.738281 785.71875 594.464844 810.277344 L 568.085938 810.277344 C 441.640625 782.078125 405.253906 717.492188 404.800781 630.164062 C 404.800781 576.496094 418.902344 514.636719 433.910156 446.867188 C 446.644531 390.011719 459.835938 329.066406 466.65625 266.296875 C 474.390625 195.800781 452.101562 143.949219 412.988281 105.742188 C 373.417969 67.082031 316.5625 42.519531 256.980469 27.511719 C 197.398438 12.503906 135.085938 6.589844 84.144531 5.679688 C 48.667969 5.226562 18.648438 6.589844 0 8.863281 Z M 0 4.769531 " fill-opacity="1" fill-rule="nonzero"/></g><g clip-path="url(#4296f4e6d7)"><path fill="#fa26a0" d="M 788.023438 806.613281 C 788.347656 780.394531 797.164062 754.652344 812.648438 733.53125 C 828.265625 712.242188 850.867188 696.636719 876.054688 688.882812 C 888.730469 684.980469 901.964844 683.054688 915.234375 683.316406 C 930 683.597656 944.46875 686.863281 959.058594 688.800781 C 973.386719 690.714844 988.421875 691.414062 1002.246094 686.433594 C 1013.308594 682.46875 1022.925781 675.175781 1030.097656 665.882812 C 1037.242188 656.644531 1041.84375 645.644531 1043.144531 634.035156 C 1044.453125 622.414062 1041.84375 610.613281 1036.378906 600.308594 C 1025.933594 580.625 1003.65625 564.9375 980.679688 567.238281 C 970.542969 568.253906 960.199219 572.410156 954.179688 581 C 947.359375 590.730469 949.359375 603.476562 956.347656 612.507812 C 972.964844 633.957031 1006.078125 627.734375 1027.234375 617.402344 C 1048.457031 607.023438 1066.261719 588.179688 1072.558594 565.085938 C 1078.59375 542.984375 1073.859375 518.058594 1059.566406 500.0625 C 1056.0625 495.644531 1051.964844 491.824219 1047.429688 488.488281 C 1044.546875 486.386719 1041.789062 491.1875 1044.632812 493.273438 C 1062.1875 506.152344 1070.691406 528.585938 1069.460938 549.921875 C 1068.160156 572.492188 1054.960938 592.636719 1036.6875 605.402344 C 1027.425781 611.882812 1017.007812 616.585938 1006.007812 619.183594 C 993.792969 622.050781 979.566406 622.792969 968.425781 616.03125 C 959.207031 610.445312 952.578125 598.746094 956.660156 588.019531 C 960.085938 579.054688 969.816406 574.46875 978.738281 573.035156 C 1000.097656 569.585938 1021.160156 584.167969 1031.132812 602.253906 C 1042.09375 622.121094 1039.082031 646.390625 1024.742188 663.78125 C 1017.734375 672.28125 1008.46875 678.910156 997.851562 682.0625 C 984.246094 686.089844 969.828125 684.867188 955.984375 682.828125 C 942.085938 680.773438 928.214844 677.898438 914.109375 677.75 C 901.632812 677.636719 889.09375 679.363281 877.09375 682.792969 C 853.144531 689.636719 831.109375 703.25 814.75 722.085938 C 798.542969 740.777344 787.664062 764.101562 783.972656 788.574219 C 783.066406 794.550781 782.558594 800.570312 782.480469 806.613281 C 782.4375 810.171875 787.976562 810.171875 788.023438 806.613281 " fill-opacity="1" fill-rule="nonzero"/></g></svg>