<svg xmlns="http://www.w3.org/2000/svg" xmlns:xlink="http://www.w3.org/1999/xlink" width="1439" zoomAndPan="magnify" viewBox="0 0 1079.25 810.749971" height="1081" preserveAspectRatio="xMidYMid meet" version="1.0"><defs><clipPath id="36897ef593"><path d="M 0 0.15625 L 1078.5 0.15625 L 1078.5 810.34375 L 0 810.34375 Z M 0 0.15625 " clip-rule="nonzero"/></clipPath><clipPath id="6ccdeb38f8"><path d="M 0 222 L 17 222 L 17 810.34375 L 0 810.34375 Z M 0 222 " clip-rule="nonzero"/></clipPath><clipPath id="08ceec7634"><path d="M 0 174 L 65 174 L 65 810.34375 L 0 810.34375 Z M 0 174 " clip-rule="nonzero"/></clipPath><clipPath id="ea734f33a6"><path d="M 0 128 L 117 128 L 117 810.34375 L 0 810.34375 Z M 0 128 " clip-rule="nonzero"/></clipPath><clipPath id="db78f22e93"><path d="M 0 84 L 183 84 L 183 810.34375 L 0 810.34375 Z M 0 84 " clip-rule="nonzero"/></clipPath><clipPath id="48dac791d9"><path d="M 0 42 L 265 42 L 265 810.34375 L 0 810.34375 Z M 0 42 " clip-rule="nonzero"/></clipPath><clipPath id="3d5f5afeb6"><path d="M 0 0.15625 L 378.117188 0.15625 L 378.117188 810.34375 L 0 810.34375 Z M 0 0.15625 " clip-rule="nonzero"/></clipPath><clipPath id="d9c3a478fa"><path d="M 1053 0.15625 L 1078.5 0.15625 L 1078.5 176 L 1053 176 Z M 1053 0.15625 " clip-rule="nonzero"/></clipPath><clipPath id="b87515c472"><path d="M 1001 0.15625 L 1078.5 0.15625 L 1078.5 222 L 1001 222 Z M 1001 0.15625 " clip-rule="nonzero"/></clipPath><clipPath id="2857bc3f42"><path d="M 935 0.15625 L 1078.5 0.15625 L 1078.5 265 L 935 265 Z M 935 0.15625 " clip-rule="nonzero"/></clipPath><clipPath id="5f8fc9afa2"><path d="M 853 0.15625 L 1078.5 0.15625 L 1078.5 307 L 853 307 Z M 853 0.15625 " clip-rule="nonzero"/></clipPath><clipPath id="a3e89029b4"><path d="M 740.070312 0.15625 L 1078.5 0.15625 L 1078.5 349.484375 L 740.070312 349.484375 Z M 740.070312 0.15625 " clip-rule="nonzero"/></clipPath><clipPath id="7bc16d03e5"><path d="M 782.378906 487 L 1076 487 L 1076 810 L 782.378906 810 Z M 782.378906 487 " clip-rule="nonzero"/></clipPath></defs><g clip-path="url(#36897ef593)"><path fill="#ffffff" d="M 0 0.15625 L 1078.5 0.15625 L 1078.5 810.34375 L 0 810.34375 Z M 0 0.15625 " fill-opacity="1" fill-rule="nonzero"/><path fill="#ffffff" d="M 0 0.15625 L 1078.5 0.15625 L 1078.5 810.34375 L 0 810.34375 Z M 0 0.15625 " fill-opacity="1" fill-rule="nonzero"/></g><g clip-path="url(#6ccdeb38f8)"><path fill="#fa26a0" d="M -216.21875 222.179688 C -180.285156 230.367188 -140.714844 242.648438 -105.238281 262.207031 C -63.851562 284.492188 -27.917969 316.332031 -8.816406 360.902344 C 10.289062 405.023438 20.292969 454.144531 14.382812 511.453125 C 8.921875 563.304688 1.644531 611.0625 -1.992188 654.269531 C -6.996094 702.9375 -8.359375 746.148438 2.554688 782.078125 C 4.375 792.085938 6.648438 801.636719 9.832031 810.277344 L 4.828125 810.277344 C 2.101562 802.089844 -0.171875 792.996094 -1.539062 783.898438 C -12.910156 747.511719 -11.542969 703.847656 -6.539062 654.269531 C -3.355469 611.0625 3.921875 563.304688 9.378906 511.453125 C 15.289062 455.054688 5.285156 406.386719 -12.910156 362.722656 C -31.558594 319.058594 -67.035156 287.675781 -107.96875 265.84375 C -142.535156 247.195312 -181.195312 234.914062 -216.21875 227.183594 Z M -216.21875 222.179688 " fill-opacity="1" fill-rule="evenodd"/></g><g clip-path="url(#08ceec7634)"><path fill="#fa26a0" d="M -216.21875 174.421875 C -214.855469 174.421875 -213.945312 174.878906 -212.578125 174.878906 C -170.28125 181.246094 -120.703125 193.070312 -75.675781 213.992188 C -30.648438 235.371094 9.832031 265.390625 33.03125 309.507812 C 56.226562 352.261719 68.960938 402.292969 62.59375 462.785156 C 57.136719 516.910156 48.492188 567.398438 43.035156 612.882812 C 35.757812 665.640625 32.121094 712.488281 40.761719 752.058594 C 43.492188 773.4375 48.949219 792.996094 59.863281 810.277344 L 53.953125 810.277344 C 43.945312 793.449219 38.941406 774.347656 36.667969 753.425781 C 27.570312 713.398438 31.210938 666.097656 38.03125 612.882812 C 43.492188 566.941406 52.132812 516.457031 57.589844 462.332031 C 63.957031 403.203125 51.675781 354.082031 28.9375 311.328125 C 6.195312 268.574219 -33.832031 239.007812 -77.949219 218.085938 C -122.523438 197.617188 -172.101562 185.792969 -213.945312 179.878906 C -214.855469 179.425781 -215.308594 179.425781 -216.21875 179.425781 Z M -216.21875 174.421875 " fill-opacity="1" fill-rule="evenodd"/></g><g clip-path="url(#ea734f33a6)"><path fill="#fa26a0" d="M -216.21875 128.484375 C -208.488281 128.941406 -200.753906 130.304688 -192.566406 131.667969 C -147.992188 136.671875 -95.234375 146.679688 -46.113281 166.234375 C 2.554688 185.792969 47.128906 214.902344 74.875 257.65625 C 102.164062 299.5 117.628906 350.441406 110.804688 413.664062 C 104.894531 470.0625 95.339844 523.277344 88.0625 571.945312 C 78.96875 627.890625 72.601562 678.832031 79.421875 721.585938 C 81.695312 756.609375 92.15625 786.625 116.71875 810.277344 L 109.441406 810.277344 C 87.15625 786.171875 77.148438 756.609375 74.417969 722.496094 C 68.050781 679.285156 73.964844 627.890625 83.0625 571.492188 C 90.339844 522.824219 99.890625 469.609375 105.800781 413.210938 C 112.171875 351.351562 97.617188 301.320312 70.78125 259.929688 C 43.945312 218.085938 -0.171875 189.886719 -48.386719 170.328125 C -96.597656 151.226562 -149.359375 141.21875 -193.476562 136.214844 C -201.210938 134.851562 -208.941406 133.941406 -216.21875 133.03125 Z M -216.21875 128.484375 " fill-opacity="1" fill-rule="evenodd"/></g><g clip-path="url(#db78f22e93)"><path fill="#fa26a0" d="M -216.21875 84.820312 C -203.027344 85.277344 -188.019531 86.183594 -172.101562 88.003906 C -125.707031 91.644531 -69.308594 100.285156 -17.003906 118.476562 C 35.757812 136.671875 84.878906 163.960938 116.71875 205.804688 C 148.101562 246.742188 166.296875 298.59375 159.019531 364.542969 C 153.105469 423.214844 141.734375 479.160156 132.636719 530.554688 C 121.722656 590.59375 113.078125 644.71875 117.628906 691.113281 C 119.449219 741.144531 136.730469 782.078125 182.667969 810.277344 L 173.117188 810.277344 C 130.820312 781.167969 114.898438 740.6875 112.625 691.566406 C 108.078125 645.175781 116.71875 590.140625 127.632812 530.101562 C 136.730469 478.707031 148.101562 422.761719 154.015625 364.542969 C 160.835938 299.5 143.554688 249.015625 113.078125 208.535156 C 81.695312 168.054688 33.484375 140.765625 -18.820312 123.027344 C -70.671875 104.832031 -126.617188 96.191406 -173.007812 93.007812 C -188.472656 91.1875 -203.027344 89.824219 -216.21875 89.367188 Z M -216.21875 84.820312 " fill-opacity="1" fill-rule="evenodd"/></g><g clip-path="url(#48dac791d9)"><path fill="#fa26a0" d="M -216.21875 43.429688 C -198.480469 42.519531 -176.648438 42.976562 -152.085938 44.339844 C -103.421875 46.613281 -43.835938 53.890625 12.5625 70.265625 C 68.960938 87.09375 122.175781 113.476562 158.5625 153.957031 C 194.496094 193.980469 214.960938 246.742188 207.230469 315.875 C 200.863281 376.824219 188.582031 435.042969 177.667969 489.167969 C 164.476562 552.84375 153.558594 611.0625 155.835938 660.636719 C 157.199219 728.410156 183.125 780.714844 264.539062 810.277344 L 249.984375 810.277344 C 176.300781 779.347656 152.195312 727.042969 150.832031 661.09375 C 148.558594 611.0625 159.472656 552.386719 172.664062 488.710938 C 183.578125 434.132812 195.859375 375.914062 202.226562 315.421875 C 209.503906 247.652344 189.492188 196.710938 154.925781 157.140625 C 119.449219 117.570312 66.6875 91.644531 11.199219 75.269531 C -44.746094 58.441406 -103.875 51.617188 -152.542969 49.34375 C -177.101562 47.980469 -198.933594 47.523438 -216.21875 47.980469 Z M -216.21875 43.429688 " fill-opacity="1" fill-rule="evenodd"/></g><g clip-path="url(#3d5f5afeb6)"><path fill="#fa26a0" d="M -216.21875 4.769531 C -196.660156 2.042969 -167.097656 0.222656 -131.621094 0.675781 C -80.679688 1.585938 -17.910156 7.5 42.125 22.507812 C 102.164062 37.972656 159.925781 62.988281 200.40625 102.105469 C 240.433594 141.21875 263.628906 194.890625 255.898438 266.753906 C 249.074219 329.976562 235.429688 390.921875 222.695312 448.230469 C 207.683594 515.546875 193.585938 577.402344 194.039062 630.164062 C 194.039062 720.675781 234.519531 785.71875 378.246094 810.277344 L 351.867188 810.277344 C 225.421875 782.078125 189.035156 717.492188 188.582031 630.164062 C 188.582031 576.496094 202.683594 514.636719 217.691406 446.867188 C 230.425781 390.011719 243.617188 329.066406 250.4375 266.296875 C 258.171875 195.800781 235.882812 143.949219 196.769531 105.742188 C 157.199219 67.082031 100.34375 42.519531 40.761719 27.511719 C -18.820312 12.503906 -81.132812 6.589844 -132.074219 5.679688 C -167.550781 5.226562 -197.570312 6.589844 -216.21875 8.863281 Z M -216.21875 4.769531 " fill-opacity="1" fill-rule="nonzero"/></g><g clip-path="url(#d9c3a478fa)"><path fill="#fa26a0" d="M 1334.410156 175.21875 C 1333.042969 175.21875 1332.132812 174.761719 1330.769531 174.761719 C 1288.46875 168.394531 1238.894531 156.570312 1193.867188 135.648438 C 1148.835938 114.269531 1108.355469 84.25 1085.160156 40.132812 C 1061.964844 -2.621094 1049.230469 -52.652344 1055.597656 -113.144531 C 1061.054688 -167.269531 1069.695312 -217.757812 1075.152344 -263.242188 C 1082.429688 -316 1086.070312 -362.847656 1077.429688 -402.417969 C 1074.699219 -423.796875 1069.242188 -443.355469 1058.324219 -460.636719 L 1064.238281 -460.636719 C 1074.246094 -443.808594 1079.246094 -424.707031 1081.523438 -403.785156 C 1090.617188 -363.757812 1086.980469 -316.457031 1080.15625 -263.242188 C 1074.699219 -217.304688 1066.058594 -166.816406 1060.597656 -112.691406 C 1054.230469 -53.5625 1066.511719 -4.441406 1089.253906 38.3125 C 1111.996094 81.066406 1152.019531 110.632812 1196.140625 131.554688 C 1240.714844 152.019531 1290.289062 163.847656 1332.132812 169.757812 C 1333.042969 170.214844 1333.5 170.214844 1334.410156 170.214844 Z M 1334.410156 175.21875 " fill-opacity="1" fill-rule="evenodd"/></g><g clip-path="url(#b87515c472)"><path fill="#fa26a0" d="M 1334.410156 221.15625 C 1326.675781 220.699219 1318.945312 219.335938 1310.757812 217.972656 C 1266.183594 212.96875 1213.421875 202.960938 1164.300781 183.40625 C 1115.632812 163.847656 1071.0625 134.738281 1043.316406 91.984375 C 1016.027344 50.136719 1000.5625 -0.800781 1007.382812 -64.023438 C 1013.296875 -120.421875 1022.847656 -173.640625 1030.125 -222.304688 C 1039.222656 -278.25 1045.589844 -329.191406 1038.765625 -371.945312 C 1036.492188 -406.96875 1026.03125 -436.988281 1001.472656 -460.636719 L 1008.75 -460.636719 C 1031.035156 -436.53125 1041.042969 -406.96875 1043.769531 -372.855469 C 1050.136719 -329.644531 1044.226562 -278.25 1035.128906 -221.851562 C 1027.851562 -173.183594 1018.300781 -119.96875 1012.386719 -63.570312 C 1006.019531 -1.710938 1020.574219 48.320312 1047.410156 89.710938 C 1074.246094 131.554688 1118.363281 159.753906 1166.574219 179.3125 C 1214.789062 198.414062 1267.546875 208.421875 1311.667969 213.421875 C 1319.398438 214.789062 1327.132812 215.699219 1334.410156 216.605469 Z M 1334.410156 221.15625 " fill-opacity="1" fill-rule="evenodd"/></g><g clip-path="url(#2857bc3f42)"><path fill="#fa26a0" d="M 1334.410156 264.820312 C 1321.21875 264.363281 1306.207031 263.453125 1290.289062 261.636719 C 1243.898438 257.996094 1187.496094 249.355469 1135.191406 231.160156 C 1082.429688 212.96875 1033.308594 185.679688 1001.472656 143.835938 C 970.085938 102.898438 951.894531 51.046875 959.171875 -14.902344 C 965.085938 -73.574219 976.457031 -129.519531 985.550781 -180.917969 C 996.46875 -240.953125 1005.109375 -295.078125 1000.5625 -341.472656 C 998.742188 -391.503906 981.457031 -432.4375 935.519531 -460.636719 L 945.070312 -460.636719 C 987.371094 -431.527344 1003.289062 -391.046875 1005.566406 -341.925781 C 1010.113281 -295.535156 1001.472656 -240.5 990.554688 -180.460938 C 981.457031 -129.066406 970.085938 -73.121094 964.175781 -14.902344 C 957.351562 50.136719 974.636719 100.625 1005.109375 141.105469 C 1036.492188 181.585938 1084.707031 208.875 1137.011719 226.613281 C 1188.863281 244.808594 1244.804688 253.449219 1291.199219 256.632812 C 1306.664062 258.453125 1321.21875 259.816406 1334.410156 260.269531 Z M 1334.410156 264.820312 " fill-opacity="1" fill-rule="evenodd"/></g><g clip-path="url(#5f8fc9afa2)"><path fill="#fa26a0" d="M 1334.410156 306.210938 C 1316.671875 307.117188 1294.839844 306.664062 1270.277344 305.300781 C 1221.609375 303.023438 1162.027344 295.746094 1105.628906 279.375 C 1049.230469 262.546875 996.011719 236.164062 959.625 195.683594 C 923.695312 155.660156 903.226562 102.898438 910.960938 33.765625 C 917.328125 -27.183594 929.609375 -85.402344 940.523438 -139.527344 C 953.714844 -203.203125 964.628906 -261.421875 962.355469 -311 C 960.992188 -378.769531 935.066406 -431.074219 853.652344 -460.636719 L 868.207031 -460.636719 C 941.886719 -429.710938 965.996094 -377.402344 967.359375 -311.453125 C 969.632812 -261.421875 958.71875 -202.75 945.527344 -139.070312 C 934.609375 -84.492188 922.332031 -26.273438 915.960938 34.21875 C 908.683594 101.988281 928.699219 152.929688 963.265625 192.5 C 998.742188 232.070312 1051.503906 257.996094 1106.992188 274.371094 C 1162.9375 291.199219 1222.066406 298.023438 1270.730469 300.296875 C 1295.292969 301.660156 1317.125 302.117188 1334.410156 301.660156 Z M 1334.410156 306.210938 " fill-opacity="1" fill-rule="evenodd"/></g><g clip-path="url(#a3e89029b4)"><path fill="#fa26a0" d="M 1334.410156 344.871094 C 1314.851562 347.597656 1285.285156 349.417969 1249.808594 348.964844 C 1198.867188 348.054688 1136.101562 342.140625 1076.0625 327.132812 C 1016.027344 311.667969 958.261719 286.652344 917.78125 247.535156 C 877.757812 208.421875 854.558594 154.75 862.292969 82.886719 C 869.113281 19.664062 882.761719 -41.28125 895.496094 -98.589844 C 910.503906 -165.90625 924.605469 -227.765625 924.148438 -280.523438 C 924.148438 -371.035156 883.667969 -436.078125 739.941406 -460.636719 L 766.324219 -460.636719 C 892.765625 -432.4375 929.152344 -367.851562 929.609375 -280.523438 C 929.609375 -226.855469 915.507812 -164.996094 900.5 -97.226562 C 887.761719 -40.371094 874.574219 20.574219 867.75 83.339844 C 860.019531 153.839844 882.304688 205.691406 921.421875 243.898438 C 960.992188 282.558594 1017.84375 307.117188 1077.429688 322.128906 C 1137.011719 337.136719 1199.324219 343.050781 1250.265625 343.960938 C 1285.742188 344.414062 1315.761719 343.050781 1334.410156 340.777344 Z M 1334.410156 344.871094 " fill-opacity="1" fill-rule="nonzero"/></g><g clip-path="url(#7bc16d03e5)"><path fill="#fa26a0" d="M 788.023438 806.613281 C 788.347656 780.394531 797.164062 754.652344 812.648438 733.53125 C 828.265625 712.242188 850.867188 696.636719 876.054688 688.882812 C 888.730469 684.980469 901.964844 683.054688 915.234375 683.316406 C 930 683.597656 944.46875 686.863281 959.058594 688.800781 C 973.386719 690.714844 988.421875 691.414062 1002.246094 686.433594 C 1013.308594 682.46875 1022.925781 675.175781 1030.097656 665.882812 C 1037.242188 656.644531 1041.84375 645.644531 1043.144531 634.035156 C 1044.453125 622.414062 1041.84375 610.613281 1036.378906 600.308594 C 1025.933594 580.625 1003.65625 564.9375 980.679688 567.238281 C 970.542969 568.253906 960.199219 572.410156 954.179688 581 C 947.359375 590.730469 949.359375 603.476562 956.347656 612.507812 C 972.964844 633.957031 1006.078125 627.734375 1027.234375 617.402344 C 1048.457031 607.023438 1066.261719 588.179688 1072.558594 565.085938 C 1078.59375 542.984375 1073.859375 518.058594 1059.566406 500.0625 C 1056.0625 495.644531 1051.964844 491.824219 1047.429688 488.488281 C 1044.546875 486.386719 1041.789062 491.1875 1044.632812 493.273438 C 1062.1875 506.152344 1070.691406 528.585938 1069.460938 549.921875 C 1068.160156 572.492188 1054.960938 592.636719 1036.6875 605.402344 C 1027.425781 611.882812 1017.007812 616.585938 1006.007812 619.183594 C 993.792969 622.050781 979.566406 622.792969 968.425781 616.03125 C 959.207031 610.445312 952.578125 598.746094 956.660156 588.019531 C 960.085938 579.054688 969.816406 574.46875 978.738281 573.035156 C 1000.097656 569.585938 1021.160156 584.167969 1031.132812 602.253906 C 1042.09375 622.121094 1039.082031 646.390625 1024.742188 663.78125 C 1017.734375 672.28125 1008.46875 678.910156 997.851562 682.0625 C 984.246094 686.089844 969.828125 684.867188 955.984375 682.828125 C 942.085938 680.773438 928.214844 677.898438 914.109375 677.75 C 901.632812 677.636719 889.09375 679.363281 877.09375 682.792969 C 853.144531 689.636719 831.109375 703.25 814.75 722.085938 C 798.542969 740.777344 787.664062 764.101562 783.972656 788.574219 C 783.066406 794.550781 782.558594 800.570312 782.480469 806.613281 C 782.4375 810.171875 787.976562 810.171875 788.023438 806.613281 " fill-opacity="1" fill-rule="nonzero"/></g></svg>