<svg xmlns="http://www.w3.org/2000/svg" viewBox="0 0 1439 1081" fill="none"><g fill="#EEEDF2" clip-path="url(#a)" opacity=".6"><path d="M1.5-1604H0v4839h1.5zm84.467 0h-1.5v4839h1.5zm84.467 0h-1.5v4839h1.5zm84.466 0h-1.5v4839h1.5zm84.467 0h-1.5v4839h1.5zm84.467 0h-1.5v4839h1.5zm84.467 0h-1.5v4839h1.5zm84.47 0h-1.5v4839h1.5zm84.467 0h-1.5v4839h1.5zm84.467 0h-1.5v4839h1.5zm84.467 0h-1.5v4839h1.5zm84.467 0h-1.5v4839h1.5zm84.471 0h-1.5v4839h1.5zm84.46 0h-1.5v4839h1.5zm84.47 0h-1.5v4839h1.5zm84.47 0h-1.5v4839h1.5zm84.46 0h-1.5v4839h1.5z"/></g><defs><clipPath id="a"><path fill="#fff" d="M0 0h1439v1081H0z"/></clipPath></defs></svg>