<svg xmlns="http://www.w3.org/2000/svg" width="132" height="32" fill="none"><path fill="#444CE7" d="M20.286 1.333H9.047L0 10.38v11.24l9.047 9.047h11.239l9.047-9.047V10.38zM10.602 21.76l-5.796-5.796 5.796-5.796c2.192-2.19 5.796-2.19 7.988 0l5.796 5.796-5.796 5.796c-2.192 2.191-5.726 2.191-7.988 0"/><path fill="#101828" d="M42.228 22.826c1.8 0 3.28-.92 3.74-2.3v2.14h2.66v-5.4c0-1.22-.96-2.26-2.26-2.26h-3.8v2.26h2.7c.34 0 .56.22.56.56 0 1.3-1.72 2.56-3.46 2.56-2.32 0-4.16-1.82-4.16-4.72s1.84-4.58 4.22-4.58c1.8 0 3.04.98 3.26 2.48h2.98c-.18-3-2.7-5.06-6.22-5.06-3.7 0-7.1 2.38-7.1 7.16s3.3 7.16 6.88 7.16m7.542-.16h2.78V8.206h-2.78zm8.776.16c3.1 0 5.32-2.2 5.32-5.2s-2.22-5.2-5.32-5.2-5.32 2.2-5.32 5.2 2.22 5.2 5.32 5.2m0-2.4c-1.5 0-2.52-1.14-2.52-2.8 0-1.68 1.02-2.82 2.52-2.82s2.52 1.14 2.52 2.82c0 1.66-1.02 2.8-2.52 2.8m11.541 2.4c2.98 0 4.76-2.06 4.76-5.2s-1.78-5.2-4.72-5.2c-1.26 0-2.24.48-2.8 1.22v-5.44h-2.78v14.46h2.78v-1.1c.56.78 1.6 1.26 2.76 1.26m-.44-2.4c-1.5 0-2.48-1.12-2.48-2.8 0-1.7.98-2.82 2.48-2.82 1.46 0 2.46 1.12 2.46 2.82 0 1.68-1 2.8-2.46 2.8m9.853-8c-2.76 0-4.4 1.62-4.52 3.64h2.48c.04-.84.66-1.6 1.88-1.6 1.14 0 1.8.58 1.8 1.42 0 .42-.26.74-.76.74h-1.7c-2.2 0-3.68 1.2-3.68 3.18 0 1.72 1.34 3.02 3.3 3.02 1.38 0 2.5-.62 2.84-1.56v1.4h2.76v-6.48c0-2.28-1.86-3.76-4.4-3.76m-.5 8.38c-.78 0-1.34-.46-1.34-1.12 0-.78.6-1.3 1.44-1.3h2.04v.14c0 1.28-.78 2.28-2.14 2.28m5.969 1.86h2.78V8.206h-2.78zm4.256 0h5.72c2.96 0 5-1.52 5-4.18 0-1.84-1.08-2.96-2.36-3.46.82-.44 1.64-1.44 1.64-2.76 0-2.34-1.9-3.6-4.44-3.6h-5.56zm2.96-8.66v-2.96h2.32c1.34 0 1.94.54 1.94 1.48s-.6 1.48-1.88 1.48zm0 6.06v-3.52h2.5c1.66 0 2.4.64 2.4 1.78s-.74 1.74-2.4 1.74zm12.597-7.64c-2.76 0-4.4 1.62-4.52 3.64h2.48c.04-.84.66-1.6 1.88-1.6 1.14 0 1.8.58 1.8 1.42 0 .42-.26.74-.76.74h-1.7c-2.2 0-3.68 1.2-3.68 3.18 0 1.72 1.34 3.02 3.3 3.02 1.38 0 2.5-.62 2.84-1.56v1.4h2.76v-6.48c0-2.28-1.86-3.76-4.4-3.76m-.5 8.38c-.78 0-1.34-.46-1.34-1.12 0-.78.6-1.3 1.44-1.3h2.04v.14c0 1.28-.78 2.28-2.14 2.28m5.808 1.86h2.8v-5.52c0-1.3.86-2.24 2.08-2.24 1.16 0 1.94.88 1.94 2.1v5.66h2.8v-6.28c0-2.32-1.48-3.96-3.76-3.96-1.38 0-2.5.58-3.06 1.56v-1.4h-2.8zm17.6 0h3.36l-4.34-6.12 4.02-3.96h-3.52l-3.5 3.44v-7.82h-2.8v14.46h2.8v-3.16l1.12-1.1z"/></svg>