<svg xmlns="http://www.w3.org/2000/svg" width="112" height="32" fill="none"><circle cx="15.335" cy="16.167" r="13.667" stroke="#6927DA" stroke-width="2"/><path stroke="#6927DA" stroke-width="2" d="M20.757 21.587c-2.76 2.76-5.886 4.561-8.67 5.277-2.81.723-5.074.307-6.415-1.034s-1.757-3.605-1.035-6.415c.716-2.784 2.518-5.91 5.277-8.67s5.886-4.561 8.67-5.277c2.81-.722 5.074-.307 6.415 1.034s1.757 3.606 1.035 6.415c-.716 2.784-2.518 5.91-5.277 8.67Z"/><path stroke="#6927DA" stroke-width="2" d="M20.756 10.745c2.76 2.76 4.561 5.886 5.277 8.67.723 2.81.307 5.074-1.034 6.415s-3.605 1.757-6.415 1.035c-2.784-.716-5.91-2.518-8.67-5.277s-4.561-5.886-5.277-8.67c-.722-2.81-.307-5.074 1.034-6.415s3.606-1.757 6.415-1.035c2.784.716 5.91 2.518 8.67 5.277Z"/><path fill="#101828" d="M42.568 22.826c3.14 0 5.26-1.64 5.26-4.26 0-5.54-7.36-3.18-7.36-6.1 0-.82.74-1.38 1.92-1.38 1.34 0 2.18.72 2.28 1.82h2.86c-.08-2.66-2.12-4.4-5.14-4.4-2.84 0-4.84 1.64-4.84 3.96 0 5.5 7.26 3.4 7.26 6.14 0 1.06-.9 1.62-2.24 1.62-1.48 0-2.42-.9-2.54-2.32h-2.88c.12 2.98 2.24 4.92 5.42 4.92m5.941 3.92h2.78v-4.98c.54.68 1.52 1.06 2.66 1.06 2.9 0 4.86-2.06 4.86-5.2s-1.8-5.2-4.62-5.2c-1.3 0-2.3.48-2.9 1.26v-1.1h-2.78zm5.1-6.32c-1.5 0-2.48-1.12-2.48-2.8 0-1.7.98-2.82 2.48-2.82 1.46 0 2.46 1.12 2.46 2.82 0 1.68-1 2.8-2.46 2.8m5.872 2.24h2.78v-5.52c0-1.3.86-2.24 2.08-2.24 1.16 0 1.96.88 1.96 2.1v5.66h2.78v-6.28c0-2.32-1.48-3.96-3.74-3.96-1.4 0-2.5.58-3.08 1.56v-5.78h-2.78zm17.377-3.42c-.22.86-.96 1.3-2.08 1.3-1.4 0-2.3-.88-2.5-2.3h7.24c.02-.22.04-.52.04-.9 0-2.3-1.42-4.92-4.98-4.92-3.42 0-4.98 2.62-4.98 5.18 0 2.54 1.76 5.22 5.18 5.22 2.48 0 4.4-1.4 4.8-3.58zm-2.28-4.78c1.34 0 2.12.9 2.2 2.02h-4.46c.24-1.4 1-2.02 2.26-2.02m12.272.44v-2.32h-1.435c-1.22 0-1.98.42-2.52 1.68v-1.68h-2.8v10.08h2.8v-4.9c0-1.72.62-2.86 2-2.86zm9.6-2.32h-2.8v5.52c0 1.28-.86 2.24-2.08 2.24-1.14 0-1.94-.88-1.94-2.1v-5.66h-2.78v6.28c0 2.3 1.48 3.96 3.74 3.96 1.38 0 2.5-.6 3.06-1.56v1.4h2.8zm1.2 10.08h2.779V8.206h-2.78zm10.716-3.42c-.22.86-.96 1.3-2.08 1.3-1.4 0-2.3-.88-2.5-2.3h7.24c.02-.22.04-.52.04-.9 0-2.3-1.42-4.92-4.98-4.92-3.42 0-4.98 2.62-4.98 5.18 0 2.54 1.76 5.22 5.18 5.22 2.48 0 4.4-1.4 4.8-3.58zm-2.28-4.78c1.34 0 2.12.9 2.2 2.02h-4.46c.24-1.4 1-2.02 2.26-2.02"/></svg>