<svg xmlns="http://www.w3.org/2000/svg" width="122" height="32" fill="none"><g fill="#FF4405" clip-path="url(#a)"><path d="m18.179 2.747-2.814-.754-2.371 8.85-2.141-7.99-2.814.754 2.313 8.633-5.761-5.762-2.06 2.06 6.32 6.32-7.87-2.11-.754 2.815 8.598 2.304a5.826 5.826 0 1 1 11.353-.008l7.815 2.093.754-2.813-8.633-2.313 7.87-2.11-.753-2.813-8.633 2.313 5.761-5.761-2.06-2.06-6.231 6.231z"/><path d="M20.17 17.891a5.8 5.8 0 0 1-1.449 2.67l5.661 5.662 2.06-2.06zm-1.506 2.729a5.8 5.8 0 0 1-2.604 1.54l2.06 7.688 2.814-.754zm-2.709 1.568a5.83 5.83 0 0 1-3.008-.026l-2.062 7.695 2.813.754zm-3.108-.054a5.8 5.8 0 0 1-2.558-1.563l-5.675 5.676 2.06 2.06zm-2.605-1.613a5.8 5.8 0 0 1-1.413-2.637l-7.84 2.1.754 2.815z"/></g><path fill="#101828" d="M45.682 8.606v10.14l-6.5-10.14h-2.6v14h2.6v-10.06l6.5 10.06h2.6v-14zm3.772 2.62h2.68v-2.62h-2.68zm.04 11.38v-10h2.6v10zm13.786-5c0-3.46-2.46-5.1-5.06-5.12-2.62-.02-5.04 1.66-5.04 5.12s2.42 5.14 5.04 5.12c2.38-.02 4.02-1.12 4.78-2.94l-2.02-.84c-.62 1.24-1.6 1.68-2.76 1.7-1 .02-2.14-.46-2.38-2.24h7.38c.04-.26.06-.52.06-.8m-5.06-3.06c1 .02 2.02.56 2.34 2h-4.68c.34-1.46 1.36-2.02 2.34-2m11.07-.08v-1.98h-1.64v-2.68l-2.6.8v1.88h-1.64v1.98h1.64v5.18c0 1.96.16 2.96 3.2 2.96h.7v-2.28h-.7c-.48 0-.6-.08-.6-.68v-5.18zm3.863 5.96 5.52-5.64v-2.18h-8.28v2.18h5.36l-5.52 5.64v2.18h8.5v-2.18zm6.512-.64 2.62-.4c.18 1 1.36 1.38 2.08 1.38.74 0 2.02-.16 2.02-1.36 0-2.34-6.42.58-6.42-3.9 0-2.88 3.34-3.04 4.4-3.04 1 0 3.9.16 4.5 2.48l-2.48.52c-.22-1.06-1.34-1.26-1.94-1.26s-1.88.14-1.88 1.3c0 2.32 6.42-.64 6.42 3.9 0 3.06-3.52 3.32-4.62 3.32-1 0-4.18-.26-4.7-2.94m12.697-2.18c0 2.44 1.3 3.18 2.66 3.16 1.22-.02 2.06-.52 2.56-1.92l2.14 1.04c-.78 2.04-2.68 2.82-4.7 2.84-2.62.02-5.26-1.66-5.26-5.12s2.64-5.14 5.26-5.12c2.02.02 3.92.8 4.7 2.84l-2.14 1.04c-.5-1.4-1.34-1.9-2.56-1.92-1.36-.02-2.66.72-2.66 3.16m14.34-5.16c-1.34 0-2.56.7-3.34 2.2v-6.04h-2.6v14h2.6v-3.54c0-4.58 1.9-4.96 2.6-4.96 1.12 0 1.28 1.16 1.28 2.86v5.64h2.6v-5.64c0-2.12-.34-4.52-3.14-4.52m14.117 5.16c0-3.46-2.46-5.1-5.06-5.12-2.62-.02-5.04 1.66-5.04 5.12s2.42 5.14 5.04 5.12c2.38-.02 4.02-1.12 4.78-2.94l-2.02-.84c-.62 1.24-1.6 1.68-2.76 1.7-1 .02-2.14-.46-2.38-2.24h7.38c.04-.26.06-.52.06-.8m-5.06-3.06c1 .02 2.02.56 2.34 2h-4.68c.34-1.46 1.36-2.02 2.34-2"/><defs><clipPath id="a"><path fill="#fff" d="M0 1.333h29.333v29.333H0z"/></clipPath></defs></svg>