<svg xmlns="http://www.w3.org/2000/svg" width="119" height="32" fill="none"><circle cx="13.333" cy="16" r="11.333" stroke="#155EEF" stroke-width="4"/><path fill="#101828" d="M44.122 13.609q0 1.045-.504 1.96-.485.914-1.549 1.475-1.045.56-2.65.56h-2.185v5.002h-2.613V9.577h4.797q1.512 0 2.576.523 1.065.522 1.587 1.437.541.915.541 2.072m-4.816 1.885q1.083 0 1.606-.485.522-.504.522-1.4 0-1.904-2.128-1.904h-2.072v3.79zm10.517 7.28q-1.492 0-2.688-.653a4.9 4.9 0 0 1-1.885-1.885q-.672-1.215-.672-2.8 0-1.588.69-2.8a4.86 4.86 0 0 1 1.923-1.867q1.214-.672 2.707-.672t2.706.672a4.74 4.74 0 0 1 1.904 1.867q.71 1.213.71 2.8 0 1.585-.728 2.8a4.96 4.96 0 0 1-1.942 1.885q-1.212.654-2.725.653m0-2.277q.71 0 1.325-.336.636-.355 1.008-1.045.374-.69.374-1.68 0-1.475-.784-2.259a2.5 2.5 0 0 0-1.886-.803q-1.12 0-1.885.803-.747.784-.747 2.259t.728 2.277q.747.784 1.867.784m9.179-11.704v13.813h-2.614V8.793zm11.728 3.472-6.403 15.232h-2.78l2.24-5.152-4.145-10.08h2.93l2.67 7.224 2.707-7.224zm13.505-.149q1.905 0 3.061 1.176 1.176 1.157 1.176 3.248v6.066H85.86v-5.712q0-1.213-.616-1.848-.615-.653-1.68-.653c-1.065 0-1.276.218-1.699.653q-.615.635-.616 1.848v5.712h-2.613v-5.712q0-1.213-.616-1.848-.615-.653-1.68-.653-1.083 0-1.717.653-.616.635-.616 1.848v5.712h-2.614V12.265h2.614v1.25a3.5 3.5 0 0 1 1.288-1.026 4.1 4.1 0 0 1 1.754-.373q1.214 0 2.166.522a3.54 3.54 0 0 1 1.474 1.456 3.76 3.76 0 0 1 1.456-1.437 4.2 4.2 0 0 1 2.09-.541m5.299 5.282q0-1.567.615-2.781.635-1.213 1.7-1.867a4.57 4.57 0 0 1 2.407-.653q1.158 0 2.016.467.878.466 1.4 1.176v-1.475h2.632v10.341h-2.632v-1.512q-.504.729-1.4 1.214-.877.465-2.035.466a4.44 4.44 0 0 1-2.389-.672q-1.064-.672-1.698-1.885-.617-1.231-.617-2.819Zm8.138.038q0-.952-.373-1.624a2.55 2.55 0 0 0-1.008-1.046 2.64 2.64 0 0 0-1.363-.373q-.728 0-1.344.355-.615.355-1.008 1.045-.373.672-.373 1.605c0 .933.124 1.17.373 1.643q.393.69 1.008 1.064a2.6 2.6 0 0 0 1.344.373q.729 0 1.363-.354.635-.374 1.008-1.046.373-.69.373-1.642m7.481-3.024v5.002q0 .523.242.766.261.224.859.224h1.213v2.202h-1.642q-3.304 0-3.304-3.21v-4.984h-1.232v-2.147h1.232V9.708h2.632v2.557h2.314v2.147zm9.271-2.296q1.176 0 2.091.522.914.504 1.418 1.512.523.99.523 2.39v6.066h-2.613v-5.712q0-1.232-.616-1.885-.616-.672-1.68-.672-1.082 0-1.718.672-.615.653-.616 1.885v5.712H108.6V8.793h2.613v4.76a3.33 3.33 0 0 1 1.344-1.045 4.4 4.4 0 0 1 1.867-.392"/></svg>